SplineFontDB: 3.0
FontName: eiadr10
FullName: eiad
FamilyName: Eiad
Weight: Regular
Copyright: %% This file is public domain.\n%% Originally written 1998, Ivan A Derzhanski.\n%% \n% eiadr10.mf: Computer Modern Irish 10 point\n\nGenerated from MetaFont bitmap by mftrace 1.2.14, http://www.xs4all.nl/~hanwen/mftrace/ 
Version: 001.001
ItalicAngle: 0
UnderlinePosition: -100
UnderlineWidth: 50
Ascent: 800
Descent: 200
LayerCount: 2
Layer: 0 0 "Back"  1
Layer: 1 0 "Fore"  0
NeedsXUIDChange: 1
UniqueID: 4168708
OS2Version: 0
OS2_WeightWidthSlopeOnly: 0
OS2_UseTypoMetrics: 0
CreationTime: 1248265364
ModificationTime: 1248382649
OS2TypoAscent: 0
OS2TypoAOffset: 1
OS2TypoDescent: 0
OS2TypoDOffset: 1
OS2TypoLinegap: 0
OS2WinAscent: 0
OS2WinAOffset: 1
OS2WinDescent: 0
OS2WinDOffset: 1
HheadAscent: 0
HheadAOffset: 1
HheadDescent: 0
HheadDOffset: 1
OS2Vendor: 'PfEd'
Lookup: 258 0 0 "1"  {"1-1"  } []
DEI: 91125
LangName: 1033 
Encoding: Custom
UnicodeInterp: none
NameList: Adobe Glyph List
DisplaySize: -24
AntiAlias: 1
FitToEm: 1
WinInfo: 0 27 11
BeginPrivate: 3
lenIV 1 4
BlueValues 2 []
ForceBold 5 false
EndPrivate
TeXData: 1 0 0 346030 173015 115343 463471 1073742 115343 783286 444596 497025 792723 393216 433062 380633 303038 157286 324010 404750 52429 2506097 1059062 262144
BeginChars: 260 125

StartChar: uni1E56
Encoding: 0 7766 1
Width: 0
Flags: HW
HStem: -194 21G<163 223> -13 23<428.242 511.718> 30 143<317 375.765> 482 32<34 106.504> 566 24<355.749 469.266> 680 107<374.029 440>
VStem: 137 87<-186 442.344 460 474.374> 350 26<110.406 172.996> 363 106<690.982 775.612> 626 104<166.454 394.736>
LayerCount: 2
Fore
SplineSet
417 680 m 0xfec0
 391 680 363 700 363 734 c 0
 363 763 388 787 417 787 c 1
 440 781 l 1
 467 768 469 746 469 737 c 0
 469 735 469 734 469 734 c 2
 469 694 437 680 417 680 c 0xfec0
137 430 m 0
 137 433.01 137.047 435.925 137.047 438.736 c 0
 137.047 464.88 132.971 482 49 482 c 2
 34 482 l 1
 34 514 l 1
 44 514 l 2
 93 514 130 536 137 566 c 0
 142 581 157 581 160 581 c 0
 214 581 221 522 224 509 c 1
 224 460 l 1
 232 472 l 2
 293 584 394 590 405 590 c 2
 406 590 408 590 410 590 c 0
 413 590 419 590 425 590 c 0
 584 590 730 464 730 285 c 0
 730 115 606 -13 473 -13 c 0
 400 -13 405 30 334 30 c 0
 300 30 292 20 281 20 c 0
 274 20 269 34 269 41 c 0
 269 43 269 44 270 45 c 1
 271 48 274 50 282 53 c 1
 344 87 350 144 350 158 c 0xff40
 350 170 352 173 363 173 c 0xfec0
 374 173 376 167 376 163 c 0xff40
 376 95 394 10 470 10 c 0
 548 10 626 120 626 285 c 0
 626 458 522 566 415 566 c 0
 328 566 248 493 228 386 c 0
 227 380 227 370 227 356 c 0
 227 318 224 352 224 303 c 2
 224 73 l 2
 224 -67 227 -184 227 -186 c 1
 225 -191 226 -188 220 -194 c 1
 183 -194 l 2
 143 -194 140 -194 137 -189 c 0
 137 -188 137 -181 137 -162 c 0
 137 -124 137 -40 137 130 c 0
 137 322 137 399 137 430 c 0
EndSplineSet
Validated: 1
EndChar

StartChar: Aacute
Encoding: 3 193 2
Width: 0
Flags: HW
HStem: -12 73<352.858 454.419> 594 20G<477 486.5>
LayerCount: 2
Fore
SplineSet
565 789 m 0
 592 789 603 765 603 751 c 0
 603 739 596 727 581 721 c 0
 581 721 413 640 404 636 c 1
 398 647 l 1
 391 658 l 1
 392 659 545 781 550 784 c 0
 560 789 559 789 565 789 c 0
465 612 m 1
 469 613 473 614 481 614 c 0
 492 614 497 612 501 607 c 0
 505 602 750 11 750 7 c 0
 750 2 746 0 736 0 c 0
 719 0 716 2 704 23 c 0
 696 37 621 171 618 171 c 0
 604 171 502 7 404 -12 c 0
 402 -12 400 -12 397 -12 c 0
 391 -12 385 -12 378 -12 c 0
 372 -12 366 -12 361 -12 c 0
 341 -12 305 1 265 41 c 0
 209 99 178 183 173 183 c 0
 171 183 76 57 68 49 c 0
 63 45 56 43 47 43 c 0
 38 43 35 45 35 50 c 0
 35 57 448 594 456 606 c 1
 459 608 463 611 465 612 c 1
588 222 m 2
 459 441 438 508 431 523 c 1
 429 523 319 377 318 376 c 2
 227 257 l 1
 236 240 l 2
 303 111 352 61 422 61 c 0
 423.244 60.9991 l 0
 437.582 60.9991 479.791 61.9403 538 125 c 2
 599 195 l 1
 602 199 l 1
 588 222 l 2
EndSplineSet
Validated: 1
EndChar

StartChar: Eacute
Encoding: 4 201 3
Width: 0
Flags: HW
HStem: -10 25<281.021 419.863> 293 32<159 495 580.547 638> 575 22<276.65 381.444> 610 21G<250 253.5>
VStem: 55 104<176.457 293 293 293 325 410.664> 495 87<325 450.645> 556 27<121.203 149>
LayerCount: 2
Fore
SplineSet
411 789 m 0xf8
 439 789 449 767 449 752 c 0
 449 742 445 735 440 730 c 0
 436 726 255 610 252 610 c 1
 248 612 251 613 236 630 c 1
 395 784 l 1
 405 789 405 789 411 789 c 0xf8
329 -10 m 0
 155 -10 55 152 55 285 c 2
 55 293 l 2
 55 513 236 597 308 597 c 0
 312 597 321 598 330 598 c 0
 338 598 348 597 353 597 c 0
 389 597 449 573 469 560 c 0
 532 521 580 449 580 354 c 0
 580 336 582 336 582 331 c 0xfc
 582 325 583 325 598 325 c 2
 638 325 l 1
 638 293 l 1
 159 293 l 1
 159 281 l 2
 159 162 189 82 259 39 c 0
 283 23 310 15 342 15 c 0
 461 15 539 91 556 149 c 0
 559 158 561 160 570 160 c 0
 570 160 570.361 160.028 570.963 160.028 c 0
 573.972 160.028 583 159.333 583 151 c 0xfa
 583 140 533 -10 329 -10 c 0
495 341 m 2
 495 455 445 557 347 575 c 0
 341 576 336 575 330 575 c 0
 277 575 239 547 215 516 c 0
 180 473 160 418 160 333 c 2
 159 325 l 1
 495 325 l 1
 495 341 l 2
EndSplineSet
Validated: 1
EndChar

StartChar: Iacute
Encoding: 5 205 4
Width: 0
Flags: HW
HStem: 0 21G<156 225> 482 32<33 102.98> 581 21G<97 133.463 154 184.5>
VStem: 137 88<6 443.297>
LayerCount: 2
Fore
SplineSet
266 789 m 0
 279 789 301 778 301 752 c 0
 301 732 297 733 198 660 c 2
 106 593 l 1
 97 603 l 2
 93 608 89 612 89 613 c 1
 90 615 243 780 246 783 c 1
 251 785 256 789 266 789 c 0
181 0 m 2
 177.296 0 173.9 -0.00548697 170.786 -0.00548697 c 0
 139.993 -0.00548697 136.775 0.530891 136.775 12.2101 c 0
 136.775 15.2966 137 19.1613 137 24 c 0
 137 51 137 110 137 227 c 0
 137 278.429 137.276 318.974 137.276 351.019 c 0
 137.276 468.515 133.571 471.714 99 478 c 0
 88 480 66 482 48 482 c 2
 33 482 l 1
 33 514 l 1
 44 514 l 2
 91 514 126 538 133 568 c 0
 137.375 580.25 147.109 581.016 154.834 581.016 c 0
 155.938 581.016 157 581 158 581 c 0
 211 581 224 524 224 512 c 0
 224 506 225 431 225 255 c 2
 225 6 l 1
 218 0 l 1
 181 0 l 2
EndSplineSet
Validated: 1
EndChar

StartChar: Oacute
Encoding: 6 211 5
Width: 0
Flags: W
HStem: -21 26<300.97 420.479> 577 26<302.698 423.842> 613 21G<285.5 318.5>
VStem: 56 103<173.457 406.102> 562 104<180.828 406.828>
LayerCount: 2
Fore
SplineSet
446 789 m 0
 463 789 482 775 482 752 c 0
 482 731 475 729 377 669 c 2
 286 613 l 1
 285 613 270 632 270 633 c 1
 418 774 l 2
 428 784 435 789 446 789 c 0
56 328 m 2
 56 410 163 602 334 602 c 0
 339 602 350 603 359 603 c 0
 362 603 l 0
 561 603 664 413 664 328 c 0
 664 318 666 303 666 288 c 0
 666 132 545 -21 361 -21 c 0
 140 -21 56 182 56 260 c 0
 56 268 56 278 56 288 c 2
 56 328 l 2
562 302 m 0
 562 541 409 577 372 577 c 2
 360 577 l 2
 280 577 159 514 159 302 c 0
 159 72 280 5 361 5 c 0
 441 5 562 71 562 302 c 0
EndSplineSet
Validated: 1
EndChar

StartChar: Uacute
Encoding: 7 218 6
Width: 0
Flags: HW
HStem: -11 23<281.362 420.252> 493 32<5 73.2358 448 516.236> 572 20G<127 152.5 572.5 602>
VStem: 108 90<100.387 462.337> 554 87<-5 142 144.866 451.244>
LayerCount: 2
Fore
SplineSet
443 789 m 0
 464 789 479 773 482 757 c 1
 482 738 471 728 432 689 c 2
 346 601 l 1
 288 541 l 1
 278 549 l 2
 272 554 268 558 268 558 c 1
 269 559 302 608 343 668 c 0
 427 788 425 789 443 789 c 0
641 -5 m 1
 634 -11 l 1
 561 -11 l 1
 554 -5 l 1
 554 68 l 1
 554 142 l 1
 549 130 l 2
 525 71 470 -11 351 -11 c 0
 218 -11 133 39 113 154 c 0
 109 178 108 176 108 320 c 0
 108 357.088 108.422 385.669 108.422 407.805 c 0
 108.422 475.792 104.439 482.965 72 489 c 0
 61 491 39 493 20 493 c 2
 5 493 l 1
 5 525 l 1
 15 525 l 1
 64 525 101 551 108 581 c 0
 110.917 589.167 115.535 590.868 120.465 590.868 c 0
 123.986 590.868 127.667 590 131 590 c 0
 174 590 192 556 197 524 c 0
 198 518 198 463 198 348 c 0
 198 302.798 196.888 261.488 196.888 224.489 c 0
 196.888 89.5956 211.668 12 349 12 c 0
 351 12 353 12 356 12 c 0
 474 12 535 108 549 210 c 0
 550 217 550 278 550 338 c 0
 550 364.667 550.099 386 550.099 403.174 c 0
 550.099 463.284 548.889 472.444 538 481 c 0
 527 489 502 493 463 493 c 2
 448 493 l 1
 448 525 l 1
 458 525 l 1
 507 525 542 551 549 581 c 0
 551.778 589.333 558.259 591.185 563.986 591.185 c 0
 568.568 591.185 572.667 590 574 590 c 0
 630 590 640 534 640 523 c 0
 640 517 641 438 641 255 c 2
 641 -5 l 1
EndSplineSet
Validated: 1
EndChar

StartChar: arrowup
Encoding: 11 8593 7
Width: 0
Flags: HW
HStem: 358 40<28 35 465 472> 569 20G<246 254>
VStem: 230 40<-78 479>
LayerCount: 2
Fore
SplineSet
28 398 m 1
 135.055 417.793 213.81 491.668 250 590 c 1
 286.015 492.114 365.113 417.513 472 398 c 1
 472 378 l 2
 472 361 472 358 470 358 c 0
 468.718 358 362.08 373.458 279 469 c 2
 270 479 l 1
 270 202 l 2
 270 -65 270 -75 268 -78 c 0
 265 -85 258 -90 250 -90 c 0
 244.143 -90 232.759 -84.8966 230 -78 c 0
 229.333 -77 229.111 -75.2222 229.111 -63.4074 c 0
 229.111 -39.7778 230 24 230 202 c 2
 230 479 l 1
 221 469 l 2
 138.643 374.29 32.7922 358 30 358 c 0
 28 358 28 361 28 378 c 2
 28 398 l 1
EndSplineSet
Validated: 1
EndChar

StartChar: arrowdown
Encoding: 12 8595 8
Width: 500
Flags: HW
LayerCount: 2
Fore
SplineSet
242 588 m 0
 244.722 589.361 247.593 589.981 250.41 589.981 c 0
 257.941 589.981 265.089 585.55 268 579 c 0
 270 575 270 565 270 298 c 2
 270 21 l 1
 279 31 l 2
 319 77 372 113 431 132 c 0
 444 136 467 142 470 142 c 0
 472 142 472 139 472 122 c 2
 472 102 l 1
 465 101 l 2
 462 100 453 98 447 96 c 0
 377 77 317 31 278 -31 c 0
 269 -45 258 -67 254 -80 c 0
 252 -85 250 -89 250 -89 c 1
 250 -89 248 -85 246 -80 c 0
 242 -67 231 -45 222 -31 c 0
 183 31 123 77 53 96 c 0
 47 98 38 100 35 101 c 2
 28 102 l 1
 28 122 l 2
 28 139 28 142 30 142 c 0
 33 142 56 136 69 132 c 0
 128 113 181 77 221 31 c 2
 230 21 l 1
 230 298 l 2
 230 545 230 574 232 578 c 0
 234 583 237 586 242 588 c 0
EndSplineSet
Validated: 1
EndChar

StartChar: uni030D
Encoding: 13 781 9
Width: 278
Flags: HW
LayerCount: 2
Fore
SplineSet
126 608 m 0
 130.339 609.183 134.795 609.744 139.213 609.744 c 0
 157.2 609.744 174.578 600.45 181 586 c 0
 184 580 186 572 186 565 c 0
 186 562 153 364 150 351 c 1
 150 348 l 1
 139 348 l 1
 127 348 l 1
 127 351 l 1
 124 364 91 562 91 565 c 0
 91 586 105 603 126 608 c 0
EndSplineSet
Validated: 1
EndChar

StartChar: exclamdown
Encoding: 14 161 10
Width: 0
Flags: W
HStem: 289 107<96.331 180.811>
VStem: 85 107<-206.02 26.1173 299.846 384.612>
LayerCount: 2
Fore
SplineSet
85 343 m 0
 85 372 110 396 140 396 c 0
 163 396 192 376 192 343 c 0
 192 311 165 289 140 289 c 0
 111 289 85 311 85 343 c 0
139 -216 m 0
 108 -216 85 -193 85 -168 c 0
 85 -160 125 196 126 201 c 0
 127 203 127 208 138 208 c 0
 149 208 150 203 151 201 c 0
 152 196 192 -160 192 -168 c 0
 192 -194 167 -216 139 -216 c 0
EndSplineSet
Validated: 1
EndChar

StartChar: questiondown
Encoding: 15 191 11
Width: 0
Flags: HW
HStem: -216 24<186.889 330.169> -128 93<358.146 403.998> 185 23<207.87 279.122> 289 107<207.331 291.811>
VStem: 84 41<-144.487 -55.2005> 196 107<299.846 384.612> 290 43<116.06 180.564> 404 40<-143.192 -67.5>
LayerCount: 2
Fore
SplineSet
196 343 m 0xfd
 196 372 221 396 251 396 c 0
 274 396 303 376 303 343 c 0
 303 311 276 289 251 289 c 0
 222 289 196 311 196 343 c 0xfd
179 133 m 0
 179 120 173 120 167 120 c 0
 156.234 120 152.422 125.795 152.422 133.781 c 0
 152.422 148.048 164.589 169.306 171 177 c 0
 184 191 212 208 245 208 c 0
 312 208 333 157 333 127 c 0
 333 78 300 62 231 11 c 0
 158 -41 125 -58 125 -103 c 0
 125 -121 144 -194 252 -194 c 0
 365 -194 404 -130 404 -128 c 0
 404 -127 401 -128 398 -128 c 0
 371 -128 351 -108 351 -82 c 0
 351 -52 375 -35 398 -35 c 0
 423 -35 444 -53 444 -82 c 0
 444 -163 357 -216 250 -216 c 0
 171 -216 103 -173 84 -107 c 0
 83.3333 -104.333 83.1111 -102.222 83.1111 -100 c 0
 83.1111 -95.5556 84 -90.6667 84 -80 c 0
 84 -28 113 -5 123 8 c 1
 123 8 281 124 282 126 c 0
 288 133 290 138 290 148 c 0xfb
 290 178 264 185 248 185 c 0
 222 185 183 169 179 133 c 0
EndSplineSet
Validated: 1
EndChar

StartChar: grave
Encoding: 18 96 12
Width: 500
Flags: HW
LayerCount: 2
Fore
SplineSet
134 593 m 0
 135.34 593.268 136.895 593.392 138.569 593.392 c 0
 143.144 593.392 148.608 592.464 153 591 c 0
 158 589 159 588 229 539 c 2
 290 496 l 1
 284 484 l 2
 281 478 278 473 277 473 c 0
 276 473 127 525 123 527 c 0
 118 530 112 536 109 541 c 0
 107 545 107 547 107 556 c 0
 107 565 107 566 110 572 c 0
 115 583 124 591 134 593 c 0
EndSplineSet
Validated: 1
EndChar

StartChar: acute
Encoding: 19 180 13
Width: 500
Flags: HW
LayerCount: 2
Fore
SplineSet
352 593 m 1
 354.085 593.417 356.17 593.621 358.233 593.621 c 0
 371.015 593.621 382.973 585.776 389 572 c 0
 392 566 393 565 393 556 c 0
 393 547 392 545 390 541 c 0
 387 536 381 530 376 527 c 0
 372 525 223 473 222 473 c 0
 221 473 218 478 215 484 c 2
 209 496 l 1
 274 542 l 2
 310 567 341 589 343 590 c 0
 346 591 350 592 352 593 c 1
EndSplineSet
Validated: 1
EndChar

StartChar: uni030C
Encoding: 20 780 14
Width: 0
Flags: HW
HStem: 478 53<221.933 297.07>
VStem: 121 257
LayerCount: 2
Fore
SplineSet
125 551 m 0
 128.073 559.452 129.376 561.41 130.721 561.41 c 0
 131.127 561.41 131.537 561.232 132 561 c 1
 133 561 160 554 191 546 c 2
 249 531 l 2
 250 531 278 538 310 547 c 2
 369 562 l 1
 370 561 378 539 378 538 c 0
 378 537 252 478 250 478 c 0
 247 478 121 537 121 538 c 0
 121 539 123 544 125 551 c 0
EndSplineSet
Validated: 1
EndChar

StartChar: uni0306
Encoding: 21 774 15
Width: 500
Flags: HW
LayerCount: 2
Fore
SplineSet
99 583 m 2
 99 590 l 1
 110 590 l 1
 122 590 l 1
 122 584 l 1
 124 571 130 559 140 551 c 0
 148 545 163 537 175 534 c 0
 195 528 222.25 525 249.5 525 c 0
 276.75 525 304 528 324 534 c 0
 336 537 351 545 359 551 c 0
 369 559 375 571 377 584 c 1
 377 590 l 1
 389 590 l 1
 400 590 l 1
 400 583 l 2
 398 562 389 544 373 528 c 0
 346.067 501.067 298.732 485.921 249.923 485.921 c 0
 226.242 485.921 202.214 489.486 180 497 c 0
 132 513 103 544 99 583 c 2
EndSplineSet
Validated: 1
EndChar

StartChar: bar
Encoding: 22 772 16
Width: 500
Flags: HW
LayerCount: 2
Fore
SplineSet
69 532 m 1
 69 548 l 1
 250 548 l 1
 430 548 l 1
 430 532 l 1
 430 516 l 1
 250 516 l 1
 69 516 l 1
 69 532 l 1
EndSplineSet
Validated: 1
EndChar

StartChar: uni030A
Encoding: 23 778 17
Width: 750
Flags: HW
LayerCount: 2
Fore
SplineSet
354 611 m 0
 357.222 611.293 361.988 611.414 367.393 611.414 c 0
 380.444 611.414 397.222 610.707 405 610 c 0
 433 604 458 590 467 574 c 0
 470 568 471 567 471 559 c 0
 471 551 470 550 467 544 c 0
 458 528 433 514 404 508 c 0
 397.5 507 386 506.5 374.5 506.5 c 0
 363 506.5 351.5 507 345 508 c 0
 316 514 291 528 282 544 c 0
 279 550 279 551 279 559 c 0
 279 567 279 568 282 574 c 0
 292 592 320 607 354 611 c 0
415 587 m 0
 408.636 587.707 381.272 588.414 361.546 588.414 c 0
 353.375 588.414 346.515 588.293 343 588 c 0
 322 585 311 579 306 568 c 0
 304.826 565.182 304.258 562.255 304.258 559.346 c 0
 304.258 549.867 310.287 540.591 321 536 c 0
 332 530 340 530 375 530 c 0
 401 530 408 530 414 531 c 0
 424 533 432 537 437 541 c 1
 441 546 445 553 445 559 c 0
 445 565 441 572 437 577 c 1
 432 581 424 585 415 587 c 0
EndSplineSet
Validated: 1
EndChar

StartChar: uni0327
Encoding: 24 807 18
Width: 444
Flags: HW
LayerCount: 2
Fore
SplineSet
214 -46 m 1
 214 -22 l 1
 249 -22 l 1
 284 -22 l 1
 284 -38 l 1
 284 -54 l 1
 296 -56 l 2
 332 -65 356 -82 364 -105 c 0
 365.937 -110.166 367.041 -119.085 367.041 -126.91 c 0
 367.041 -131.203 366.708 -135.166 366 -138 c 0
 364 -148 359 -158 351 -165 c 0
 339 -177 323 -185 299 -191 c 0
 271 -199 238 -202 190 -203 c 2
 144 -203 l 1
 131 -204 l 1
 131 -193 l 1
 131 -181 l 1
 135 -181 l 1
 137 -180 149 -180 163 -180 c 0
 240 -180 281 -169 293 -143 c 0
 296 -137 297 -136 297 -125 c 0
 297 -115 296 -114 293 -107 c 0
 284 -89 261 -76 231 -72 c 0
 226 -71 221 -71 218 -71 c 2
 214 -71 l 1
 214 -46 l 1
EndSplineSet
Validated: 1
EndChar

StartChar: uni204A
Encoding: 25 8266 19
Width: 0
Flags: HW
HStem: 343 70<49.2505 344.286>
VStem: 317 30<-198 -95.2874>
LayerCount: 2
Fore
SplineSet
55 430 m 1
 55 431 56 431 57 431 c 1
 64 428 109 421 135 418 c 0
 174 413 190 413 242 413 c 0
 294 413 310 413 350 418 c 0
 375 421 420 428 427 431 c 1
 429 431 429 430 429 420 c 0
 429 410 422 357 389 106 c 0
 366 -60 347 -198 347 -198 c 1
 345 -203 341 -205 333 -205 c 0
 321 -205 317 -200 317 -194 c 0
 317 -186 322 -144 354 92 c 2
 393 379 l 1
 379 374 l 2
 312 354 240 343 170 343 c 0
 137 343 104 345 72 350 c 0
 49 353 29 357 29 358 c 0
 29 359 35 375 42 394 c 0
 48 413 54 429 55 430 c 1
EndSplineSet
Validated: 1
EndChar

StartChar: uni0307
Encoding: 26 775 20
Width: 278
Flags: HW
LayerCount: 2
Fore
SplineSet
126 667 m 0
 130.558 668.266 135.115 668.891 139.608 668.891 c 0
 152.859 668.891 165.545 663.455 176 653 c 0
 187 643 192 630 192 616 c 0
 192 601 187 588 176 578 c 0
 165.5 567.5 152 562.25 138.5 562.25 c 0
 125 562.25 111.5 567.5 101 578 c 0
 90 588 85 601 85 616 c 0
 85 625 86 630 91 639 c 0
 97 652 111 664 126 667 c 0
EndSplineSet
Validated: 1
EndChar

StartChar: aacute
Encoding: 27 225 21
Width: 0
Flags: HW
HStem: -12 60<225.815 313.158>
LayerCount: 2
Fore
SplineSet
395 694 m 0
 399 696 404 697 409 697 c 0
 422 697 434 689 441 675 c 0
 444 669 444 668 444 661 c 0
 444 654 444 652 442 647 c 1
 440 644 437 639 435 637 c 0
 432 634 267 521 251 511 c 2
 248 509 l 1
 240 519 l 2
 236 524 232 528 232 529 c 1
 384 686 l 2
 387 689 392 693 395 694 c 0
314 463 m 1
 316 463 320 464 325 464 c 1
 332 463 335 462 339 457 c 0
 341 455 411 261 500 11 c 0
 501 10 501 9 501 8 c 0
 501 5 499 1 496 0 c 0
 494.5 -1 491.5 -1.5 488.25 -1.5 c 0
 485 -1.5 481.5 -1 479 0 c 0
 477 1 474 5 473 7 c 2
 471 9 465 20 459 31 c 0
 454 43 440 68 430 87 c 2
 412 122 l 1
 408 118 l 2
 406 115 393 100 380 83 c 0
 367 66 352 47 346 40 c 0
 315 5 285 -12 253 -12 c 0
 248 -12 244 -13 240 -12 c 0
 194 -6 161 31 128 109 c 0
 124 116 122 123 121 123 c 1
 121 123.024 120.992 123.036 120.978 123.036 c 0
 120.374 123.036 107.616 103.399 92 79 c 0
 76 55 62 33 61 32 c 0
 58 28 52 25 47 24 c 0
 45.9666 23.8708 44.9833 23.8084 44.0544 23.8084 c 0
 37.7917 23.8084 34 26.6459 34 31 c 0
 34 35 302 455 307 459 c 1
 309 460 312 462 314 463 c 1
300 348 m 0
 297 355 293 366 291 372 c 2
 286 383 l 1
 284 380 l 2
 278 371 159 183 159 183 c 1
 165 167 l 2
 192 105 214 75 241 58 c 0
 252 51 265 48 278 48 c 0
 293 48 308 52 321 60 c 0
 338 70 351 83 374 111 c 0
 381 121 390 132 394 136 c 1
 400 144 l 1
 387 167 l 2
 347 242 319 300 300 348 c 0
EndSplineSet
Validated: 1
EndChar

StartChar: eacute
Encoding: 28 233 22
Width: 0
Flags: HW
HStem: -11 26<189.178 300.618> 231 22<113 349 416 471> 424 24<186.005 280.745>
VStem: 28 84<118.027 230.754 253.061 264.197 299 321.482> 349 67<253 352.063>
LayerCount: 2
Fore
SplineSet
306 696 m 0
 308 697 311 697 314 697 c 0
 320 697 326 696 331 694 c 0
 338 690 345 683 349 675 c 0
 351 670 349 668 349 661 c 0
 349 653 351 651 349 647 c 2
 342 637 l 1
 247 571 l 2
 174.986 522.031 157.368 509.939 154.308 509.939 c 0
 154.181 509.939 154.08 509.96 154 510 c 1
 154 511 150 515 146 520 c 2
 139 528 l 1
 142 531 l 2
 160 551 296 690 299 692 c 0
 301 693 304 695 306 696 c 0
210 447 m 0
 215 448 222 448 229 448 c 0
 244 448 261 445 276 442 c 0
 310 435 339 422 362 399 c 0
 394 366 416 322 416 263 c 1
 416 253 l 1
 444 253 l 1
 471 253 l 1
 471 242 l 1
 471 231 l 1
 292 231 l 1
 112 231 l 1
 112 215 l 2
 112 128 131 72 171 40 c 0
 192 23 214 15 239 15 c 0
 250 15 261 16 273 19 c 0
 328 31 373 69 389 117 c 0
 392 128 395 131 403 131 c 0
 408 131 409 131 412 128 c 0
 414.5 126 415.75 124 415.75 120.875 c 0
 415.75 117.75 414.5 113.5 412 107 c 0
 397 65 366 31 323 10 c 0
 295 -3 260 -11 229 -11 c 0
 225 -11 221 -11.4444 217 -11.4444 c 0
 211 -11 l 0
 168 -6 131 13 99 44 c 0
 86 57 78 66 68 82 c 0
 48 113 34 146 28 187 c 0
 27.6667 189.333 27.5556 192.333 27.5556 195.815 c 0
 27.5556 202.778 28 211.667 28 221 c 0
 28 230.333 27.5556 239.667 27.5556 246.926 c 0
 27.5556 250.556 27.6667 253.667 28 256 c 0
 40 334 87 399 152 430 c 0
 170 439 189 444 210 447 c 0
255 424 m 0
 252.667 424.333 249.778 424.444 246.593 424.444 c 0
 240.222 424.444 232.667 424 226 424 c 0
 223 424 219 424 217 424 c 0
 179 418 144 384 128 338 c 0
 123 326 120 312 118 299 c 0
 116 288 113 264 113 258 c 2
 113 253 l 1
 231 253 l 1
 349 253 l 1
 349 267 l 1
 349 329 327 376 297 401 c 0
 285 411 271 420 255 424 c 0
EndSplineSet
Validated: 1
EndChar

StartChar: iacute
Encoding: 29 237 23
Width: 272
Flags: HW
HStem: 0 21G<135 174> 343 32<34 84.0019> 422 20G<118 139>
VStem: 111 67<6 156 156 319.446>
LayerCount: 2
Fore
SplineSet
216 694 m 0
 222 697 223 697 231 697 c 1
 238 696 241 696 245 694 c 0
 252 690 259 683 262 675 c 0
 265 669 266 667 266 661 c 0
 266 651 263 644 256 637 c 1
 252 634 73 510 71 509 c 1
 70 509 66 514 61 519 c 2
 53 529 l 1
 119 597 l 2
 213 694 209 691 216 694 c 0
118 438 m 1
 123 442 l 1
 133 442 l 2
 145 441 151 439 158 432 c 0
 167 423 172 411 176 391 c 0
 177 381 178 370 178 193 c 2
 178 6 l 1
 174 3 l 1
 171 0 l 1
 145 0 l 2
 125 0 119 0 117 2 c 1
 111 5 111 -6 111 156 c 0
 111 236 111 305 110 309 c 0
 106 335 95 341 53 343 c 2
 34 343 l 1
 34 359 l 1
 34 375 l 1
 41 375 l 2
 75 378 102 399 109 427 c 0
 110 431 111 434 112 434 c 1
 118 438 l 1
EndSplineSet
Validated: 1
EndChar

StartChar: oacute
Encoding: 30 243 24
Width: 0
Flags: HW
HStem: -10 25<195.84 302.979> 425 23<197.823 301.67>
VStem: 28 84<118.201 312.203> 387 84<119.16 314.23>
LayerCount: 2
Fore
SplineSet
325 695 m 2
 327 696 332 697 336 697 c 0
 342 697 344 697 350 693 c 0
 358 689 364 683 368 675 c 0
 370 670 371 668 371 661 c 0
 371 650 369 645 362 638 c 0
 357.02 633.02 176.459 509.994 174.021 509.994 c 0
 174 510 l 2
 174 510 170 515 166 519 c 2
 158 528 l 1
 164 535 l 1
 317 692 l 1
 319 693 323 695 325 695 c 2
225 446 m 0
 233 447 242 448 250 448 c 0
 305 448 360 425 401 384 c 0
 407 378 416 369 419 364 c 0
 453 321 471 268 471 215 c 0
 471 199 469 184 466 168 c 0
 450 84 386 17 302 -4 c 0
 283 -9 272 -10 250 -10 c 0
 227 -10 216 -9 197 -4 c 0
 97 21 28 110 28 214 c 0
 28 259 42 308 67 345 c 0
 104 402 160 438 225 446 c 0
268 425 m 0
 262 426 257 425 251 425 c 0
 226 425 201 418 180 404 c 0
 141 380 120 340 114 281 c 0
 113 272 112 246 112 223 c 0
 112 206 113 190 113 181 c 0
 113 118 131 79 162 50 c 0
 186 26 218 15 250 15 c 0
 281 15 312 26 337 50 c 0
 368 79 387 118 387 181 c 0
 387 190 387 206 387 223 c 0
 387 238.333 387.444 255 387.444 267.074 c 0
 387.444 273.111 387.333 278 387 281 c 0
 384 309 375 334 365 353 c 0
 346 392 311 418 268 425 c 0
EndSplineSet
Validated: 1
EndChar

StartChar: uacute
Encoding: 31 250 25
Width: 0
Flags: HW
HStem: -10 22<218.245 306> 343 32<32 82.3755 336 386.375> 422 20G<117 136.5 421 440.5>
VStem: 110 70<42.8115 206 206 318.219> 416 68<-5 110.982 111.188 310.816>
LayerCount: 2
Fore
SplineSet
356 695 m 1
 361 697 363 697 370 697 c 1
 377 696 379 696 384 693 c 0
 391 689 398 683 401 675 c 0
 404 669 405 667 405 661 c 0
 405 651 402 644 395 637 c 0
 392 634 212 511 209 509 c 1
 208 509 194 525 193 528 c 1
 192.981 528.019 192.972 528.046 192.972 528.082 c 0
 192.972 530.009 218.945 556.964 269 608 c 2
 348 690 l 1
 350 691 353 693 356 695 c 1
117 438 m 1
 122 442 l 1
 132 442 l 2
 141 441 143 441 148 439 c 0
 164 431 179 410 179 379 c 0
 179 372 180 326 180 233 c 0
 180 93 180 82 184 66 c 0
 191 37 211 20 248 14 c 0
 256 13 267 12 278 12 c 0
 290 12 300 13 306 14 c 0
 324 19 338 27 353 40 c 0
 387 74 413 132 413 210 c 0
 413 220 416 242 416 264 c 0
 416 285 414 304 413 309 c 0
 409 335 398 343 354 343 c 1
 336 343 l 1
 336 359 l 1
 336 375 l 1
 344 375 l 1
 377 375 405 399 412 427 c 0
 413 431 415 435 416 435 c 1
 416 435 418 436 421 438 c 2
 426 442 l 1
 436 442 l 2
 445 441 448 441 452 439 c 0
 469 431 483 409 483 378 c 0
 483 370 484 315 484 181 c 2
 484 -5 l 1
 480 -10 l 1
 477 -10 l 1
 450 -10 l 1
 424 -10 l 1
 421 -10 l 1
 416 -5 l 1
 416 54 l 2
 416 86 416 111 416 111 c 1
 416 107 404 80 401 73 c 0
 379 28 347 -1 306 -10 c 0
 303.667 -10.3333 301.444 -10.4444 298.778 -10.4444 c 0
 293.444 -10.4444 286.333 -10 273 -10 c 0
 247 -10 232 -9 216 -6 c 0
 184 1 162 11 144 29 c 0
 129 43 122 56 116 78 c 0
 110 97 110 102 110 206 c 0
 110 241.333 110.444 273.556 110.444 292.296 c 0
 110.444 301.667 110.333 307.667 110 309 c 0
 106 335 94 343 50 343 c 1
 32 343 l 1
 32 359 l 1
 32 375 l 1
 40 375 l 1
 73 375 103 399 110 427 c 0
 111 431 109 434 110 434 c 1
 117 438 l 1
EndSplineSet
Validated: 1
EndChar

StartChar: uni1E57
Encoding: 32 7767 26
Width: 0
Flags: HW
HStem: -194 21G<126 171> -10 23<326.046 404.781> 343 32<27 77.3755> 416 25<264.894 367.355> 563 106<275.981 361.097>
VStem: 107 68<-188 255.804> 254 26<74.7699 114 114 122> 465 84<107.391 311.059>
LayerCount: 2
Fore
SplineSet
306 667 m 0
 310 668 315 669 319 669 c 0
 347 669 372 645 372 616 c 0
 372 585 348 563 319 563 c 0
 315 563 310 562 306 563 c 0
 289 567 275 580 268 598 c 0
 266 604 266 606 266 616 c 0
 266 625 266 627 268 633 c 0
 275 651 289 663 306 667 c 0
112 438 m 1
 117 442 l 1
 127 442 l 1
 139 442 145 439 152 432 c 0
 165 419 172 399 172 363 c 1
 172 343 l 1
 178 353 l 2
 199 387 222 411 254 426 c 0
 267 432 279 436 294 439 c 0
 302 441 315 442 328 442 c 0
 335.333 442 342.667 442.444 348.815 442.444 c 0
 351.889 442.444 354.667 442.333 357 442 c 0
 395 435 431 418 460 396 c 0
 470 389 490 369 498 359 c 0
 508 347 518 331 526 316 c 0
 541 284 549 257 549 223 c 0
 549 214 l 0
 549 158 532 104 502 61 c 0
 493 48 469 24 457 16 c 0
 439 4 418 -6 399 -10 c 0
 397 -10.3333 394.556 -10.4444 391.852 -10.4444 c 0
 386.444 -10.4444 380 -10 374 -10 c 0
 367.333 -10 360.667 -10.4444 355.185 -10.4444 c 0
 352.444 -10.4444 350 -10.3333 348 -10 c 0
 336 -7 325 -3 315 3 c 0
 295 12 275 17 254 17 c 0
 244 17 233 16 223 14 c 0
 218.728 13.0845 215.573 12.5415 213.138 12.5415 c 0
 207.593 12.5415 205.779 15.3567 203 23 c 0
 201.278 28.166 200.297 31.8494 200.297 34.6086 c 0
 200.297 38.2587 202.014 40.2915 206 42 c 0
 213 46 222 53 228 59 c 0
 244 74 254 92 254 114 c 0
 254 121 255 123 257 125 c 0
 259 128 261 128 266 128 c 0
 273 128 277 126 279 122 c 1
 279 121 280 115 280 109 c 0
 280 59 308 25 349 15 c 0
 356 14 364 13 371 13 c 0
 378 13 386 14 390 15 c 0
 422 27 452 87 461 158 c 0
 464 176 465 194 465 212 c 0
 465 235 463 257 458 275 c 0
 443 342 402 395 351 411 c 0
 340 414 329 416 318 416 c 0
 292 416 266 407 245 392 c 0
 204 362 173 313 173 253 c 0
 173 245.667 172.556 242.333 172.556 240.333 c 0
 172.556 239.333 172.667 238.667 173 238 c 0
 175 234 175 214 175 23 c 2
 175 -188 l 1
 171 -191 l 1
 168 -194 l 1
 141 -194 l 2
 111 -194 109 -194 107 -188 c 1
 106.333 -187 106.111 -183.222 106.111 -170.63 c 0
 106.111 -145.444 107 -85 107 59 c 0
 107 193 105 305 104 309 c 0
 100 335 89 343 45 343 c 1
 27 343 l 1
 27 359 l 1
 27 375 l 1
 35 375 l 1
 68 375 96 399 103 427 c 0
 104 431 106 434 107 434 c 1
 112 438 l 1
EndSplineSet
Validated: 1
EndChar

StartChar: exclam
Encoding: 33 33 27
Width: 278
Flags: HW
VStem: 85 107<11.4626 90.5291 369.883 601.918>
LayerCount: 2
Fore
SplineSet
124 610 m 0
 128.8 611.252 133.688 611.851 138.526 611.851 c 0
 156.869 611.851 174.505 603.243 184 589 c 0
 189 581 192 572 192 564 c 0
 192 556 152 200 151 195 c 0
 150 190 146 188 138 188 c 0
 131 188 127 190 126 195 c 0
 125 200 85 556 85 564 c 0
 85 585 101 604 124 610 c 0
126 105 m 0
 130.558 106.266 135.115 106.891 139.608 106.891 c 0
 152.859 106.891 165.545 101.455 176 91 c 0
 187 81 192 68 192 54 c 0
 192 39 187 26 176 16 c 0
 165.5 5.5 152 0.25 138.5 0.25 c 0
 125 0.25 111.5 5.5 101 16 c 0
 90 26 85 39 85 54 c 0
 85 63 86 68 91 77 c 0
 97 90 111 102 126 105 c 0
EndSplineSet
Validated: 1
EndChar

StartChar: quotedbl
Encoding: 34 34 28
Width: 500
Flags: HW
LayerCount: 2
Fore
SplineSet
73 588 m 0
 77.5934 589.148 82.2396 589.716 86.8416 589.716 c 0
 102.277 589.716 117.215 583.325 128 571 c 0
 135 564 142 550 146 538 c 0
 151.369 522.38 153.879 504.378 153.879 485.156 c 0
 153.879 464.998 151.119 443.499 146 422 c 0
 141 403 137 391 128 373 c 0
 114 345 101 327 81 305 c 0
 69.5389 293.539 64.1591 288.97 59.6978 288.97 c 0
 57.1525 288.97 54.9062 290.457 52 293 c 1
 49 297 48 298 48 301 c 0
 48 305 49 306 59 316 c 0
 80 337 94 357 107 382 c 0
 118 404 125 427 129 452 c 0
 129.809 462.517 131.273 482.198 131.273 492.508 c 0
 131.273 494.942 131.191 496.854 131 498 c 2
 130 503 l 1
 124 498 l 2
 113.706 488.311 100.111 483.023 86.3249 483.023 c 0
 77.3448 483.023 68.2834 485.267 60 490 c 0
 44 498 33 517 33 536 c 0
 33 561 49 583 73 588 c 0
267 588 m 0
 271.593 589.148 276.24 589.716 280.842 589.716 c 0
 296.277 589.716 311.215 583.325 322 571 c 0
 329 564 336 550 340 538 c 0
 345.369 522.38 347.879 504.378 347.879 485.156 c 0
 347.879 464.998 345.119 443.499 340 422 c 0
 335 403 331 391 322 373 c 0
 308 345 295 327 275 305 c 0
 263.539 293.539 258.159 288.97 253.698 288.97 c 0
 251.152 288.97 248.906 290.457 246 293 c 1
 243 297 242 298 242 301 c 0
 242 305 243 306 253 316 c 0
 274 337 288 357 301 382 c 0
 312 404 319 427 323 452 c 0
 323.809 462.517 325.273 482.198 325.273 492.508 c 0
 325.273 494.942 325.191 496.854 325 498 c 2
 324 503 l 1
 318 498 l 2
 307.628 488.122 293.597 483.123 279.762 483.123 c 0
 265.586 483.123 251.616 488.372 242 499 c 0
 232 509 227 522.75 227 536.5 c 0
 227 550.25 232 564 242 574 c 0
 248 581 258 586 267 588 c 0
EndSplineSet
Validated: 1
EndChar

StartChar: numbersign
Encoding: 35 35 29
Width: 0
Flags: HW
HStem: 133 40<72 236.974 295 466.971 525 764> 327 40<70 307 365.029 537 595.026 762> 570 20G<408 421 637 651>
LayerCount: 2
Fore
SplineSet
55 347 m 0
 55 351 56 358 68 367 c 1
 195 368 l 1
 322 368 l 1
 360 474 l 2
 400 585 400 590 416 590 c 0
 426 590 436 581 436 570 c 0
 436 566 401 469 400 467 c 2
 365 368 l 1
 365 367.667 369.444 367.556 377.37 367.556 c 0
 393.222 367.556 423 368 459 368 c 2
 552 368 l 1
 590 474 l 2
 629 581 628 590 646 590 c 0
 656 590 666 581 666 570 c 0
 666 563 636 482 630 467 c 2
 595 368 l 1
 595 367 631 367 678 367 c 2
 762 367 l 1
 777 359 777 351 777 347 c 0
 777 329 765.188 326.75 723.422 326.75 c 0
 709.5 326.75 692.25 327 671 327 c 2
 579 327 l 1
 577 318 573 310 550 243 c 2
 525 173 l 1
 644 173 l 2
 676 173 700.571 173.408 719.347 173.408 c 0
 766.286 173.408 777 170.857 777 153 c 0
 777 142 766 134 764 133 c 1
 637 133 l 1
 510 133 l 1
 472 27 l 2
 434 -81 434 -90 416 -90 c 0
 405 -90 396 -81 396 -69 c 1
 397 -66 409 -29 432 33 c 2
 467 133 l 1
 467 133.333 462.556 133.444 454.63 133.444 c 0
 438.778 133.444 409 133 373 133 c 2
 280 133 l 1
 242 27 l 2
 204 -81 204 -90 186 -90 c 0
 175 -90 166 -81 166 -69 c 1
 167 -66 179 -29 202 33 c 2
 237 133 l 1
 237 133.333 233 133.444 225.926 133.444 c 0
 211.778 133.444 185.333 133 154 133 c 2
 70 133 l 1
 56.7647 140.059 55.9862 147.118 55.9862 151.429 c 0
 55.9862 152.003 56 152.529 56 153 c 0
 56 169 66 171 72 173 c 1
 253 173 l 1
 255 182 259 190 282 257 c 2
 307 327 l 1
 188 327 l 1
 70 327 l 1
 62 330 55 336 55 347 c 0
483 173 m 1
 483 175 534 320 537 327 c 1
 349 327 l 1
 347 318 343 310 320 243 c 2
 295 173 l 1
 389 173 l 1
 483 173 l 1
EndSplineSet
Validated: 1
EndChar

StartChar: sterling
Encoding: 36 163 30
Width: 639
Flags: HW
HStem: 279 32<163 243 313 421> 396 93<497.383 548.979>
VStem: 243 70<109.343 279 311 518.391> 549 33<488 512.249> 585 26<76.1867 123.906>
LayerCount: 2
Fore
SplineSet
395 602 m 0
 401.806 602.766 408.569 603.141 415.261 603.141 c 0
 487.237 603.141 551.127 559.789 574 493 c 0
 579.395 477.586 583.008 458.609 583.008 444.307 c 0
 583.008 440.052 582.688 436.21 582 433 c 0
 578 411 559 396 537 396 c 0
 509.488 396 490.152 417.026 490.152 441.67 c 0
 490.152 449.273 491.992 457.22 496 465 c 0
 502.647 480.194 519.214 489.075 537.137 489.075 c 0
 538.088 489.075 539.043 489.05 540 489 c 1
 545 488 549 488 549 488 c 1
 549 490 542 504 539 509 c 0
 519 544 485 568 445 577 c 0
 437.293 578.652 425.949 579.394 415.64 579.394 c 0
 407.222 579.394 399.495 578.899 395 578 c 0
 358 569 331 542 320 505 c 0
 314 482 313 470 313 384 c 2
 313 311 l 1
 365 311 l 2
 404 311 419 311 421 310 c 0
 425 308 426 304 426 295 c 0
 426 286 425 282 421 280 c 0
 419 279 404 279 365 279 c 2
 313 279 l 1
 313 204 l 2
 312 130 312 128 310 119 c 0
 303.875 94.501 300.934 91.6263 300.934 88.7287 c 0
 300.934 86.6248 312.072 82.1367 358 63 c 0
 405 44 433 36 466 34 c 0
 469.635 33.7464 473.248 33.6215 476.83 33.6215 c 0
 515.626 33.6215 550.775 48.2822 570 73 c 0
 579 86 584 97 585 113 c 0
 585 120 586 122 588 124 c 0
 591 127 592 127 598 127 c 0
 605 127 605 127 608 124 c 0
 611 121 611 120 611 115 c 0
 611 88 598 58 578 36 c 0
 559 16 528 -2 499 -7 c 0
 487.251 -9.43075 475.01 -10.7126 462.211 -10.7126 c 0
 443.415 -10.7126 423.415 -7.94875 402 -2 c 0
 377 4 356 12 302 35 c 2
 274 47 l 1
 263 37 l 2
 231.585 6.4578 184.941 -11.1391 139.014 -11.1391 c 0
 132.311 -11.1391 125.623 -10.7642 119 -10 c 0
 80.4769 -6.14769 54.942 9.42611 54.942 38.5653 c 0
 54.942 59.7702 66.7374 81.5045 85 94 c 0
 99 104 119 111 140 115 c 0
 149 117 156 117 174 117 c 0
 197 117 207 116 229 111 c 0
 235 110 240 109 240 109 c 1
 242 111 243 142 243 206 c 2
 243 279 l 1
 203 279 l 1
 163 279 l 1
 160 282 l 2
 157 285 157 285 157 295 c 0
 157 305 157 305 160 308 c 2
 163 311 l 1
 203 311 l 1
 243 311 l 1
 243 387 l 2
 244 460 244 463 246 472 c 0
 254 508 274 540 301 562 c 0
 327 584 362 598 395 602 c 0
188 71 m 0
 177.901 72.6288 168.015 73.4087 158.686 73.4087 c 0
 139.379 73.4087 122.462 70.0681 111 64 c 0
 98.8557 58.217 92.3967 48.4208 92.3967 39.0596 c 0
 92.3967 32.2335 95.8311 25.6387 103 21 c 0
 111.986 15.0091 124.452 12.1312 137.889 12.1312 c 0
 155.853 12.1312 175.554 17.2747 191 27 c 0
 204 35 217 48 224 60 c 0
 225 61.5 225.5 62.25 225.5 62.75 c 0
 225.5 63.25 225 63.5 224 64 c 0
 219 66 198 70 188 71 c 0
EndSplineSet
Validated: 1
EndChar

StartChar: percent
Encoding: 37 37 31
Width: 0
Flags: HW
HStem: -160 23<617 680.334> 272 23<617.573 680.809> 295 23<173 236.334> 607 23<387.75 532.292> 727 23<173.68 236.379>
VStem: 56 63<402.398 643.748> 306 25<422 623.475> 500 63<-52.6019 187.438> 750 25<-33 168>
LayerCount: 2
Fore
SplineSet
186 749 m 0
 189 749 194 750 199 750 c 0
 208 750 218 749 224 747 c 0
 232 745 245 739 253 733 c 0
 257 731 268 720 279 709 c 0
 300 688 315 676 335 664 c 0
 363 647 394 637 429 632 c 0
 436 631 448 630 461 630 c 0
 474 630 486 631 493 632 c 0
 560 642 615 678 652 735 c 0
 659 744 660 745 665 748 c 0
 669 750 671 750 675 750 c 0
 686 750 693 737 693 727 c 1
 692 722 682 706 433 285 c 0
 205 -102 174 -154 170 -156 c 1
 167 -159 163 -160 160 -160 c 0
 157 -160 153 -159 150 -157 c 0
 145 -155 144 -154 142 -149 c 0
 139.856 -145.249 138.862 -142.359 138.862 -139.407 c 0
 138.862 -136.851 139.608 -134.249 141 -131 c 1
 143 -129 247 48 373 261 c 0
 499 475 602 650 602 650 c 1
 602 650 599 648 595 646 c 0
 587 640 565 629 553 625 c 0
 532 616 504 607 479 607 c 0
 461 607 l 0
 412 607 362 621 319 647 c 0
 315 650 311 652 311 651 c 1
 315 641 l 2
 322 620 331 595 331 569 c 0
 331 559 332 541 332 523 c 0
 332 505 331 486 331 476 c 0
 331 437 317 405 302 374 c 0
 276 322 242 295 203 295 c 0
 187 295 171 300 155 308 c 0
 105 333 67 398 56 480 c 0
 55.6667 483 55.5556 486.889 55.5556 491.37 c 0
 55.5556 500.333 56 511.667 56 523 c 0
 56 540 56 556 56 566 c 0
 56 592 67 617 75 638 c 0
 99 700 140 740 186 749 c 0
215 727 m 0
 211 728 208 727 204 727 c 0
 196 727 189 725 183 722 c 0
 154 708 130 662 123 607 c 0
 119 582 119 570 119 523 c 0
 119 475 119 462 123 438 c 0
 132 372 161 324 196 319 c 0
 199 319 201 318 204 318 c 0
 231 318 258 341 278 382 c 0
 292 410 306 439 306 478 c 0
 306 488 306 505 306 522 c 0
 306 540 306 557 306 567 c 0
 306 606 292 635 278 663 c 0
 261 698 238 722 215 727 c 0
630 295 m 0
 635 296 641 295 646 295 c 0
 685 295 720 268 746 216 c 0
 761 185 775 153 775 114 c 0
 775 104 776 86 776 68 c 0
 776 50 775 32 775 21 c 0
 775 -18 761 -50 746 -81 c 0
 720 -133 686 -160 647 -160 c 0
 631 -160 615 -155 599 -147 c 0
 549 -122 511 -57 500 25 c 0
 499.667 28 499.556 31.8889 499.556 36.3704 c 0
 499.556 45.3333 500 56.6667 500 68 c 0
 500 78.6667 499.556 90.2222 499.556 99.4074 c 0
 499.556 104 499.667 108 500 111 c 0
 509 172 532 224 566 258 c 0
 584 276 608 290 630 295 c 0
659 272 m 0
 655 273 652 272 648 272 c 0
 640 272 633 270 627 267 c 0
 598 253 574 208 567 153 c 0
 563 128 563 115 563 68 c 0
 563 20 563 7 567 -17 c 0
 576 -83 605 -131 640 -136 c 0
 643 -136 645 -137 648 -137 c 0
 675 -137 702 -114 722 -73 c 0
 736 -45 750 -16 750 23 c 0
 750 33 750 50 750 68 c 0
 750 85 750 102 750 112 c 0
 750 151 736 180 722 208 c 0
 705 243 682 267 659 272 c 0
EndSplineSet
Validated: 1
EndChar

StartChar: ampersand
Encoding: 38 38 32
Width: 0
Flags: HW
HStem: -21 22<302.085 490.442> 242 84<461.211 534.321> 309 23<200.827 291.538> 330 66<149.186 174.68> 404 22<235 290.451> 464 92<303.024 342> 506 84<586.969 631.956> 589 23<194.767 306.022>
VStem: 56 83<120.945 308.506> 70 70<396.524 535.245> 111 64<345.171 383.688> 296 93<471.17 549.58> 307 26<345.121 385.04> 417 26<289.125 364.839> 583 82<532.189 548 548 564> 667 26<154.178 293.852>
LayerCount: 2
Fore
SplineSet
224 611 m 0x8947
 227 611 234 612 242 612 c 0
 250 612 258 611 264 611 c 0
 308 611 348 589 369 565 c 0
 380 551 387 534 389 516 c 0
 389 505 388 497 384 488 c 0
 376 473 360 464 343 464 c 0
 335 464 327 466 320 470 c 0
 305 477 296 493 296 510 c 0x8d57
 296 534 311 552 335 556 c 2
 342 558 l 1
 335 563 l 2
 313 579 277 589 242 589 c 0
 213 589 188 578 168 557 c 0
 156 545 149 531 145 513 c 0
 140 497 140 486 140 460 c 0
 140 440 140 433 142 424 c 0
 144 411 149 396 150 396 c 0
 151 396 154 398 157 400 c 0
 167 406 188 416 200 419 c 0
 216 424 226 426 241 426 c 0
 243 426 247 426 250 426 c 0
 266 426 268 426 278 424 c 0
 306 416 325 400 331 379 c 0
 332 375 333 372 333 368 c 0
 333 353 321 336 307 326 c 0xdd4f
 299 321 288 315 278 312 c 0
 270 310 260 309 249 309 c 0xa84f
 222 309 190 315 165 327 c 0
 161 329 157 330 157 330 c 1
 156 330 154 324 152 318 c 0
 144 293 139 266 139 224 c 0
 139 219 139 215 139 210 c 0
 139 180 142 163 149 141 c 0
 158 112 176 84 197 66 c 0
 233 34 281 13 335 5 c 0
 352 3 372 0 392 0 c 0
 427 0 465 5 495 13 c 0
 571 32 624 75 649 140 c 0
 661 170 667 201 667 237 c 0
 667 249 667.889 254.778 667.889 259.37 c 0
 667.889 261.667 667.667 263.667 667 266 c 0
 664 278 658 288 651 299 c 0
 639 316 631 325 593 358 c 0
 584 366 571 379 563 386 c 2
 550 400 l 1
 543 397 l 2
 540 396 526 392 514 388 c 0
 477 378 468 374 457 366 c 0
 451 362 447 357 444 351 c 1
 443 347 443 344 443 334 c 0
 443 319 445 310 451 297 c 2
 455 289 l 1
 457 295 l 2
 460 307 467 316 477 321 c 0
 484 324 491 326 498 326 c 0
 513 326 528 318 535 303 c 0
 538 297 540 290 540 284 c 0
 540 278 538 271 535 265 c 0
 528 250 514 242 497 242 c 0
 492 242 486 241 481 242 c 0
 457 248 439 265 427 289 c 0
 419 305 417 316 417 334 c 0
 417 337 417 340 417 342 c 0
 417 351 418 356 423 364 c 0
 432 382 450 392 487 404 c 0
 497 407 513 415 523 418 c 0
 557 429 583 444 606 468 c 0
 615 478 623 490 629 501 c 2
 632 506 l 1
 626 506 l 2
 625 506 625 506 624 506 c 0
 608 506 589 517 583 532 c 0
 582 536 583 542 583 548 c 0
 583 554 582 560 583 564 c 0
 589 580 608 589 625 589 c 0xda8f
 628 589 632 590 635 589 c 0
 648 585 658 576 663 564 c 0
 665 559 667 557 667 545 c 0
 667 509 649 472 618 442 c 0
 606 430 596 425 583 417 c 0
 578 414 575 412 575 412 c 2
 574.979 411.979 574.969 411.948 574.969 411.908 c 0
 574.969 410.033 597.422 387.642 617 371 c 0
 654 337 670 320 680 299 c 0
 690 280 693 269 693 247 c 0
 693 238 l 0
 693 209 690 187 683 160 c 0
 674 129 658 97 640 75 c 0
 605 31 550 0 484 -13 c 0
 451 -20 431 -21 389 -21 c 0
 341 -21 311 -18 271 -8 c 0
 198 10 133 48 96 94 c 0
 77 118 62 145 56 173 c 0
 55.3333 176 55.1111 178.444 55.1111 181.074 c 0
 55.1111 186.333 56 192.333 56 205 c 0x8997
 56 215.667 55.5556 223.222 55.5556 229.741 c 0
 55.5556 233 55.6667 236 56 239 c 0
 59 254 66 278 70 291 c 0x8947
 78 312 93 338 105 354 c 0
 108 357 111 360 111 361 c 1x8927
 112 362 110 364 106 369 c 0
 89 387 76 412 70 436 c 0
 69.6667 438 69.5556 440.444 69.5556 443.148 c 0
 69.5556 448.556 70 455 70 461 c 0
 70 467 69.5556 473.444 69.5556 478.852 c 0
 69.5556 481.556 69.6667 484 70 486 c 0
 73 499 78 509 85 523 c 0
 93 539 101 549 115 563 c 0
 131 579 148 590 170 598 c 0
 186 605 202 611 224 611 c 0x8947
273 401 m 0
 267 403 257 404 248 404 c 0
 243 404 238 404 235 404 c 0
 215 399 200 389 184 372 c 0
 178 366 175 363 175 361 c 0
 175 359 177 357 182 354 c 0
 201 340 227 330 251 330 c 0
 252 330 254 330 255 330 c 0
 279 330 295 342 304 356 c 0
 306 360 307 362 307 368 c 0xa82f
 307 374 306 376 304 380 c 0
 298 390 287 397 273 401 c 0
EndSplineSet
Validated: 1
EndChar

StartChar: quoteright
Encoding: 39 8217 33
Width: 278
Flags: HW
LayerCount: 2
Fore
SplineSet
125 588 m 0
 129.593 589.148 134.24 589.716 138.842 589.716 c 0
 154.277 589.716 169.215 583.325 180 571 c 0
 187 564 194 550 198 538 c 0
 203.369 522.38 205.879 504.378 205.879 485.156 c 0
 205.879 464.998 203.119 443.499 198 422 c 0
 193 403 189 391 180 373 c 0
 166 345 153 327 133 305 c 0
 121.539 293.539 116.159 288.97 111.698 288.97 c 0
 109.152 288.97 106.906 290.457 104 293 c 1
 101 297 100 298 100 301 c 0
 100 305 101 306 112 317 c 0
 119 324 127 333 131 338 c 0
 158 372 174 410 181 452 c 0
 181.809 462.517 183.273 482.198 183.273 492.508 c 0
 183.273 494.942 183.191 496.854 183 498 c 2
 182 503 l 1
 176 498 l 2
 165.706 488.311 152.111 483.023 138.325 483.023 c 0
 129.345 483.023 120.283 485.267 112 490 c 0
 96 498 85 517 85 536 c 0
 85 561 101 583 125 588 c 0
EndSplineSet
Validated: 1
EndChar

StartChar: parenleft
Encoding: 40 40 34
Width: 389
Flags: HW
VStem: 100 233
LayerCount: 2
Fore
SplineSet
308 744 m 0
 316 750 316 750 322 750 c 0
 326 750 328 750 330 747 c 0
 332 745 333 743 333 741 c 0
 333 737 332 736 317 720 c 0
 252 654 210 573 184 470 c 0
 167.5 404 159.25 327 159.25 250.125 c 0
 159.25 173.25 167.5 96.5 184 31 c 0
 210 -73 252 -154 317 -220 c 0
 332 -236 333 -237 333 -241 c 0
 333 -243 332 -245 330 -247 c 0
 328 -250 326 -250 322 -250 c 0
 316 -250 316 -250 308 -244 c 0
 276 -219 240 -181 215 -145 c 0
 140 -40 100 98 100 250 c 0
 100 402 140 540 215 645 c 0
 240 681 276 719 308 744 c 0
EndSplineSet
Validated: 1
EndChar

StartChar: parenright
Encoding: 41 41 35
Width: 389
Flags: HW
VStem: 55 233
LayerCount: 2
Fore
SplineSet
60 749 m 1
 61 749 65 750 67 750 c 0
 71 750 73 749 80 744 c 0
 112 719 148 681 173 645 c 0
 248 540 288 402 288 250 c 0
 288 98 248 -40 173 -145 c 0
 148 -181 112 -219 80 -244 c 0
 73 -249 71 -250 67 -250 c 0
 65 -250 62 -249 60 -249 c 1
 57 -247 55 -242 55 -238 c 1
 56 -237 63 -229 72 -220 c 0
 136 -154 179 -73 204 31 c 0
 220.5 96.5 228.75 173.25 228.75 250.125 c 0
 228.75 327 220.5 404 204 470 c 0
 179 573 136 654 72 720 c 0
 63 729 56 737 55 738 c 1
 55 742 57 747 60 749 c 1
EndSplineSet
Validated: 1
EndChar

StartChar: asterisk
Encoding: 42 42 36
Width: 0
Flags: HW
HStem: 511 47<226.536 237 262 272.464>
VStem: 222 55<322.094 510.972 558.028 749.021>
LayerCount: 2
Fore
SplineSet
242 749 m 1
 244 750 246 750 248 750 c 0
 256 750 265 746 270 741 c 1
 274 738 277 730 277 726 c 0
 277 724 269 686 269 641 c 0
 269 597 262 558 262 558 c 0
 263 558 276 566 328 605 c 0
 364 631 395 654 397 654 c 1
 400 655 403 656 406 656 c 0
 421 656 434 642 434 627 c 0
 434 625 434 622 433 620 c 0
 429 609 430 609 354 573 c 0
 316 555 283 539 279 538 c 1
 273 534 l 1
 348 499 l 2
 431 459 429 460 433 449 c 0
 434 447 434 444 434 442 c 0
 434 427 421 413 406 413 c 0
 403 413 400 414 397 415 c 1
 395 415 364 438 328 464 c 0
 276 503 263 511 262 511 c 0
 262 511 269 472 269 428 c 0
 269 383 277 345 277 343 c 0
 277 339 274 331 270 328 c 2
 269 326 265 324 263 322 c 1
 258 320 256 320 250 320 c 0
 243 320 241 320 237 322 c 0
 234 324 230 326 229 328 c 2
 225 331 222 339 222 343 c 0
 222 345 230 383 230 428 c 0
 230 472 237 511 237 511 c 0
 236 511 223 503 171 464 c 0
 135 438 104 415 102 415 c 1
 99 414 96 413 93 413 c 0
 78 413 65 427 65 442 c 0
 65 444 65 447 66 449 c 0
 70 460 68 459 151 499 c 2
 226 534 l 1
 222 538 l 1
 218 539 183 555 145 573 c 0
 69 609 70 609 66 620 c 0
 65 622 65 625 65 627 c 0
 65 642 78 656 93 656 c 0
 96 656 99 655 102 654 c 1
 104 654 135 631 171 605 c 0
 223 566 236 558 237 558 c 0
 237 558 230 597 230 641 c 0
 230 686 222 724 222 726 c 0
 222 730 225 738 229 741 c 2
 231 744 237 748 242 749 c 1
EndSplineSet
Validated: 1
EndChar

StartChar: plus
Encoding: 43 43 37
Width: 778
Flags: HW
HStem: 230 40<70 369 409 707>
VStem: 369 40<-68 230 270 568>
LayerCount: 2
Fore
SplineSet
380 581 m 1
 382.628 582.46 385.597 583.153 388.608 583.153 c 0
 395.91 583.153 403.46 579.08 407 572 c 2
 409 568 l 1
 409 419 l 1
 409 270 l 1
 558 270 l 1
 707 270 l 1
 711 268 l 2
 714 266 717 263 719 261 c 1
 721 257 722 256 722 250 c 0
 722 244 721 243 719 239 c 1
 717 237 714 234 711 232 c 2
 707 230 l 1
 558 230 l 1
 409 230 l 1
 409 81 l 1
 409 -68 l 1
 407 -72 l 2
 405 -75 402 -78 400 -79 c 0
 396 -82 395 -82 389 -82 c 0
 383 -82 382 -82 378 -79 c 0
 376 -78 373 -75 371 -72 c 2
 369 -68 l 1
 369 81 l 1
 369 230 l 1
 220 230 l 1
 70 230 l 1
 66 232 l 2
 63 234 60 237 59 239 c 0
 56 243 56 244 56 250 c 0
 56 256 56 257 59 261 c 0
 60 263 63 266 66 268 c 2
 70 270 l 1
 220 270 l 1
 369 270 l 1
 369 420 l 1
 370 570 l 1
 373 574 l 2
 374 576 378 579 380 581 c 1
EndSplineSet
Validated: 1
EndChar

StartChar: comma
Encoding: 44 44 38
Width: 278
Flags: HW
HStem: 2 103<94.1112 179.55>
VStem: 85 116<17.6435 87.2795>
LayerCount: 2
Fore
SplineSet
125 105 m 0
 128.5 106 133 106.5 137.625 106.5 c 0
 142.25 106.5 147 106 151 105 c 0
 177 99 193 76 201 35 c 0
 202 28.5 202.5 15.25 202.5 1.75 c 0
 202.5 -11.75 202 -25.5 201 -33 c 0
 192 -91 168 -141 129 -182 c 0
 120.46 -190.54 116.013 -194.243 112.027 -194.243 c 0
 109.479 -194.243 107.12 -192.73 104 -190 c 1
 101 -186 100 -185 100 -182 c 0
 100 -178 101 -177 110 -167 c 0
 147 -129 170 -84 177 -32 c 0
 178.633 -22.202 180.266 4.26258 180.266 13.6454 c 0
 180.266 19.7896 179.463 16.6422 174 13 c 1
 165.903 4.90325 152.93 0.0572809 139.468 0.0572809 c 0
 134.641 0.0572809 129.751 0.68034 125 2 c 0
 101 7 85 28 85 53 c 0
 85 78 101 100 125 105 c 0
EndSplineSet
Validated: 1
EndChar

StartChar: hyphen
Encoding: 45 45 39
Width: 333
Flags: HW
HStem: 186 59<11 277>
VStem: 11 266<186 245>
LayerCount: 2
Fore
SplineSet
11 216 m 1
 11 245 l 1
 144 245 l 1
 277 245 l 1
 277 216 l 1
 277 186 l 1
 144 186 l 1
 11 186 l 1
 11 216 l 1
EndSplineSet
Validated: 1
EndChar

StartChar: period
Encoding: 46 46 40
Width: 278
Flags: HW
HStem: 2 103
VStem: 87 103<9.49553 97.5045>
LayerCount: 2
Fore
SplineSet
126 105 m 0
 130.461 106.174 134.894 106.728 139.228 106.728 c 0
 167.571 106.728 191.692 83.0498 191.692 54.2366 c 0
 191.692 49.9189 191.15 45.4859 190 41 c 0
 186 22 170 6 151 2 c 0
 146.422 0.826113 141.899 0.272331 137.497 0.272331 c 0
 108.804 0.272331 85.2723 23.8045 85.2723 52.4972 c 0
 85.2723 56.8988 85.8261 61.4218 87 66 c 0
 91 85 107 101 126 105 c 0
EndSplineSet
Validated: 1
EndChar

StartChar: slash
Encoding: 47 47 41
Width: 0
Flags: HW
LayerCount: 2
Fore
SplineSet
417 749 m 1
 418 750 422 750 425 750 c 0
 436 750 444 740 444 730 c 0
 444 726 393 585 269 244 c 0
 173 -20 92 -240 92 -240 c 0
 88 -246 82 -250 75 -250 c 0
 72 -250 69 -249 66 -248 c 1
 64 -246 60 -243 59 -241 c 0
 56 -237 56 -236 56 -231 c 0
 56 -225 69 -188 230 256 c 0
 326 520 407 740 407 740 c 0
 409 744 413 747 417 749 c 1
EndSplineSet
Validated: 1
EndChar

StartChar: zero
Encoding: 48 48 42
Width: 805
Flags: HW
HStem: -22 24<356.548 452.826> 643 23<358.643 451.888>
VStem: 194 85<135.776 505.288> 531 84<134.216 506.088>
LayerCount: 2
Fore
SplineSet
251 585 m 0
 286 636 343 666 404 666 c 0
 454 666 534 646 578 548 c 0
 604 490 615 423 615 320 c 0
 615 178 591 49 490 0 c 0
 462 -14 434 -22 405 -22 c 0
 364 -22 282 -8 237 83 c 0
 206 142 194 210 194 320 c 0
 194 437 208 516 251 585 c 0
481 610 m 0
 466 625 441 643 404 643 c 0
 382 643 332 633 304 577 c 0
 279 524 279 442 279 331 c 0
 279 315.471 278.875 299.014 278.875 282.062 c 0
 278.875 154.931 285.882 -0 405 0 c 0
 451 0 479 29 494 53 c 0
 528 103 531 189 531 331 c 0
 531 486 528 563 481 610 c 0
EndSplineSet
EndChar

StartChar: one
Encoding: 49 49 43
Width: 627
Flags: HW
HStem: 0 32<175 267.715 407.808 500> 570 32<170 272.771>
VStem: 300 75<59 596>
LayerCount: 2
Fore
SplineSet
300 596 m 1
 267 582 232 570 181 570 c 2
 170 570 l 1
 170 602 l 1
 181 602 l 2
 228 602 296 615 343 657 c 2
 353 666 l 1
 360 666 l 2
 362 666 363.407 666.049 364.486 666.049 c 0
 368.259 666.049 368 665.444 375 660 c 1
 375 359 l 1
 375 59 l 1
 382 37 396 32 478 32 c 2
 500 32 l 1
 500 0 l 1
 489 0 l 1
 482 1 339 3 338 3 c 0
 337 3 193 1 186 0 c 1
 175 0 l 1
 175 32 l 1
 197 32 l 2
 285 32 289 37 300 59 c 1
 300 596 l 1
EndSplineSet
EndChar

StartChar: two
Encoding: 50 50 44
Width: 776
Flags: HW
HStem: 0 78<263 534.756> 634 31<297.14 419.596>
VStem: 185 41<535 565.012> 558 26<110.43 175>
LayerCount: 2
Fore
SplineSet
354 665 m 0
 355.464 665.293 359.76 665.414 365.303 665.414 c 0
 378.686 665.414 399.343 664.707 405 664 c 0
 445 658 481 644 510 623 c 0
 521 614 541 595 549 583 c 0
 557 572 570 547 574 535 c 0
 578 522 582 505 583 492 c 0
 583.764 486.652 584.09 479.7 584.09 472.48 c 0
 584.09 460.798 583.236 448.416 582 441 c 0
 575 404 558 369 530 333 c 0
 511 309 481 281 428 234 c 0
 415 222 398 207 391 200 c 2
 276 90 l 1
 263 78 l 1
 379 78 l 2
 513 79 530 80 535 85 c 0
 541 91 548 118 554 151 c 0
 556 161 557 171 558 172 c 1
 558 175 l 1
 571 175 l 1
 584 175 l 1
 584 172 l 1
 583 171 577 133 570 88 c 0
 563 42 557 4 556 3 c 1
 556 0 l 1
 370 0 l 1
 185 0 l 1
 185 12 l 2
 185 22 185 25 187 28 c 0
 188 29 228 74 275 127 c 0
 323 179 366 228 372 234 c 0
 448 320 479 375 490 440 c 0
 491 446.5 491.5 458.5 491.5 470.625 c 0
 491.5 482.75 491 495 490 502 c 0
 484 543 470 574 447 598 c 0
 424 621 398 632 364 634 c 0
 362.265 634.069 360.533 634.104 358.804 634.104 c 0
 310.695 634.104 265.062 607.404 239 563 c 0
 234 555 226 538 226 535 c 1
 236 535 l 2
 252 535 266 531 276 520 c 0
 286.128 509.872 291.127 496.153 291.127 482.351 c 0
 291.127 468.898 286.378 455.365 277 445 c 0
 271 439 264 435 255 432 c 0
 250.5 430.5 244.25 429.75 238 429.75 c 0
 231.75 429.75 225.5 430.5 221 432 c 0
 197 440 185 458 185 485 c 0
 185 519 197 555 217 586 c 0
 227 601 249 623 264 633 c 0
 284 646 304 655 326 660 c 0
 334 663 339 663 354 665 c 0
EndSplineSet
EndChar

StartChar: three
Encoding: 51 51 45
Width: 771
Flags: HW
HStem: 80 113<235.29 288.262> 336 23<317 403.234> 336 15<434 443> 477 102<256.003 308.202> 639 27<315.324 438.537>
VStem: 214 101<485.588 571.572> 481 94<447.38 593.529>
LayerCount: 2
Fore
SplineSet
365 665 m 0xde
 370 665 380 666 388 666 c 0
 434 666 478 654 513 631 c 0
 537 616 552 599 563 577 c 0
 571.1 559.9 575.15 546.04 575.15 528.13 c 0
 575.15 526.14 575.1 524.1 575 522 c 0
 571 448 521 384 444 355 c 0
 436 352 434 351 436 351 c 1xbe
 459 346 474 341 493 331 c 0
 518 319 535 307 553 288 c 0
 585.48 254.27 601.965 213.127 601.965 170.42 c 0
 601.965 144.755 596.012 118.525 584 93 c 0
 554 32 494 -9 420 -20 c 0
 413 -21 399.75 -21.5 386.5 -21.5 c 0
 373.25 -21.5 360 -21 353 -20 c 0
 316 -14 282 -1 255 17 c 0
 230 34 213 53 200 78 c 0
 192 96 187 117 187 135 c 0
 187 159 198 178 217 187 c 0
 227 192 233 193 244 193 c 0
 254 193 260 192 270 187 c 0
 281 182 288 174 293 164 c 0
 297.611 155.163 299.859 145.587 299.859 136.181 c 0
 299.859 121.107 294.084 106.468 283 96 c 0
 273.638 86.6377 258.14 79.9053 243.892 79.9053 c 0
 242.921 79.9053 241.957 79.9365 241 80 c 0
 238 80 235 80 235 80 c 1
 235 80 238 76 241 71 c 0
 265 39 307 17 356 9 c 0
 364 8 375 7.5 385.125 7.5 c 0
 395.25 7.5 404.5 8 409 9 c 0
 451 21 481 56 492 106 c 0
 495.777 124.885 497.771 148.006 497.771 171.047 c 0
 497.771 196.808 495.279 222.469 490 242 c 0
 478 292 443 328 402 335 c 0
 398 336 378 336 356 336 c 2
 317 336 l 1
 314 339 l 2
 311 341 311 343 311 348 c 0
 311 352 311 354 314 356 c 0
 316 358 318 359 319 359 c 0
 325 359 383 364 388 365 c 0
 444 376 481 441 481 528 c 0
 481 550 480 562 476 576 c 0
 468 601 452 620 428 632 c 0
 415.882 637.302 402.044 639.735 386.05 639.735 c 0
 380.926 639.735 375.581 639.485 370 639 c 0
 330 635 296 621 272 599 c 0
 266 592 256 581 256 580 c 1
 256 580 260 579 266 579 c 0
 277 579 286 577 295 571 c 0
 308.425 562.314 316.86 546.144 316.86 528.893 c 0
 316.86 524.298 316.262 519.627 315 515 c 0
 310 492 291 477 266 477 c 0
 235 477 214 498 214 530 c 0
 214 559 226 588 248 612 c 0
 275 640 320 660 365 665 c 0xde
EndSplineSet
EndChar

StartChar: four
Encoding: 52 52 46
Width: 771
Flags: HW
HStem: 0 32<346 423 541 618> 165 32<206 443 521 620> 657 20G<500.5 509.5>
VStem: 449 72<52.1855 111 111 165 197 567>
LayerCount: 2
Fore
SplineSet
492 675 m 0
 495 677 496 677 505 677 c 0
 514 677 515 676 518 674 c 2
 521 671 l 1
 521 434 l 1
 521 197 l 1
 571 197 l 1
 620 197 l 1
 620 181 l 1
 620 165 l 1
 570 165 l 1
 521 165 l 1
 521 111 l 2
 521 57 522 56 524 52 c 0
 528 41 534 37 549 35 c 0
 558 33 583 32 601 32 c 2
 618 32 l 1
 618 16 l 1
 618 0 l 1
 609 0 l 1
 604 1 573 1 541 2 c 0
 518 2.5 500 2.75 482 2.75 c 0
 464 2.75 446 2.5 423 2 c 0
 391 1 360 1 355 0 c 1
 346 0 l 1
 346 16 l 1
 346 32 l 1
 363 32 l 2
 381 32 406 33 416 35 c 0
 430 37 436 41 440 52 c 0
 442 56 443 57 443 111 c 2
 443 165 l 1
 310 165 l 1
 177 165 l 1
 177 181 l 1
 177 197 l 1
 333 435 l 2
 441 599 490 673 492 675 c 0
449 197 m 1
 449 382 l 1
 449 567 l 1
 327 382 l 1
 206 198 l 1
 327 197 l 1
 449 197 l 1
EndSplineSet
EndChar

StartChar: five
Encoding: 53 53 47
Width: 749
Flags: HW
HStem: -21 29<302.003 424.172> 397 23<337.717 436.591> 550 84<274.832 453.761>
VStem: 189 100<124.135 188> 239 32<369 559.64> 498 89<102.247 304.236>
LayerCount: 2
Fore
SplineSet
244 664 m 2xec
 246 665 247 666 248 666 c 0
 251 666 254 664 260 662 c 0
 282 652 311 643 334 639 c 0
 354 636 375 634 395 634 c 0
 430 634 464 639 498 651 c 0
 508 654 521 659 526 661 c 0
 533 664 537 666 540 666 c 0
 543 666 544 665 546 663 c 0
 549 661 549 659 549 655 c 0
 549 650 549 649 544 643 c 0
 536 632 523 618 511 608 c 0
 484 584 450 567 415 558 c 0
 396 553 376 550 356 550 c 0
 330 550 302 555 273 563 c 1
 271 563 l 1
 271 466 l 1
 271 369 l 1xec
 281 377 l 2
 308 401 340 415 378 419 c 0
 385 420 391 420 398 420 c 0
 444 420 488 401 523 367 c 0
 556 333 578 288 586 236 c 0
 587 228 587 215 587 202 c 0
 587 188 587 176 586 168 c 0
 581 142 575 121 564 100 c 0
 552 76 541 61 523 42 c 0
 499 19 474 3 444 -8 c 0
 418 -18 399 -21 370 -21 c 0
 356 -21 350 -21.8887 344.296 -21.8887 c 0
 341.444 -21.8887 338.667 -21.667 335 -21 c 0
 307 -15 282 -1 261 16 c 0
 250 24 234 40 226 51 c 0
 203 82 189 124 189 163 c 0xf4
 189 173 191 181 195 189 c 0
 203 205 221 214 239 214 c 0xec
 248 214 256 212 264 208 c 0
 271 204 280 195 284 188 c 1
 286 181 289 170 289 165 c 0xf4
 289 159 286 148 284 141 c 1
 278 130 264 119 250 116 c 0
 247.929 115.586 243.971 115.343 239.688 115.343 c 0
 233.633 115.343 226.929 115.828 224 117 c 1
 222 117 l 1
 225 110 l 2
 238 73 266 40 302 22 c 0
 312 18 330 11 342 9 c 0
 348 8 358 8 367 8 c 0
 377 8 385 8 390 9 c 0
 439 20 475 56 489 110 c 0
 495 134 498 163 498 207 c 0
 498 282 490 321 470 352 c 0
 450 382 426 397 398 397 c 0
 366 397 335 388 310 372 c 0
 299 364 279 344 270 331 c 0
 266 325 262 320 261 319 c 1
 259 318.5 255.75 318.25 252.625 318.25 c 0
 249.5 318.25 246.5 318.5 245 319 c 1
 239 323 239 311 239 492 c 0
 239 570.667 238.556 618.222 238.556 641.778 c 0
 238.556 653.556 238.667 659.333 239 660 c 0
 240 662 242 664 244 664 c 2xec
EndSplineSet
EndChar

StartChar: six
Encoding: 54 54 48
Width: 786
Flags: HW
HStem: -22 30<350.529 456.781> 404 23<360.5 451.516> 639 27<397.018 447.719 447.719 453.578 453.578 517.672>
VStem: 192 93<143.735 331.472 236.739 458.605> 489 93<515.435 592.919> 516 91<99.7672 306.81>
LayerCount: 2
Fore
SplineSet
433 665 m 0xf4
 437 666 442 666 448 666 c 0
 462 666 481 664 489 663 c 0
 542 653 573 621 581 574 c 0
 582 569 582 563 582 559 c 0
 582 536 574 521 556 513 c 0
 549 510 548 510 536 510 c 0
 523 510 523 510 516 513 c 0
 507 517 498 524 495 532 c 0
 491 540 489 548 489 555 c 0xf8
 489 572 498 588 513 596 c 0
 521 600 526 601 535 601 c 0
 540 601 543 602 543 602 c 1
 543 604 524 622 519 625 c 0
 510 630 496 637 485 639 c 0
 482.333 639.667 479.222 639.889 475.852 639.889 c 0
 469.111 639.889 461.333 639 454 639 c 0
 448 639 442 639.444 437.185 639.444 c 0
 434.778 639.444 432.667 639.333 431 639 c 0
 367 625 316 565 296 482 c 0
 288 448 283 413 283 360 c 0
 283 337.895 283 330.644 283.691 330.644 c 0
 283.782 330.644 283.884 330.768 284 331 c 1
 285 332 287 338 290 343 c 0
 306 378 331 404 360 417 c 0
 375 424 390 427 409 427 c 0
 411 427 414 427 417 427 c 0
 466 427 502 409 538 373 c 0
 576 334 597 294 605 245 c 0
 606 236 607 219 607 203 c 0
 607 194 606 185 606 179 c 0
 606 120 581 79 538 35 c 0
 520 18 507 9 489 0 c 0
 462 -14 432 -22 401 -22 c 0
 399 -22 396 -22 394 -22 c 0
 337 -22 285 11 251 61 c 0
 239 80 222 116 214 142 c 0
 206 166 200 200 197 229 c 0
 194 255 192 285 192 313 c 0
 192 339 194 363 196 381 c 0
 210 488 261 579 336 628 c 0
 365 648 400 661 433 665 c 0xf4
423 404 m 0
 417 405 412 404 406 404 c 0
 373 404 345 389 324 361 c 0
 298 326 285 276 285 217 c 0
 285 212 285 206 285 200 c 0
 285 150 293 113 300 90 c 0
 314 50 344 19 378 10 c 0
 384 8 393 8 403 8 c 0
 411 8 419 8 425 9 c 0
 445 14 458 21 473 36 c 0
 496 59 508 84 513 124 c 0
 515 142 516 174 516 220 c 0xf4
 516 268 514 284 510 305 c 0
 505 333 492 358 474 376 c 0
 459 391 443 401 423 404 c 0
EndSplineSet
EndChar

StartChar: seven
Encoding: 55 55 49
Width: 680
Flags: HW
HStem: 565 79<203.434 495.849> 656 20G<175 201>
VStem: 142 26<469 531.53> 175 26<672 676> 263 91<-15.5056 14 14 190.516>
LayerCount: 2
Fore
SplineSet
175 673 m 1
 175 676 l 1
 188 676 l 1
 201 676 l 1
 201 672 l 2
 202 663 210 656 223 652 c 0
 230 650 248 647 269 646 c 0
 278 645 336 645 428 644 c 2
 572 644 l 1
 572 631 l 1
 572 619 l 1
 499 517 l 2
 458 460 423 410 419 404 c 0
 388 353 369 288 361 204 c 0
 357 164 355 114 355 54 c 0
 355 33 355 16 354 13 c 0
 351 1 342 -10 332 -16 c 0
 324.497 -20.0195 316.492 -21.8848 308.677 -21.8848 c 0
 287.326 -21.8848 267.392 -7.96191 263 14 c 0
 262.236 16.6738 261.91 23.7246 261.91 32.7002 c 0
 261.91 47.2227 262.764 66.7852 264 81 c 0
 270 142 285 202 308 261 c 0
 329 314 359 371 392 419 c 0
 396 425 421 460 448 497 c 2
 496 565 l 1
 496 565.5 444 565.75 387.375 565.75 c 0
 330.75 565.75 269.5 565.5 251 565 c 0
 216 564 197 563 194 561 c 0
 192 560 186 548 183 539 c 0
 179 529 175 510 172 490 c 0
 170 481 169 473 168 472 c 1
 168 469 l 1
 155 469 l 1
 142 469 l 1
 142 472 l 1
 143 473 150 518 159 572 c 0
 167 626 174 671 175 673 c 1
EndSplineSet
EndChar

StartChar: eight
Encoding: 56 56 50
Width: 775
Flags: HW
LayerCount: 2
Fore
SplineSet
377 665 m 0
 384.004 665.745 391.119 666.113 398.285 666.113 c 0
 439.209 666.113 481.812 654.126 515 632 c 0
 535 618 555 596 565 576 c 0
 574.316 557.368 578.874 537.588 578.874 517.789 c 0
 578.874 488.707 569.039 459.583 550 434 c 0
 533 411 502 386 470 369 c 0
 464 365 459 362 460 362 c 1
 494 340 l 2
 512 328 531 316 536 312 c 0
 578 277 603 228 606 176 c 0
 606.071 173.797 606.107 171.609 606.107 169.435 c 0
 606.107 141.02 600.005 115.01 587 89 c 0
 567 49 537 20 495 0 c 0
 474 -10 454 -16 429 -20 c 0
 422.5 -21 409.75 -21.5 396.875 -21.5 c 0
 384 -21.5 371 -21 364 -20 c 0
 339 -16 314 -8 292 2 c 0
 239 28 205 69 194 121 c 0
 192.5 128.5 191.75 139.5 191.75 150.625 c 0
 191.75 161.75 192.5 173 194 181 c 0
 202 223 226 260 265 292 c 0
 278 302 302 318 319 327 c 0
 327 331 334 335 334 335 c 1
 334 335 323 343 310 351 c 0
 277 372 264 384 249 404 c 0
 242 414 231 434 227 447 c 0
 221.063 464.067 218.187 481.561 218.187 498.864 c 0
 218.187 551.516 244.83 602.388 293 634 c 0
 316 650 349 662 377 665 c 0
425 638 m 0
 417.929 638.707 402.858 639.414 391.101 639.414 c 0
 386.23 639.414 381.929 639.293 379 639 c 0
 309.176 630.271 262.864 588.628 262.864 536.869 c 0
 262.864 526.295 265.273 513.453 271 502 c 0
 280 485 292 471 311 458 c 2
 379 414 l 1
 435 378 l 1
 438 379 l 2
 440 380 446 385 453 389 c 0
 505.41 423.305 534.212 468.507 534.212 516.817 c 0
 534.212 519.204 534.141 521.599 534 524 c 0
 532 553 521 577 499 599 c 0
 479 619 454 632 425 638 c 0
429 274 m 0
 391 299 360 319 359 319 c 0
 358 319 344 311 334 305 c 0
 285 272 253 227 244 179 c 0
 243.101 172.258 242.606 163.091 242.606 153.77 c 0
 242.606 142.354 243.349 130.707 245 123 c 0
 250 97 263 74 283 55 c 0
 312.941 23.2979 354.514 7.10547 399.524 7.10547 c 0
 405.626 7.10547 411.792 7.40332 418 8 c 0
 498.997 16.8037 555.19 69.7891 555.19 132.152 c 0
 555.19 140.624 554.153 149.269 552 158 c 0
 545 182 528 208 506 224 c 0
 502 227 467 250 429 274 c 0
EndSplineSet
EndChar

StartChar: nine
Encoding: 57 57 51
Width: 792
Flags: HW
HStem: -22 29<281.231 406.719> 218 23<341.767 434.996> 640 25<347.74 443.555>
VStem: 188 93<336.445 440 440 543.727> 213 42<25.1291 41> 213 93<49.393 128.568> 512 89<174.667 282 282 318 318 334 387.378 428 448 508.372>
LayerCount: 2
Fore
SplineSet
376 665 m 0xea
 380 665 385 665 390 665 c 0
 405 665 423 664 432 663 c 0
 463 656 493 641 516 618 c 0
 535 600 545 586 559 560 c 0
 582 513 601 464 601 395 c 0
 601 382 602 358 602 334 c 0
 602 310 601 288 601 278 c 0
 601 237 588 199 576 165 c 0
 569 147 552 113 542 97 c 0
 495 22 426 -22 353 -22 c 0
 298 -22 252 -3 231 28 c 0
 220 44 213 62 213 83 c 0
 213 89 212.556 92.7773 212.556 96.1113 c 0
 212.556 97.7773 212.667 99.333 213 101 c 0
 217 115 226 125 239 131 c 0
 246 134 247 135 260 135 c 0
 272 135 273 134 280 131 c 0
 297 123 306 108 306 89 c 0xe6
 306 70 297 55 281 47 c 0xf2
 274.417 44.5312 265.803 42.7402 260.172 42.7402 c 0
 258.959 42.7402 257.886 42.8232 257 43 c 0
 254 43 254 43 255 41 c 1xea
 255 40 258 37 261 35 c 0
 280 18 306 7 345 7 c 0
 347 7 349 7 352 7 c 0
 370 7 386 11 402 18 c 0
 425 29 449 51 466 78 c 0
 487 110 501 151 507 201 c 0
 510 226 512 243 512 282 c 1
 512 318 l 1
 508 307 l 2
 491 269 466 241 435 228 c 0
 420 221 405 218 386 218 c 0
 384 218 381 218 378 218 c 0
 347 218 322 226 298 240 c 0
 285 248 274 256 260 269 c 0
 209 319 188 371 188 442 c 0
 188 445 188 447 188 450 c 0xf2
 188 473 191 486 195 504 c 0
 204 541 223 573 255 604 c 0
 275 625 290 636 310 646 c 0
 330 656 352 665 376 665 c 0xea
415 640 m 0
 411 641 406 640 401 640 c 0
 390 640 379 639 370 636 c 0
 345 630 324 615 307 590 c 0
 292 568 281 548 281 513 c 0
 281 502 280 470 280 439 c 0
 280 408 281 376 281 365 c 0xf2
 281 338 289 318 297 303 c 0
 307 284 323 265 337 255 c 0
 351 246 370 241 389 241 c 0
 395 241 401 241 406 242 c 0
 428 246 445 255 462 273 c 0
 493 307 512 362 512 428 c 0
 512 434 512 441 512 448 c 0
 512 528 498 561 479 590 c 0
 461 616 440 635 415 640 c 0
EndSplineSet
EndChar

StartChar: colon
Encoding: 58 58 52
Width: 278
Flags: HW
VStem: 87 103<9.49553 97.5045 333.496 421.504>
LayerCount: 2
Fore
SplineSet
126 429 m 0
 130.461 430.174 134.894 430.728 139.228 430.728 c 0
 167.571 430.728 191.692 407.05 191.692 378.237 c 0
 191.692 373.919 191.15 369.486 190 365 c 0
 186 346 170 330 151 326 c 0
 146.422 324.826 141.899 324.272 137.497 324.272 c 0
 108.804 324.272 85.2723 347.805 85.2723 376.497 c 0
 85.2723 380.899 85.8261 385.422 87 390 c 0
 91 409 107 425 126 429 c 0
126 105 m 0
 130.461 106.174 134.894 106.728 139.228 106.728 c 0
 167.571 106.728 191.692 83.0498 191.692 54.2366 c 0
 191.692 49.9189 191.15 45.4859 190 41 c 0
 186 22 170 6 151 2 c 0
 146.422 0.826113 141.899 0.272331 137.497 0.272331 c 0
 108.804 0.272331 85.2723 23.8045 85.2723 52.4972 c 0
 85.2723 56.8988 85.8261 61.4218 87 66 c 0
 91 85 107 101 126 105 c 0
EndSplineSet
Validated: 1
EndChar

StartChar: semicolon
Encoding: 59 59 53
Width: 0
Flags: HW
HStem: -194 21G<110.5 113.5> -0 106<100.472 170.998> 324 105<126 181.391>
VStem: 86 106<32.8196 93.6725 334.829 377 377 420.391> 172 22<-71.375 9.92114>
LayerCount: 2
Fore
SplineSet
126 429 m 0xf0
 130 430 135 431 139 431 c 0
 168 431 192 407 192 378 c 0
 192 374 191 369 190 365 c 0
 185 341 163 324 139 324 c 0
 108 324 86 348 86 377 c 0
 86 381 85 386 86 390 c 0
 90 409 107 425 126 429 c 0xf0
125 105 m 0
 128 106 133 106 138 106 c 0
 142 106 146 106 150 105 c 0
 174 99 188 77 193 38 c 0
 194 31 194 14 194 0 c 0
 194 -14 194 -27 193 -34 c 0
 188 -69 179 -97 163 -127 c 0
 152 -149 141 -167 125 -184 c 0
 119 -191 115 -194 112 -194 c 0
 109 -194 107 -193 104 -190 c 0
 101.154 -187.154 99.6308 -185.135 99.6308 -182.8 c 0
 99.6308 -179.391 102.878 -175.309 110 -167 c 0
 142 -129 169 -84 169 -36 c 0
 169 -25 172 -6 172 4 c 0xe8
 172 8 173 10 172 10 c 2
 172 10 168 8 164 6 c 0
 156 2 147 -0 139 -0 c 0
 124 -0 110 5 100 16 c 0
 91 26 86 40 86 53 c 0
 86 78 101 100 125 105 c 0
EndSplineSet
Validated: 1
EndChar

StartChar: less
Encoding: 60 60 54
Width: 778
Flags: HW
LayerCount: 2
Fore
SplineSet
382 404 m 0
 632.355 522.047 669.299 540.293 678.32 540.293 c 0
 680.685 540.293 681.13 539.039 683 538 c 0
 690.308 534.065 694.14 526.653 694.14 519.496 c 0
 694.14 513.922 691.816 508.503 687 505 c 0
 685 503 564 446 417 376 c 2
 151 250 l 1
 417 124 l 2
 564 54 685 -3 687 -5 c 0
 691.816 -8.50258 694.14 -13.922 694.14 -19.4959 c 0
 694.14 -26.653 690.308 -34.0648 683 -38 c 0
 681.13 -39.0387 680.685 -40.2931 678.32 -40.2931 c 0
 669.299 -40.2931 632.355 -22.0472 382 96 c 0
 223 171 92 233 90 235 c 0
 86 238 83 244 83 250 c 0
 83 256 86 263 91 266 c 0
 93 267 224 329 382 404 c 0
EndSplineSet
Validated: 1
EndChar

StartChar: equal
Encoding: 61 61 55
Width: 778
Flags: HW
HStem: 133 40<72 707> 327 40<72 707>
LayerCount: 2
Fore
SplineSet
66 365 m 2
 70 367 l 1
 388 367 l 1
 707 367 l 1
 711 365 l 2
 714 363 717 360 719 358 c 1
 721 354 722 353 722 347 c 0
 722 341 721 340 719 336 c 1
 717 334 714 331 712 330 c 2
 708 328 l 1
 390 327 l 1
 72 327 l 1
 66 329 l 1
 59 333 56 338 56 347 c 0
 56 353 56 354 59 358 c 0
 60 360 63 363 66 365 c 2
66 171 m 1
 72 173 l 1
 390 173 l 1
 708 173 l 1
 712 170 l 2
 714 169 717 166 719 164 c 1
 721 160 722 159 722 153 c 0
 722 147 721 146 719 142 c 1
 717 140 714 137 711 135 c 2
 707 133 l 1
 388 133 l 1
 70 133 l 1
 66 135 l 2
 63 137 60 140 59 142 c 0
 56 146 56 147 56 153 c 0
 56 162 59 167 66 171 c 1
EndSplineSet
Validated: 1
EndChar

StartChar: greater
Encoding: 62 62 56
Width: 778
Flags: HW
LayerCount: 2
Fore
SplineSet
94 538 m 0
 95.8696 539.039 96.3152 540.293 98.6805 540.293 c 0
 107.701 540.293 144.645 522.047 395 404 c 0
 554 329 685 267 687 265 c 0
 691 262 694 256 694 250 c 0
 694 244 691 238 687 235 c 0
 685 233 554 171 395 96 c 2
 107 -40 l 1
 101 -40 l 2
 90.0589 -39.2706 82.842 -30.0286 82.842 -20.0355 c 0
 82.842 -16.3283 83.8353 -12.5177 86 -9 c 0
 90 -4 62 -17 378 132 c 2
 626 250 l 1
 378 368 l 2
 61 518 90 504 86 509 c 1
 84 513 84 514 84 520 c 0
 84 526 84 527 87 531 c 0
 88 533 91 536 94 538 c 0
EndSplineSet
Validated: 1
EndChar

StartChar: question
Encoding: 63 63 57
Width: 500
Flags: HW
HStem: 188 23<220.152 292.573>
VStem: 166 43<234.232 280.161> 196 107<11.4626 90.5291> 320 26<234.596 272.906> 374 41<449.877 542.434>
LayerCount: 2
Fore
SplineSet
223 611 m 0xd8
 231.4 611.8 239.64 612.2 247.712 612.2 c 0
 280 612.2 309.6 605.8 336 593 c 0
 353 584 364 576 378 563 c 0
 396 544 406 527 413 503 c 0
 415 495 415 492 415 477 c 0
 415 461 415 458 413 450 c 0
 409 436 399 416 391 405 c 0
 387 400 380 393 376 388 c 1
 370 384 338 360 294 327 c 0
 254 298 219 273 217 270 c 0
 211 263 209 258 209 248 c 0
 209 241 209 239 211 234 c 0
 218.554 218.892 232.35 210.916 251.545 210.916 c 0
 252.678 210.916 253.83 210.944 255 211 c 0
 278 213 298 222 310 238 c 0
 316 246 319 253 320 263 c 0
 320 269 321 271 323 273 c 0
 326 276 327 276 333 276 c 0
 340 276 340 276 343 273 c 0
 346 270 346 270 346 262 c 0
 345 247 338 231 328 219 c 0
 311 201 280 188 250 188 c 0
 202.093 188 165.925 226.542 165.925 269.33 c 0
 165.925 290.389 174.854 312.754 191 327 c 0
 194 330 229 356 268 385 c 0
 312 416 344 439 348 444 c 2
 357 452 365 464 369 473 c 0
 372 479 374 491 374 499 c 0
 374 513 368 529 358 542 c 0
 341 564 312 581 279 587 c 0
 272 588 259.75 588.5 247.25 588.5 c 0
 234.75 588.5 222 588 214 587 c 0
 171 581 140 568 114 547 c 0
 108 542 95 527 95 525 c 0
 95 524 98 524 101 524 c 0
 128.512 524 147.848 502.974 147.848 478.33 c 0
 147.848 470.727 146.008 462.78 142 455 c 0
 134.5 439 118 431 101.375 431 c 0
 84.75 431 68 439 60 455 c 0
 56 464 55 472 55 484 c 0
 57 510 68 535 86 554 c 0
 114 585 165 606 223 611 c 0xd8
237 105 m 0
 241.558 106.266 246.115 106.891 250.608 106.891 c 0
 263.859 106.891 276.545 101.455 287 91 c 0
 298 81 303 68 303 54 c 0
 303 39 298 26 287 16 c 0
 276.5 5.5 263 0.25 249.5 0.25 c 0
 236 0.25 222.5 5.5 212 16 c 0
 201 26 196 39 196 54 c 0xb8
 196 63 197 68 202 77 c 0
 208 90 222 102 237 105 c 0
EndSplineSet
Validated: 1
EndChar

StartChar: at
Encoding: 64 64 58
Width: 778
Flags: HW
HStem: -9 23<298.266 524.305> 459 24<338.766 445.495> 577 23<300.947 476.062>
VStem: 518 70<209 381>
LayerCount: 2
Fore
SplineSet
366 600 m 0
 368.05 600.293 373.36 600.414 380.096 600.414 c 0
 396.358 600.414 420.929 599.707 428 599 c 0
 473 594 511 582 551 562 c 0
 614 530 662 482 692 422 c 0
 702 400 707 389 712 370 c 0
 719.015 343.693 722.186 321.231 722.186 293.174 c 0
 722.186 289.235 722.123 285.186 722 281 c 0
 719 181 691 123 641 110 c 0
 635.188 108.063 625.207 106.959 615.633 106.959 c 0
 610.38 106.959 605.251 107.292 601 108 c 0
 574 111 552 120 537 135 c 0
 529 143 522 153 520 162 c 2
 519 167 l 1
 511 159 l 2
 501 149 489 139 479 133 c 0
 463 123 440 114 423 111 c 0
 411.3 108.562 399.065 107.373 386.628 107.373 c 0
 348.044 107.373 307.519 118.825 275 140 c 0
 228 171 198 219 190 273 c 0
 189.111 280.113 188.673 287.242 188.673 294.352 c 0
 188.673 343.222 209.335 391.208 246 427 c 0
 261 441 275 451 294 460 c 0
 321 474 350 482 381 483 c 0
 403 483 421 481 441 474 c 0
 473 464 502 444 523 417 c 2
 529 410 l 1
 556 410 l 1
 582 410 l 1
 585 408 l 1
 588 405 l 1
 588 285 l 1
 589 165 l 1
 591 158 l 2
 592 154 594 149 595 147 c 0
 599 141 605 135 609 133 c 0
 612.507 131.052 617.077 130.166 622.119 130.166 c 0
 630.014 130.166 639.066 132.338 647 136 c 0
 654 139 667 152 672 160 c 0
 685 182 692 213 695 259 c 0
 695.653 269.127 695.987 278.773 695.987 288.035 c 0
 695.987 335.48 687.243 372.84 668 413 c 0
 635 479 572 534 498 559 c 0
 461 572 430 577 389 577 c 0
 347 577 316 572 279 559 c 0
 178 524 103 440 85 342 c 0
 82.5 325.5 81.25 310.25 81.25 295 c 0
 81.25 279.75 82.5 264.5 85 248 c 0
 95 194 122 144 162 103 c 0
 213 53 277 23 353 14 c 0
 361.625 12.875 374.891 12.3125 390.107 12.3125 c 0
 415.469 12.3125 446.25 13.875 470 17 c 0
 535 24 603 41 657 62 c 2
 670 67 l 1
 693 68 l 1
 716 68 l 1
 719 65 l 2
 721.144 62.8564 722.138 60.4256 722.138 58.1694 c 0
 722.138 56.2154 721.392 54.3923 720 53 c 0
 717 50 704 45 672 34 c 0
 607 13 538 -1 470 -7 c 0
 444.567 -9.4222 414.733 -10.7443 389.826 -10.7443 c 0
 373.601 -10.7443 359.467 -10.1833 350 -9 c 0
 304 -4 266 8 226 28 c 0
 163 60 115 108 85 169 c 0
 75 190 70 201 65 220 c 0
 58.5 245 55.25 270 55.25 295 c 0
 55.25 320 58.5 345 65 370 c 0
 70 389 75 400 85 422 c 0
 115 482 163 530 226 562 c 0
 267 583 308 595 351 599 c 0
 357 600 363 600 366 600 c 0
408 459 m 0
 402.141 459.808 396.404 460.208 390.79 460.208 c 0
 368.616 460.208 348.353 453.969 330 442 c 0
 294 418 270 377 261 327 c 0
 260 319 259.5 307 259.5 295.125 c 0
 259.5 283.25 260 271.5 261 264 c 0
 267 227 281 196 302 172 c 0
 327.417 144.341 356.745 130.093 389.985 130.093 c 0
 401.211 130.093 412.882 131.718 425 135 c 0
 459 144 490 167 512 199 c 2
 518 209 l 1
 518 295 l 1
 518 381 l 1
 512 391 l 2
 486 429 450 452 408 459 c 0
EndSplineSet
Validated: 1
EndChar

StartChar: A
Encoding: 65 65 59
Width: 1008
Flags: HW
HStem: -12 73<511 587.977> 594 20G<610 619.5>
LayerCount: 2
Fore
SplineSet
598 612 m 1
 602 613 606 614 614 614 c 0
 625 614 630 612 634 607 c 0
 638 602 883 11 883 7 c 0
 883 2 879 0 869 0 c 0
 852 0 849 2 837 23 c 0
 829 37 754 171 751 171 c 0
 749 171 731 151 703 119 c 0
 651 58 629 36 600 17 c 0
 581 4 558 -8 537 -12 c 0
 535 -12.333 532.556 -12.4443 529.815 -12.4443 c 0
 524.333 -12.4443 517.667 -12 511 -12 c 0
 505 -12 499 -12.4443 493.593 -12.4443 c 0
 490.889 -12.4443 488.333 -12.333 486 -12 c 0
 454 -5 427 12 398 41 c 0
 371 69 348 104 317 164 c 0
 311 174 307 183 306 183 c 1
 306 183.016 305.994 183.024 305.982 183.024 c 0
 305.252 183.024 282.545 153.416 255 118 c 0
 228 82 203 51 201 49 c 0
 196 45 189 43 180 43 c 0
 171 43 168 45 168 50 c 0
 168 53 221 123 377 328 c 0
 491 478 587 603 589 606 c 1
 592 608 596 611 598 612 c 1
570 507 m 0
 567 516 564 523 564 523 c 1
 563 523 558 517 553 509 c 2
 547 502 501 442 451 376 c 2
 360 257 l 1
 369 240 l 2
 427 128 471 78 525 64 c 0
 532 62 544 61 555 61 c 0
 561 61 566 61 571 62 c 0
 605 68 636 87 671 125 c 2
 732 195 l 1
 735 199 l 1
 721 222 l 2
 648 346 604 429 570 507 c 0
EndSplineSet
EndChar

StartChar: B
Encoding: 66 66 60
Width: 941
Flags: HW
HStem: -11 23<417.411 533.74> 568 24<437.959 557.653> 687 32<96 164.386>
VStem: 199 90<205 403 458 659.6> 661 104<176.216 411.887>
LayerCount: 2
Fore
SplineSet
205 783 m 0
 210 786 211 786 222 786 c 0
 240 786 253 780 266 767 c 0
 276 755 285 736 288 718 c 0
 289 712 289 669 289 584 c 2
 289 458 l 1
 297 469 l 2
 316 498 339 522 364 541 c 0
 390 562 423 578 454 585 c 0
 471 590 489 590 507 590 c 0
 559 590 610 573 654 538 c 0
 701 500 737 443 754 380 c 0
 761 351 765 321 765 293 c 0
 765 232 749 174 717 123 c 0
 697 91 665 59 635 38 c 0
 593 10 550 -11 501 -11 c 0
 495 -11 487 -11 479 -11 c 0
 464 -11 448 -10 436 -8 c 0
 342 5 264 59 225 136 c 0
 213 159 207 179 202 205 c 2
 199 218 l 1
 199 435 l 1
 199 673 199 655 192 667 c 0
 188 676 179 680 163 683 c 0
 152 685 130 687 111 687 c 2
 96 687 l 1
 96 703 l 1
 96 719 l 1
 107 719 l 1
 155 719 192 743 199 773 c 0
 201 779 199 779 205 783 c 0
529 568 m 1
 527 568.333 524.111 568.444 520.741 568.444 c 0
 514 568.444 505.333 568 498 568 c 0
 493 568 489 568 486 568 c 0
 438 562 394 540 355 502 c 0
 331 477 311 449 295 416 c 2
 289 403 l 1
 289 306 l 1
 289 201 290 200 296 170 c 0
 307 113 334 70 380 41 c 0
 409 23 444 12 477 12 c 0
 493 12 508 15 522 19 c 0
 569 33 613 74 635 127 c 0
 654 169 661 219 661 295 c 0
 661 310 l 0
 661 357 658 382 652 410 c 0
 640 473 612 521 571 548 c 0
 557 558 544 564 529 568 c 1
EndSplineSet
EndChar

StartChar: C
Encoding: 67 67 61
Width: 914
Flags: HW
HStem: 571 26<416.252 554.23>
LayerCount: 2
Fore
SplineSet
448 597 m 0
 453.385 597.414 465.632 597.657 479.413 597.657 c 0
 498.902 597.657 521.456 597.172 532 596 c 0
 584 591 620 579 656 555 c 0
 676 542 689 531 713 507 c 0
 733 488 735 485 735 482 c 0
 735 481 735 478 734 478 c 1
 733 475 660 414 657 413 c 0
 654 412 650 413 647 416 c 1
 647 417 644 425 641 435 c 0
 618 509 591 546 546 562 c 0
 526 569 508 571 480 571 c 0
 457 571 449 570 432 565 c 0
 383 549 339 505 315 450 c 0
 297.049 406.54 288.917 353.261 288.917 290.164 c 0
 288.917 286.476 288.945 282.755 289 279 c 0
 291 226 297 186 312 149 c 0
 338 79 392 28 451 17 c 0
 458.1 15.8164 468.934 15.2559 481.355 15.2559 c 0
 500.422 15.2559 523.229 16.5781 542 19 c 0
 611 27 655 54 710 122 c 0
 715 127 719 132 720 133 c 1
 724 135 728 134 733 131 c 1
 737.775 126.822 740.056 123.713 740.056 120.396 c 0
 740.056 118.156 739.016 115.822 737 113 c 0
 731 104 709 80 697 67 c 0
 656 27 618 6 565 -4 c 0
 543.213 -8.35742 510.962 -10.7773 481.999 -10.7773 c 0
 464.435 -10.7773 448.08 -9.8877 436 -8 c 0
 315 10 220 101 192 223 c 0
 187.346 244.154 185.02 266.203 185.02 288.541 c 0
 185.02 319.001 189.346 350 198 380 c 0
 205 406 222 443 237 466 c 0
 286 540 362 587 448 597 c 0
EndSplineSet
EndChar

StartChar: D
Encoding: 68 68 62
Width: 1021
Flags: HW
HStem: -32 24<495.965 611.402> 589 23<497.684 609.718>
VStem: 263 103<167.482 414.059> 741 104<168.46 412.637>
LayerCount: 2
Fore
SplineSet
185 611 m 0
 188 613 192 614 193 614 c 0
 195 614 200 612 205 610 c 0
 235 596 270 589 310 589 c 0
 331 589 l 0
 360 589 378 593 445 602 c 0
 496 610 520 612 551 612 c 0
 582 612 603 609 629 601 c 0
 702 579 764 528 802 458 c 0
 824 419 837 377 843 328 c 0
 844 321 845 306 845 290 c 0
 845 275 844 260 843 253 c 0
 837 204 824 162 802 123 c 0
 781 84 752 50 717 24 c 0
 686 0 644 -18 608 -26 c 0
 590 -30 572 -32 554 -32 c 0
 528 -32 502 -28 478 -20 c 0
 405 2 343 53 305 123 c 0
 283 162 269 204 263 253 c 0
 262.667 255.333 262.556 258.556 262.556 262.37 c 0
 262.556 270 263 280 263 290 c 0
 263 300.667 262.556 310.889 262.556 318.593 c 0
 262.556 322.444 262.667 325.667 263 328 c 0
 270 386 288 434 317 480 c 0
 341 515 375 549 408 569 c 0
 412 572 416 575 415 575 c 0
 413 575 389 571 380 568 c 0
 351 560 329 548 272 511 c 0
 229 483 206 470 180 459 c 0
 173.958 456.734 169.912 455.467 166.84 455.467 c 0
 161.776 455.467 159.356 458.909 155 467 c 0
 153 471 151 473 151 476 c 0
 151 480 153 484 157 493 c 0
 169 522 178 555 178 589 c 0
 178 596 179 604 179 605 c 1
 180 607 182 609 185 611 c 0
577 589 m 0
 572 589 565 589 557 589 c 0
 550.333 589 543.222 589.444 537.444 589.444 c 0
 534.556 589.444 532 589.333 530 589 c 0
 492 583 456 559 428 526 c 0
 384 473 366 404 366 291 c 0
 366 177 384 108 428 55 c 0
 456 22 493 0 530 -7 c 0
 536 -8 545 -8 553 -8 c 0
 562 -8 571 -8 577 -7 c 0
 614 0 651 22 679 55 c 0
 723 108 741 177 741 291 c 0
 741 404 723 473 679 526 c 0
 651 559 614 582 577 589 c 0
EndSplineSet
EndChar

StartChar: E
Encoding: 69 69 63
Width: 927
Flags: HW
HStem: -10 25<411.428 517 517 552.077> 293 32<290 626 712.435 769> 575 22<406.502 511.975>
VStem: 186 104<175.925 285 285 293 325 410.753> 626 87<325 440.998> 687 25<122.125 149>
LayerCount: 2
Fore
SplineSet
439 597 m 0xf4
 443 597 452 598 461 598 c 0
 469 598 479 597 484 597 c 0
 508 597 533 589 553 581 c 0
 566 577 589 567 600 560 c 0
 663 521 711 449 711 354 c 0
 711 336 713 336 713 331 c 0xf8
 713 325 714 325 729 325 c 0
 733 325 737 325 742 325 c 2
 769 325 l 1
 769 309 l 1
 769 293 l 1
 530 293 l 1
 290 293 l 1
 290 281 l 2
 290 253 293 216 297 192 c 0
 309 122 340 70 390 39 c 0
 414 23 441 15 473 15 c 0
 487 15 501 16 517 19 c 0
 582 30 635 62 667 110 c 0
 675 121 684 139 687 149 c 0
 690 158 692 160 701 160 c 0
 708 160 708 160 711 157 c 0
 713.144 155.392 714.138 153.785 714.138 151.407 c 0
 714.138 149.349 713.392 146.713 712 143 c 0
 709 133 698 111 692 102 c 0
 658 47 594 7 517 -6 c 0
 496 -10 485 -10 460 -10 c 0
 433 -10 423 -9 401 -4 c 0
 376 2 346 15 325 28 c 0
 292 49 261 80 240 112 c 0
 206 164 186 221 186 285 c 0
 186 287 186 291 186 293 c 0
 186 347 197 396 222 445 c 0
 237 475 255 499 279 523 c 0
 306 549 336 567 371 581 c 0
 390 588 418 597 439 597 c 0xf4
478 575 m 0
 472 576 467 575 461 575 c 0
 439 575 418 570 399 561 c 0
 382 552 359 533 346 516 c 0
 311 473 291 418 291 333 c 1
 290 325 l 1
 458 325 l 1
 626 325 l 1
 626 341 l 1
 626 432 595 503 552 539 c 0
 528 559 506 570 478 575 c 0
EndSplineSet
EndChar

StartChar: F
Encoding: 70 70 64
Width: 984
Flags: HW
HStem: -194 21G<270 330> 108 71<334 730> 493 32<141 209.236> 568 24<518.273 638.226>
VStem: 244 90<-188 108 179 427 448 463> 712 106<449.983 509.419>
LayerCount: 2
Fore
SplineSet
250 589 m 0
 255 592 256 592 264 592 c 0
 280 592 292 587 302 578 c 0
 313 568 320 555 325 536 c 0
 327 527 327 526 328 487 c 2
 328 448 l 1
 333 453 l 2
 428 537 489 576 545 589 c 0
 555 591 560 591 582 592 c 0
 587 592.1 591.96 592.15 596.871 592.15 c 0
 641.07 592.15 681.3 588.1 711 580 c 0
 734 575 759 564 773 555 c 0
 798 538 816 509 818 480 c 0
 818 474 818 471 817 469 c 0
 816 466 729 393 725 391 c 0
 720 389 714 391 712 396 c 1
 712 398 711 408 711 418 c 0
 710 440 708 456 704 473 c 0
 689 532 654 562 590 568 c 0
 583.5 568.75 577.375 569.125 571.453 569.125 c 0
 553.688 569.125 537.75 565.75 519 559 c 0
 476 543 430 510 356 446 c 2
 334 427 l 1
 334 303 l 1
 334 179 l 1
 532 179 l 1
 730 179 l 1
 730 144 l 1
 730 108 l 1
 532 108 l 1
 334 108 l 1
 334 -40 l 1
 334 -188 l 1
 330 -191 l 1
 327 -194 l 1
 290 -194 l 2
 250 -194 249 -194 246 -189 c 0
 245 -187 244 -123 244 136 c 0
 244 428 243 458 242 463 c 0
 238 475 232 482 221 486 c 0
 210 490 185 493 156 493 c 2
 141 493 l 1
 141 509 l 1
 141 525 l 1
 151 525 l 2
 200 528 235 549 242 579 c 0
 244 585 244 585 250 589 c 0
EndSplineSet
EndChar

StartChar: G
Encoding: 71 71 65
Width: 925
Flags: HW
HStem: -216 32<407.273 585.9> 510 71<145 420 519 772>
VStem: 234 65<279.306 390.626> 246 26<-45.0022 27> 673 65<-98.9742 20.2736>
LayerCount: 2
Fore
SplineSet
145 546 m 1xe8
 145 581 l 1
 459 581 l 1
 772 581 l 1
 772 546 l 1
 772 510 l 1
 645 510 l 1
 519 510 l 1
 504 506 l 2
 474 498 440 486 412 474 c 0
 358 449 322 420 307 389 c 0
 302 377 299 364 299 350 c 0xe8
 299 323 309 293 328 269 c 0
 349 244 379 224 411 215 c 0
 415 214 453 206 495 197 c 0
 537 188 576 180 582 178 c 0
 609 170 638 155 661 138 c 0
 669 132 688 113 695 105 c 0
 712 84 726 57 732 32 c 0
 736 16 738 1 738 -14 c 0
 738 -41 732 -68 719 -94 c 0
 708 -117 697 -132 678 -151 c 0
 643 -184 598 -208 546 -216 c 0
 543.333 -216.333 539.889 -216.444 535.926 -216.444 c 0
 528 -216.444 518 -216 508 -216 c 0
 492 -216 477 -216 467 -216 c 0
 438 -216 413 -203 389 -194 c 0
 349 -178 324 -172 290 -167 c 0
 260 -162 247 -161 209 -161 c 0
 181 -161 173 -160 172 -159 c 1
 170 -158 164 -143 164 -140 c 0
 164 -136 166 -133 175 -127 c 0
 215 -94 246 -48 246 4 c 0
 246 10 246 16 246 19 c 0
 246 22 246 25 246 27 c 1
 248.05 30.417 253.369 31.9658 258.447 31.9658 c 0
 260.799 31.9658 263.1 31.6328 265 31 c 1
 271 28 272 26 272 17 c 0xd8
 272 -9 278 -41 288 -64 c 0
 312 -120 364 -160 432 -175 c 0
 457 -181 486 -184 510 -184 c 0
 522 -184 533 -183 542 -182 c 0
 562 -178 583 -171 599 -162 c 0
 645 -136 673 -93 673 -47 c 0
 673 -42 674 -38 673 -33 c 0
 668 10 637 48 593 70 c 0
 575 78 564 82 529 89 c 0
 511 93 475 101 447 106 c 0
 390 119 378 122 355 133 c 0
 308 156 274 190 254 233 c 0
 241 260 234 288 234 315 c 0
 234 329 236 343 240 356 c 0
 253 401 290 441 350 476 c 0
 365 485 392 498 408 505 c 2
 420 510 l 1
 283 510 l 1
 145 510 l 1
 145 546 l 1xe8
EndSplineSet
EndChar

StartChar: H
Encoding: 72 72 66
Width: 936
Flags: HW
HStem: 0 21G<231 291 652 734> 568 23<460.82 597.693> 698 32<102 170.236>
VStem: 648 90<6 495>
LayerCount: 2
Fore
SplineSet
211 794 m 0
 216 797 217 797 225 797 c 0
 241 797 253 792 263 783 c 0
 274 773 281 760 286 741 c 2
 288 732 l 1
 289 590 l 1
 289 449 l 1
 311 470 l 2
 347 504 373 526 398 544 c 0
 432 568 464 584 493 590 c 0
 500 591 506 591 536 591 c 0
 582 591 609 589 637 582 c 0
 659 576 683 567 696 558 c 0
 715 545 729 525 735 503 c 2
 738 495 l 1
 738 250 l 1
 738 6 l 1
 734 3 l 1
 731 0 l 1
 693 0 l 1
 655 0 l 1
 652 3 l 1
 649 6 l 1
 648 251 l 1
 647 497 l 1
 645 505 l 2
 639 527 627 542 607 553 c 0
 590 561 571 566 544 568 c 0
 534.701 568.664 526.48 569.034 518.98 569.034 c 0
 492.605 569.034 475.136 564.458 451 552 c 0
 414 534 374 503 314 445 c 2
 295 427 l 1
 295 216 l 1
 295 6 l 1
 291 3 l 1
 288 0 l 1
 251 0 l 2
 211 0 210 0 207 5 c 0
 206 7 205 72 205 335 c 0
 205 633 204 663 203 668 c 0
 199 680 193 687 182 691 c 0
 171 695 146 698 117 698 c 2
 102 698 l 1
 102 714 l 1
 102 730 l 1
 112 730 l 2
 161 733 196 754 203 784 c 0
 205 790 205 790 211 794 c 0
EndSplineSet
EndChar

StartChar: I
Encoding: 73 73 67
Width: 531
Flags: HW
HStem: 0 21G<270 330> 482 32<142 209.536> 561 20G<261.5 276>
VStem: 246 88<6 435.015>
LayerCount: 2
Fore
SplineSet
250 578 m 0
 255 581 256 581 267 581 c 0
 285 580 298 575 311 562 c 0
 322 550 331 530 333 512 c 0
 334 506 334 431 334 255 c 2
 334 6 l 1
 330 3 l 1
 327 0 l 1
 290 0 l 2
 250 0 249 0 246 5 c 0
 245 7 244 51 244 227 c 0
 243 469 244 450 237 462 c 0
 233 471 224 475 208 478 c 0
 197 480 175 482 157 482 c 2
 142 482 l 1
 142 498 l 1
 142 514 l 1
 153 514 l 2
 200 517 235 538 242 568 c 0
 244 574 244 574 250 578 c 0
EndSplineSet
EndChar

StartChar: uni1E0A
Encoding: 74 7690 68
Width: 0
Flags: HW
HStem: -32 24<372.965 488.402> 589 23<374.684 486.718> 680 107<388.013 473.145>
VStem: 140 103<167.482 414.059> 377 107<690.977 776.122> 618 104<168.46 412.637>
LayerCount: 2
Fore
SplineSet
418 785 m 0
 423 786 427 787 432 787 c 0
 445 787 458 781 468 771 c 0
 479 761 484 748 484 734 c 0
 484 724 483 719 478 710 c 0
 472 696 458 683 443 680 c 0
 438 679 434 680 429 680 c 0
 416 680 403 686 393 696 c 0
 382 706 377 719 377 734 c 0
 377 743 378 748 383 757 c 0
 389 770 403 782 418 785 c 0
62 611 m 0
 65 613 69 614 70 614 c 0
 72 614 77 612 82 610 c 0
 112 596 147 589 187 589 c 0
 208 589 l 0
 237 589 255 593 322 602 c 0
 373 610 397 612 428 612 c 0
 459 612 480 609 506 601 c 0
 579 579 641 528 679 458 c 0
 701 419 714 377 720 328 c 0
 721 321 722 306 722 290 c 0
 722 275 721 260 720 253 c 0
 714 204 701 162 679 123 c 0
 658 84 629 50 594 24 c 0
 563 0 521 -18 485 -26 c 0
 467 -30 449 -32 431 -32 c 0
 405 -32 379 -28 355 -20 c 0
 282 2 220 53 182 123 c 0
 160 162 146 204 140 253 c 0
 139.667 255.333 139.556 258.556 139.556 262.37 c 0
 139.556 270 140 280 140 290 c 0
 140 300.667 139.556 310.889 139.556 318.593 c 0
 139.556 322.444 139.667 325.667 140 328 c 0
 147 386 165 434 194 480 c 0
 218 515 252 549 285 569 c 0
 289 572 293 575 292 575 c 0
 290 575 266 571 257 568 c 0
 228 560 206 548 149 511 c 0
 106 483 83 470 57 459 c 0
 50.9578 456.734 46.9121 455.467 43.8397 455.467 c 0
 38.7764 455.467 36.3565 458.909 32 467 c 0
 30 471 28 473 28 476 c 0
 28 480 30 484 34 493 c 0
 46 522 55 555 55 589 c 0
 55 596 56 604 56 605 c 1
 57 607 59 609 62 611 c 0
454 589 m 0
 449 589 442 589 434 589 c 0
 427.333 589 420.222 589.444 414.444 589.444 c 0
 411.556 589.444 409 589.333 407 589 c 0
 369 583 333 559 305 526 c 0
 261 473 243 404 243 291 c 0
 243 177 261 108 305 55 c 0
 333 22 370 0 407 -7 c 0
 413 -8 422 -8 430 -8 c 0
 439 -8 448 -8 454 -7 c 0
 491 0 528 22 556 55 c 0
 600 108 618 177 618 291 c 0
 618 404 600 473 556 526 c 0
 528 559 491 582 454 589 c 0
EndSplineSet
Validated: 1
EndChar

StartChar: Cdotaccent
Encoding: 75 266 69
Width: 0
Flags: HW
HStem: -11 26<288.826 455.294> 571 27<286.252 425.264> 680 107<303.981 389.017>
VStem: 55 104<178.785 404.19>
LayerCount: 2
Fore
SplineSet
334 786 m 0
 337 787 341 787 345 787 c 0
 354 787 363 785 372 780 c 0
 384 774 396 759 399 746 c 0
 399.5 743 399.75 738.25 399.75 733.5 c 0
 399.75 728.75 399.5 724 399 721 c 0
 395 703 378 684 359 680 c 0
 354 679 350 680 345 680 c 0
 324 680 305 694 296 716 c 0
 294 722 294 724 294 734 c 0
 294 743 294 745 296 751 c 0
 303 769 317 781 334 786 c 0
318 597 m 0
 323 597 336 598 349 598 c 0
 369 598 391 596 402 596 c 0
 454 596 490 579 526 555 c 0
 546 542 559 531 583 507 c 0
 603 488 605 485 605 482 c 0
 605 481 605 478 604 478 c 1
 603 475 530 414 527 413 c 0
 524 412 520 413 517 416 c 1
 517 417 514 425 511 435 c 0
 488 509 461 546 416 562 c 0
 396 569 378 571 350 571 c 0
 327 571 319 570 302 565 c 0
 253 549 209 505 185 450 c 0
 167 407 159 353 159 290 c 0
 159 286 159 283 159 279 c 0
 159 226 167 186 182 149 c 0
 208 79 262 28 321 17 c 0
 328 16 339 15 351 15 c 0
 370 15 393 17 412 19 c 0
 481 27 525 54 580 122 c 0
 585 127 589 132 590 133 c 1
 594 135 598 134 603 131 c 1
 608 127 610 124 610 120 c 0
 610 118 609 116 607 113 c 0
 601 104 579 80 567 67 c 0
 526 27 488 6 435 -4 c 0
 413 -8 381 -11 352 -11 c 0
 334 -11 318 -10 306 -8 c 0
 185 10 90 101 62 223 c 0
 57 244 55 266 55 289 c 0
 55 319 59 350 68 380 c 0
 75 406 92 443 107 466 c 0
 156 540 232 587 318 597 c 0
EndSplineSet
Validated: 1
EndChar

StartChar: L
Encoding: 76 76 70
Width: 723
Flags: HW
HStem: 687 32<125 174.781>
VStem: 205 89<96 632.387> 555 26<71.0897 130>
LayerCount: 2
Fore
SplineSet
210 782 m 1
 215 786 l 1
 226 786 l 2
 235 785 239 785 245 783 c 0
 267 775 282 757 290 727 c 2
 292 720 l 1
 293 411 l 1
 294 102 l 1
 296 92 l 2
 301 68 310 50 325 37 c 0
 341 21 361 12 389 7 c 0
 397.5 5.5 409.75 4.75 421.75 4.75 c 0
 433.75 4.75 445.5 5.5 453 7 c 0
 472 11 489 18 504 28 c 0
 514 35 530 52 537 62 c 0
 548 79 555 100 555 119 c 0
 555 123 555 125 558 127 c 0
 561 130 561 130 568 130 c 0
 575 130 575 130 578 127 c 0
 581 124 581 123 581 118 c 0
 581 110 579 95 576 85 c 0
 573 74 562 53 555 43 c 0
 541 24 524 10 500 -2 c 0
 472 -16 452 -21 420 -22 c 0
 416.269 -22.0957 412.567 -22.1436 408.897 -22.1436 c 0
 335.845 -22.1436 275.23 -3.27832 240 31 c 0
 222 49 212 68 205 96 c 0
 204 102 204 127 203 379 c 0
 202 685 203 660 196 671 c 0
 189 682 171 687 137 687 c 2
 125 687 l 1
 125 703 l 1
 125 719 l 1
 129 719 l 2
 135 719 145 721 152 723 c 0
 177 731 195 749 201 771 c 0
 202 775 203 778 204 778 c 1
 210 782 l 1
EndSplineSet
EndChar

StartChar: M
Encoding: 77 77 71
Width: 1194
Flags: HW
HStem: 0 21G<269 327 602 660 935 993> 493 32<141 209.236> 569 22<459.031 500.49 500.49 509.891 505.191 544.363 792.031 833.49 833.49 842.891 838.191 877.228>
VStem: 246 85<6 428 460 484.58> 579 85<6 428 460 513> 912 85<6 498.596>
CounterMasks: 1 1c
LayerCount: 2
Fore
SplineSet
250 589 m 0
 255 592 256 592 267 592 c 0
 284 591 293 587 304 577 c 0
 313 569 321 556 326 542 c 0
 330 529 331 519 331 489 c 2
 331 460 l 1
 344 476 l 2
 400 545 440 578 478 589 c 0
 485 591 487 591 511 591 c 0
 545 591 569 588 591 580 c 0
 620 570 640 555 651 533 c 0
 660 516 664 499 664 475 c 2
 664 460 l 1
 677 476 l 2
 733 545 773 578 811 589 c 0
 818 591 820 591 844 591 c 0
 870 591 882 590 902 586 c 0
 924 582 946 573 961 562 c 0
 974 551 986 534 991 516 c 0
 997 497 997 512 997 248 c 2
 997 6 l 1
 993 3 l 1
 990 0 l 1
 954 0 l 2
 916 0 915 0 912 5 c 0
 911 7 910 57 910 256 c 2
 909 504 l 1
 907 513 l 2
 904 525 902 532 896 540 c 0
 884 559 865 567 834 569 c 0
 823 569 820 569 813 567 c 0
 780 559 741 524 682 451 c 2
 664 428 l 1
 664 217 l 1
 664 6 l 1
 660 3 l 1
 657 0 l 1
 621 0 l 2
 583 0 582 0 579 5 c 0
 578 7 577 57 577 256 c 2
 576 504 l 1
 574 513 l 2
 571 525 569 532 563 540 c 0
 551 559 532 567 501 569 c 0
 490 569 487 569 480 567 c 0
 447 559 408 524 349 451 c 2
 331 428 l 1
 331 217 l 1
 331 6 l 1
 327 3 l 1
 324 0 l 1
 288 0 l 2
 250 0 249 0 246 5 c 0
 245 7 244 52 244 233 c 0
 243 480 244 461 237 473 c 0
 233 482 224 486 208 489 c 0
 197 491 175 493 156 493 c 2
 141 493 l 1
 141 509 l 1
 141 525 l 1
 151 525 l 2
 200 528 235 549 242 579 c 0
 244 585 244 585 250 589 c 0
EndSplineSet
EndChar

StartChar: N
Encoding: 78 78 72
Width: 975
Flags: HW
HStem: 0 21G<270 330 691 773> 493 32<141 209.236> 568 23<499.82 636.693>
VStem: 244 90<6 427 449 485.389> 687 90<6 495>
LayerCount: 2
Fore
SplineSet
250 589 m 0
 255 592 256 592 264 592 c 0
 280 592 292 587 302 578 c 0
 313 568 320 555 325 536 c 0
 327 527 327 526 328 488 c 2
 328 449 l 1
 350 470 l 2
 386 504 412 526 437 544 c 0
 471 568 503 584 532 590 c 0
 539 591 545 591 575 591 c 0
 621 591 648 589 676 582 c 0
 698 576 722 567 735 558 c 0
 754 545 768 525 774 503 c 2
 777 495 l 1
 777 250 l 1
 777 6 l 1
 773 3 l 1
 770 0 l 1
 732 0 l 1
 694 0 l 1
 691 3 l 1
 688 6 l 1
 687 251 l 1
 686 497 l 1
 684 505 l 2
 678 527 666 542 646 553 c 0
 629 561 610 566 583 568 c 0
 573.701 568.664 565.48 569.034 557.98 569.034 c 0
 531.605 569.034 514.136 564.458 490 552 c 0
 453 534 413 503 353 445 c 2
 334 427 l 1
 334 216 l 1
 334 6 l 1
 330 3 l 1
 327 0 l 1
 290 0 l 2
 250 0 249 0 246 5 c 0
 245 7 244 52 244 233 c 0
 243 480 244 461 237 473 c 0
 233 482 224 486 208 489 c 0
 197 491 175 493 156 493 c 2
 141 493 l 1
 141 509 l 1
 141 525 l 1
 151 525 l 2
 200 528 235 549 242 579 c 0
 244 585 244 585 250 589 c 0
EndSplineSet
EndChar

StartChar: O
Encoding: 79 79 73
Width: 970
Flags: HW
HStem: -21 26<429.387 552.148>
VStem: 187 102<168.706 408.697> 692 102<172.206 408.697>
LayerCount: 2
Fore
SplineSet
464 602 m 0
 469 602 480 603 489 603 c 0
 489.852 603.007 490.704 603.011 491.555 603.011 c 0
 604.582 603.011 709.396 537.208 762 432 c 0
 779 398 788 367 794 328 c 0
 795 318.5 795.5 303.25 795.5 288.125 c 0
 795.5 273 795 258 794 249 c 0
 790 221 784 197 774 174 c 0
 737 78 654 7 556 -15 c 0
 532 -20 519 -21 491 -21 c 0
 462 -21 449 -20 426 -15 c 0
 368 -2 315 27 273 70 c 0
 226 119 197 179 187 249 c 0
 186 258 185.5 273 185.5 288.125 c 0
 185.5 303.25 186 318.5 187 328 c 0
 193 367 202 398 219 432 c 0
 267 528 360 592 464 602 c 0
508 576 m 0
 502.035 576.702 496.029 577.048 490.007 577.048 c 0
 444.546 577.048 398.204 557.321 362 522 c 0
 314 473 289 399 289 302 c 0
 289 216 305 149 337 98 c 0
 373 40 431 5 491 5 c 0
 543 5 597 33 632 80 c 0
 673 135 692 206 692 302 c 0
 692 399 667 473 619 522 c 0
 588 552 550 571 508 576 c 0
EndSplineSet
EndChar

StartChar: P
Encoding: 80 80 74
Width: 1012
Flags: HW
HStem: -194 21G<271 331> -13 23<535.921 622.58> 482 32<142 210.236> 566 26<460.499 584.001>
VStem: 245 87<-186 378.956> 458 26<109.36 172.989> 734 104<168.013 399.337>
LayerCount: 2
Fore
SplineSet
513 590 m 0
 514 590.333 515.556 590.444 517.52 590.444 c 0
 521.444 590.444 527 590 533 590 c 0
 541 590 550 590 556 590 c 0
 581 590 608 583 631 575 c 0
 663 564 697 546 723 525 c 0
 738 513 765 486 776 471 c 0
 804 434 822 393 831 350 c 0
 835 329 838 307 838 285 c 0
 838 243 829 199 813 159 c 0
 804 135 785 103 768 82 c 0
 759 70 737 49 726 40 c 0
 683 6 630 -13 581 -13 c 0
 579 -13 576 -13 574 -13 c 0
 550 -13 532 -6 512 8 c 0
 488 24 469 30 442 30 c 0
 427 30 417 29 402 23 c 0
 396 21 392 20 389 20 c 0
 384 20 382 24 378 35 c 0
 376 42 376 42 378 45 c 1
 379 48 382 50 390 53 c 1
 419 69 442 94 452 125 c 0
 455 135 458 150 458 158 c 0
 458 170 461 173 472 173 c 0
 477 173 478 173 481 170 c 0
 483 168 484 166 484 163 c 0
 484 160 485 151 485 142 c 0
 485 88 500 54 521 33 c 0
 534 20 547 14 565 11 c 0
 569 10 574 10 578 10 c 0
 606 10 631 22 654 45 c 0
 683 74 708 122 721 175 c 0
 729 209 734 247 734 285 c 0
 734 305 732 324 730 343 c 0
 715 447 652 533 573 558 c 0
 557 563 540 566 523 566 c 0
 491 566 459 556 432 538 c 0
 383 506 348 450 336 386 c 0
 335 380 335 370 335 356 c 0
 335 339 335 334 333 332 c 1
 333 331 332 325 332 303 c 0
 332 271 334 207 334 73 c 0
 334 -67 335 -184 335 -186 c 1
 334 -188 333 -190 331 -191 c 1
 328 -194 l 1
 291 -194 l 2
 251 -194 248 -194 245 -189 c 0
 244.667 -188.333 244.556 -181 244.556 -162.074 c 0
 244.556 -124.222 245 -40 245 130 c 0
 245 322 245.444 398.889 245.444 430.296 c 0
 245.444 446 245.333 450.333 245 452 c 0
 241 464 233 471 222 475 c 0
 211 479 186 482 157 482 c 2
 142 482 l 1
 142 498 l 1
 142 514 l 1
 152 514 l 1
 201 514 236 536 243 566 c 0
 245 572 245 574 252 578 c 0
 257 581 257 581 268 581 c 0
 285 581 294 576 305 566 c 0
 318 555 327 536 330 517 c 2
 332 509 l 1
 332 521 l 2
 332 522.564 332.05 523.329 332.127 523.329 c 0
 332.397 523.329 333 514.085 333 497 c 2
 333 460 l 1
 340 472 l 2
 368 523 409 559 458 578 c 0
 471 583 489 588 502 590 c 0
 506 591 512 590 513 590 c 0
EndSplineSet
EndChar

StartChar: uni1E1E
Encoding: 81 7710 75
Width: 736
Flags: HW
HStem: -194 21G<134 194> 108 71<198 594> 493 32<5 73.2358> 568 24<382.273 502.226>
VStem: 108 90<-188 108 179 427 448 463> 576 106<449.983 509.419>
LayerCount: 2
Fore
SplineSet
427 785 m 0
 430.351 786.257 434.93 786.811 439.708 786.811 c 0
 446.338 786.811 453.351 785.743 458 784 c 0
 477 777 490 760 493 741 c 0
 493.413 738.42 493.613 735.84 493.613 733.279 c 0
 493.613 711.021 478.523 690.174 457 683 c 0
 452.5 681.5 446 680.75 439.625 680.75 c 0
 433.25 680.75 427 681.5 423 683 c 0
 406 689 395 700 389 717 c 0
 387.5 721 386.75 727 386.75 733 c 0
 386.75 739 387.5 745 389 749 c 0
 395 768 408 780 427 785 c 0
114 589 m 0
 119 592 120 592 128 592 c 0
 144 592 156 587 166 578 c 0
 177 568 184 555 189 536 c 0
 191 527 191 526 192 487 c 2
 192 448 l 1
 197 453 l 2
 292 537 353 576 409 589 c 0
 419 591 424 591 446 592 c 0
 451 592.1 455.96 592.15 460.871 592.15 c 0
 505.07 592.15 545.3 588.1 575 580 c 0
 598 575 623 564 637 555 c 0
 662 538 680 509 682 480 c 0
 682 474 682 471 681 469 c 0
 680 466 593 393 589 391 c 0
 584 389 578 391 576 396 c 1
 576 398 575 408 575 418 c 0
 574 440 572 456 568 473 c 0
 553 532 518 562 454 568 c 0
 447.5 568.75 441.375 569.125 435.453 569.125 c 0
 417.688 569.125 401.75 565.75 383 559 c 0
 340 543 294 510 220 446 c 2
 198 427 l 1
 198 303 l 1
 198 179 l 1
 396 179 l 1
 594 179 l 1
 594 144 l 1
 594 108 l 1
 396 108 l 1
 198 108 l 1
 198 -40 l 1
 198 -188 l 1
 194 -191 l 1
 191 -194 l 1
 154 -194 l 2
 114 -194 113 -194 110 -189 c 0
 109 -187 108 -123 108 136 c 0
 108 428 107 458 106 463 c 0
 102 475 96 482 85 486 c 0
 74 490 49 493 20 493 c 2
 5 493 l 1
 5 509 l 1
 5 525 l 1
 15 525 l 2
 64 528 99 549 106 579 c 0
 108 585 108 585 114 589 c 0
EndSplineSet
Validated: 1
EndChar

StartChar: R
Encoding: 82 82 76
Width: 980
Flags: HW
HStem: -22 23<765.429 813.62> 267 24<428 514.076> 482 32<141 209.236> 565 27<395.081 536.977>
VStem: 246 85<6 473.58> 622 104<49.301 192 386.097 509.943> 827 26<12.5039 48.9963>
LayerCount: 2
Fore
SplineSet
440 590 m 0
 442 590.333 444.222 590.444 446.63 590.444 c 0
 451.444 590.444 457 590 463 590 c 0
 476.333 590 491.444 591.333 506.259 591.333 c 0
 513.667 591.333 521 591 528 590 c 0
 620 579 698 537 719 490 c 0
 724 479 726 470 726 456 c 0
 726 435 722 418 710 396 c 0
 702 380 693 368 679 353 c 0
 651 326 615 305 570 289 c 0
 562.621 286.54 558.872 285.291 558.872 284.299 c 0
 558.872 283.274 562.871 282.524 571 281 c 0
 605 275 634 264 657 249 c 0
 664 245 671 239 679 231 c 0
 692 218 699 208 705 193 c 0
 709 183 710 181 728 114 c 0
 741 67 748 47 754 33 c 0
 761 15 771 2 779 0 c 0
 780 0 781 0 781 0 c 0
 791 0 806 6 814 12 c 0
 821 18 827 29 827 37 c 0
 827 44 832 49 840 49 c 0
 848 49 853 45 853 36 c 0
 853 28 849 9 834 -3 c 0
 821 -15 800 -22 779 -22 c 0
 750 -22 721 -16 698 -5 c 0
 666 9 644 34 634 67 c 0
 629 80 625 89 625 131 c 0
 625 176 621 182 617 192 c 0
 610 213 592 231 566 244 c 0
 538 257 498 267 453 267 c 0
 440.333 267 434.333 266.556 431.148 266.556 c 0
 429.556 266.556 428.667 266.667 428 267 c 0
 424.583 269.05 423.034 273.902 423.034 278.365 c 0
 423.034 280.433 423.367 282.417 424 284 c 0
 426 290 429 291 447 291 c 0
 499 291 542 309 575 337 c 0
 605 363 622 405 622 454 c 0
 622 469 620 479 615 489 c 0
 599 521 561 548 514 559 c 0
 494 564 480 565 457 565 c 0
 445.667 565 439.667 565.889 434.259 565.889 c 0
 431.556 565.889 429 565.667 426 565 c 0
 408 561 393 553 377 542 c 0
 365 534 346 515 338 503 c 2
 332 494 l 1
 332 250 l 1
 332 6 l 1
 327 3 l 1
 324 0 l 1
 288 0 l 2
 250 0 249 0 246 5 c 0
 245.667 5.66699 245.556 11 245.556 24.333 c 0
 245.556 51 246 109.667 246 227 c 0
 246 469 244 450 237 462 c 0
 233 471 224 475 208 478 c 0
 197 480 175 482 156 482 c 2
 141 482 l 1
 141 498 l 1
 141 514 l 1
 151 514 l 1
 200 514 235 538 242 568 c 0
 244 574 244 574 251 578 c 0
 256 581 256 581 267 581 c 0
 284 581 293 575 304 565 c 0
 317 554 326 537 329 517 c 2
 331 509 l 1
 331 522 l 1
 331 535 l 1
 340 544 l 2
 353 556 366 565 382 573 c 0
 401 582 420 587 440 590 c 0
EndSplineSet
EndChar

StartChar: S
Encoding: 83 83 77
Width: 870
Flags: HW
HStem: -22 32<371.152 520.831> 574 28<358.486 498.714>
VStem: 190 105<417 515.197> 246 26<102.81 172.98> 586 103<71.2893 215.976> 608 26<411.094 467.517>
LayerCount: 2
Fore
SplineSet
383 602 m 0xe8
 387 602 394 602 402 602 c 0
 420 602 443 601 453 601 c 0
 484 601 507 589 536 574 c 0
 569 557 584 552 614 552 c 0
 630 552 634 552 645 554 c 0
 652 555 661 557 666 559 c 1
 670.938 560.097 674.37 560.893 676.958 560.893 c 0
 679.088 560.893 680.646 560.354 682 559 c 1
 684 558 690 543 690 540 c 0
 690 537 687 533 683 529 c 0
 673 520 658 500 650 485 c 0
 640 466 634 441 634 420 c 0
 634 415 634 414 631 411 c 0
 628 408 628 408 621 408 c 0
 615 408 614 408 611 411 c 0
 609 413 608 415 608 420 c 1xe4
 604 447 594 477 580 498 c 0
 547 546 496 574 423 574 c 0
 406 574 395 573 383 570 c 0
 344 560 311 527 300 488 c 0
 295 473 295 467 295 451 c 0
 295 432 296 422 301 408 c 0
 314 372 342 344 377 333 c 0
 381 331 418 323 459 314 c 0
 539 298 550 295 567 289 c 0
 600 277 625 261 646 241 c 0
 667 221 680 199 687 172 c 0
 689 163 689 159 689 145 c 0
 689 141 689 138 689 135 c 0
 689 124 688 117 683 104 c 0
 664 43 599 -4 517 -18 c 0
 502 -21 485 -22 467 -22 c 0
 445 -22 423 -20 403 -16 c 0
 378 -11 361 -5 336 7 c 0
 326 12 314 17 309 19 c 0
 293 25 275 28 257 28 c 0
 253 28 250 27 246 27 c 0
 235 27 228 25 209 21 c 0
 206.56 20.5117 204.477 20.2021 202.649 20.2021 c 0
 196.988 20.2021 193.78 23.1719 190 33 c 0
 189 37 190 39 190 41 c 0xe8
 190 45 192 48 198 52 c 0
 210 64 225 85 232 100 c 0
 240 118 246 142 246 160 c 0
 246 170 250 173 260 173 c 0
 265 173 267 173 269 170 c 1
 272 168 272 167 272 155 c 0xd0
 272 133 278 115 285 98 c 0
 311 44 371 10 455 10 c 0
 472 10 483 11 495 14 c 0
 523 21 549 42 567 71 c 0
 580 92 586 118 586 144 c 0
 586 162 583 180 577 197 c 0
 563 232 535 261 502 272 c 0
 499 273 460 281 417 291 c 0
 319 311 310 313 280 328 c 0
 249 343 226 362 211 384 c 0
 206 392 197 409 195 417 c 0
 192 428 190 439 190 450 c 0
 190 478 201 505 222 529 c 0
 255 568 317 602 383 602 c 0xe8
EndSplineSet
EndChar

StartChar: T
Encoding: 84 84 78
Width: 959
Flags: HW
HStem: 510 71<157 382 425.804 812>
VStem: 214 102<157.144 368.557>
LayerCount: 2
Fore
SplineSet
157 546 m 1
 157 581 l 1
 485 581 l 1
 812 581 l 1
 812 546 l 1
 812 510 l 1
 656 510 l 2
 553 510 498 510 491 509 c 0
 436 503 388 473 356 425 c 0
 331 387 318 338 316 275 c 0
 315.866 270.523 315.8 266.091 315.8 261.705 c 0
 315.8 200.446 328.804 148.127 354 108 c 0
 383 60 429 27 481 17 c 0
 489.058 15.8066 499.788 15.2363 511.727 15.2363 c 0
 539.795 15.2363 574.55 18.3877 597 24 c 0
 630 32 653 46 678 71 c 0
 693 86 703 99 719 122 c 0
 725 130 730 138 731 139 c 1
 735 141 739 140 744 137 c 0
 748.58 133.336 751.062 130.93 751.062 127.477 c 0
 751.062 123.391 747.587 117.839 740 107 c 0
 695 40 655 10 595 -3 c 0
 572.232 -8.25391 542.988 -10.7822 514.63 -10.7822 c 0
 494.414 -10.7822 474.648 -9.49707 458 -7 c 0
 397 3 343 29 299 69 c 0
 274 92 254 118 239 150 c 0
 226 175 219 200 214 228 c 0
 213 236 212.5 249.25 212.5 262.625 c 0
 212.5 276 213 289.5 214 298 c 0
 219 325 226 350 239 376 c 0
 258 415 285 447 321 474 c 0
 336 486 346 492 366 502 c 2
 382 510 l 1
 269 510 l 1
 157 510 l 1
 157 546 l 1
EndSplineSet
EndChar

StartChar: U
Encoding: 85 85 79
Width: 970
Flags: HW
HStem: -10 22<416.125 551.941> 493 32<137 205.236 580 648.236> 572 20G<257.5 272 700.5 715.5>
VStem: 245 89<89.75 154 154 348> 681 92<-5 142 142 210 210 461>
LayerCount: 2
Fore
SplineSet
246 589 m 0
 251 592 252 592 263 592 c 0
 281 591 294 586 307 573 c 0
 317 561 326 542 329 524 c 0
 330 518 330 463 330 348 c 0
 330 180 330 158 334 134 c 0
 339 94 350 68 370 49 c 0
 395 26 431 14 481 12 c 0
 483.25 11.9453 485.474 11.917 487.671 11.917 c 0
 525.513 11.917 555.756 20.1523 586 40 c 0
 638 75 671 135 681 210 c 0
 682 217 682.5 277.75 682.5 337.75 c 0
 682.5 397.75 682 457 681 461 c 0
 679 469 674 478 670 481 c 0
 659 489 634 493 595 493 c 2
 580 493 l 1
 580 509 l 1
 580 525 l 1
 590 525 l 2
 639 528 674 549 681 579 c 0
 683 585 683 585 690 589 c 0
 695 592 695 592 706 592 c 0
 725 591 737 586 750 573 c 0
 761 561 770 541 772 523 c 0
 773 517 773 438 773 255 c 2
 773 -5 l 1
 769 -8 l 1
 766 -11 l 1
 729 -11 l 1
 693 -11 l 1
 690 -8 l 1
 687 -5 l 1
 686 68 l 1
 686 142 l 1
 681 130 l 2
 667 96 648 68 624 44 c 0
 607 28 594 19 573 8 c 0
 544.915 -5.6416 519.405 -10.9121 482.52 -10.9121 c 0
 473.439 -10.9121 463.668 -10.5928 453 -10 c 0
 388 -6 340 11 304 42 c 0
 274 67 253 107 245 154 c 0
 241 178 241 176 240 320 c 0
 239 471 240 461 233 473 c 0
 229 482 220 486 204 489 c 0
 193 491 171 493 152 493 c 2
 137 493 l 1
 137 509 l 1
 137 525 l 1
 147 525 l 2
 196 528 231 549 238 579 c 0
 240 585 240 585 246 589 c 0
EndSplineSet
EndChar

StartChar: uni1E02
Encoding: 86 7682 80
Width: 0
Flags: HW
HStem: -11 23<326.318 442.175> 568 24<350.828 464.234> 680 107<372.97 457.695> 687 32<5 73.3857>
VStem: 108 90<205 403 458 654.283> 362 107<691.308 775.921> 570 104<176.379 412.86>
LayerCount: 2
Fore
SplineSet
362 734 m 0xee
 362 764 387 787 416 787 c 0
 448 787 469 759 469 734 c 0
 469 709 448 680 415 680 c 0
 389 680 362 700 362 734 c 0xee
674 293 m 0
 674 113 535 -11 388 -11 c 0
 256 -11 137 70 111 205 c 2
 108 218 l 1
 108 435 l 1
 108 499 108.569 545.933 108.569 580.503 c 0
 108.569 675.569 104.267 677.133 72 683 c 0
 61 685 39 687 20 687 c 2
 5 687 l 1
 5 719 l 1
 16 719 l 1xde
 64 719 101 743 108 773 c 0
 112.375 785.25 120.578 786.016 127.92 786.016 c 0
 128.969 786.016 130 786 131 786 c 0
 174 786 192 750 197 718 c 0
 198 712 198 669 198 584 c 2
 198 458 l 1
 206 469 l 2
 254 542 332 590 416 590 c 0
 549 590 674 466 674 293 c 0
570 295 m 0
 570 398 553 537 438 568 c 1
 436 568.333 433.111 568.444 429.741 568.444 c 0
 423 568.444 414.333 568 407 568 c 0
 372 568 268 547 204 416 c 2
 198 403 l 1
 198 306 l 1
 198 292.729 197.791 278.806 197.791 264.516 c 0
 197.791 185.125 204.254 94.3898 289 41 c 0
 318 23 353 12 386 12 c 0
 481 12 530 93 544 127 c 0
 563 169 570 219 570 295 c 0
EndSplineSet
Validated: 1
EndChar

StartChar: uni1E40
Encoding: 87 7744 81
Width: 0
Flags: HW
HStem: 0 21G<133 195 466 528 799 861> 493 32<5 73.2358> 569 22<322.364 406.345 655.364 740.51> 680 107<442.331 526.811>
VStem: 110 85<6 428 460 484.358> 431 107<690.846 775.612> 443 85<6 428 460 545.597> 776 85<6 498.596>
LayerCount: 2
Fore
SplineSet
431 734 m 0xfd
 431 763 456 787 486 787 c 0
 509 787 538 767 538 734 c 0
 538 702 511 680 486 680 c 0
 457 680 431 702 431 734 c 0xfd
195 6 m 1
 188 0 l 1
 152 0 l 2
 114 0 113 0 110 5 c 0
 109.667 5.66667 109.556 11.1111 109.556 24.7778 c 0
 109.556 52.1111 110 112.333 110 233 c 0
 110 292.085 110.394 337.093 110.394 371.485 c 0
 110.394 482.032 106.322 482.898 72 489 c 0
 61 491 39 493 20 493 c 2
 5 493 l 1
 5 525 l 1
 15 525 l 1
 64 525 99 551 106 581 c 0
 108.917 589.167 114.215 590.868 119.712 590.868 c 0
 123.639 590.868 127.667 590 131 590 c 0
 156 590 177 578 190 542 c 0
 194 529 195 519 195 489 c 2
 195 460 l 1
 208 476 l 2
 299.41 589.034 336.719 590 373.102 590 c 0
 375 590 l 0
 457 590 528 568 528 475 c 2
 528 460 l 1
 541 476 l 2
 632.41 589.034 669.719 590 706.102 590 c 0
 708 590 l 0
 763 590 837 581 855 516 c 0
 861 497 861 512 861 248 c 2
 861 6 l 1
 854 0 l 1
 818 0 l 2
 780 0 779 0 776 5 c 0
 775 7 773 57 773 256 c 2
 773 504 l 1
 766 535 758 569 698 569 c 0
 695.744 569.002 l 0
 672.868 569.002 639.871 567.129 546 451 c 2
 528 428 l 1
 528 6 l 1
 521 0 l 1
 485 0 l 2
 447 0 446 0 443 5 c 0xfb
 442 7 440 57 440 256 c 2
 440 504 l 1
 433 535 425 569 365 569 c 0
 362.744 569.002 l 0
 339.868 569.002 306.871 567.129 213 451 c 2
 195 428 l 1
 195 6 l 1
EndSplineSet
Validated: 1
EndChar

StartChar: uni1E6A
Encoding: 88 7786 82
Width: 750
Flags: HW
HStem: 510 71<50 275 318.804 705>
VStem: 107 102<157.144 368.557>
LayerCount: 2
Fore
SplineSet
390 785 m 0
 394.307 786.077 398.614 786.638 402.92 786.638 c 0
 426 781 l 0
 438 775 447 765 453 751 c 0
 455 745 455 743 455 734 c 0
 455 724 455 722 453 716 c 0
 449 707 443 698 437 693 c 0
 427.405 684.365 415.049 680.102 402.69 680.102 c 0
 389.289 680.102 375.885 685.115 366 695 c 0
 354 706 349 718 349 734 c 0
 349 741 350 745 351 749 c 0
 357 767 372 781 390 785 c 0
50 546 m 1
 50 581 l 1
 378 581 l 1
 705 581 l 1
 705 546 l 1
 705 510 l 1
 549 510 l 2
 446 510 391 510 384 509 c 0
 329 503 281 473 249 425 c 0
 224 387 211 338 209 275 c 0
 208.866 270.523 208.8 266.091 208.8 261.705 c 0
 208.8 200.446 221.804 148.127 247 108 c 0
 276 60 322 27 374 17 c 0
 382.058 15.8062 392.788 15.236 404.727 15.236 c 0
 432.795 15.236 467.55 18.3875 490 24 c 0
 523 32 546 46 571 71 c 0
 586 86 596 99 612 122 c 0
 618 130 623 138 624 139 c 1
 628 141 632 140 637 137 c 0
 641.58 133.336 644.063 130.93 644.063 127.477 c 0
 644.063 123.391 640.587 117.839 633 107 c 0
 588 40 548 10 488 -3 c 0
 465.232 -8.25421 435.988 -10.7818 407.63 -10.7818 c 0
 387.414 -10.7818 367.648 -9.49719 351 -7 c 0
 290 3 236 29 192 69 c 0
 167 92 147 118 132 150 c 0
 119 175 112 200 107 228 c 0
 106 236 105.5 249.25 105.5 262.625 c 0
 105.5 276 106 289.5 107 298 c 0
 112 325 119 350 132 376 c 0
 151 415 178 447 214 474 c 0
 229 486 239 492 259 502 c 2
 275 510 l 1
 162 510 l 1
 50 510 l 1
 50 546 l 1
EndSplineSet
Validated: 1
EndChar

StartChar: Gdotaccent
Encoding: 89 288 83
Width: 0
Flags: HW
HStem: -216 32<312.273 490.9> 510 71<50 325 424 677> 680 107<321.013 406.561>
VStem: 139 65<279.306 390.626> 151 26<-45.0022 27> 310 107<690.977 776.122> 578 65<-98.9742 20.2736>
LayerCount: 2
Fore
SplineSet
351 785 m 0xe6
 356 786 360 787 365 787 c 0
 378 787 391 781 401 771 c 0
 412 761 417 748 417 734 c 0
 417 719 412 706 401 696 c 0
 391 686 378 680 365 680 c 0
 360 680 356 679 351 680 c 0
 336 683 322 696 316 710 c 0
 311 719 310 724 310 734 c 0
 310 743 311 748 316 757 c 0
 322 770 336 782 351 785 c 0xe6
50 546 m 1
 50 581 l 1
 364 581 l 1
 677 581 l 1
 677 546 l 1
 677 510 l 1
 550 510 l 1
 424 510 l 1
 409 506 l 2
 379 498 345 486 317 474 c 0
 263 449 227 420 212 389 c 0
 207 377 204 364 204 350 c 0xf6
 204 323 214 293 233 269 c 0
 254 244 284 224 316 215 c 0
 320 214 358 206 400 197 c 0
 442 188 481 180 487 178 c 0
 514 170 543 155 566 138 c 0
 574 132 593 113 600 105 c 0
 617 84 631 57 637 32 c 0
 641 16 643 1 643 -14 c 0
 643 -41 637 -68 624 -94 c 0
 613 -117 602 -132 583 -151 c 0
 548 -184 503 -208 451 -216 c 0
 448.333 -216.333 444.889 -216.444 440.926 -216.444 c 0
 433 -216.444 423 -216 413 -216 c 0
 397 -216 382 -216 372 -216 c 0
 343 -216 318 -203 294 -194 c 0
 254 -178 229 -172 195 -167 c 0
 165 -162 152 -161 114 -161 c 0
 86 -161 78 -160 77 -159 c 1
 75 -158 69 -143 69 -140 c 0
 69 -136 71 -133 80 -127 c 0
 120 -94 151 -48 151 4 c 0
 151 10 151 16 151 19 c 0
 151 22 151 25 151 27 c 1
 153.05 30.4169 158.369 31.9657 163.447 31.9657 c 0
 165.799 31.9657 168.1 31.6332 170 31 c 1
 176 28 177 26 177 17 c 0xee
 177 -9 183 -41 193 -64 c 0
 217 -120 269 -160 337 -175 c 0
 362 -181 391 -184 415 -184 c 0
 427 -184 438 -183 447 -182 c 0
 467 -178 488 -171 504 -162 c 0
 550 -136 578 -93 578 -47 c 0
 578 -42 579 -38 578 -33 c 0
 573 10 542 48 498 70 c 0
 480 78 469 82 434 89 c 0
 416 93 380 101 352 106 c 0
 295 119 283 122 260 133 c 0
 213 156 179 190 159 233 c 0
 146 260 139 288 139 315 c 0xf6
 139 329 141 343 145 356 c 0
 158 401 195 441 255 476 c 0
 270 485 297 498 313 505 c 2
 325 510 l 1
 188 510 l 1
 50 510 l 1
 50 546 l 1
EndSplineSet
Validated: 1
EndChar

StartChar: uni1E60
Encoding: 90 7776 84
Width: 0
Flags: HW
HStem: -22 32<236.152 385.831> 574 28<223.486 363.714>
VStem: 55 105<417 515.197> 111 26<102.81 172.98> 451 103<71.2893 215.976> 473 26<411.094 467.517>
LayerCount: 2
Fore
SplineSet
265 785 m 0xc0
 269 786 274 787 278 787 c 0
 301 781 l 0
 313 775 322 765 328 751 c 0
 330 745 330 743 330 734 c 0
 330 724 330 722 328 716 c 0
 319 693 299 680 278 680 c 0
 269 680 260 682 252 687 c 0
 240 693 228 708 225 721 c 0
 224.5 724 224.25 728.75 224.25 733.5 c 0
 224.25 738.25 224.5 743 225 746 c 0
 229 764 246 781 265 785 c 0xc0
248 602 m 0
 252 602 259 602 267 602 c 0
 285 602 308 601 318 601 c 0
 349 601 372 589 401 574 c 0
 434 557 449 552 479 552 c 0
 495 552 499 552 510 554 c 0
 517 555 526 557 531 559 c 1
 535.937 560.097 539.37 560.893 541.958 560.893 c 0
 544.088 560.893 545.646 560.354 547 559 c 1
 549 558 555 543 555 540 c 0
 555 537 552 533 548 529 c 0
 538 520 523 500 515 485 c 0
 505 466 499 441 499 420 c 0
 499 415 499 414 496 411 c 0
 493 408 493 408 486 408 c 0
 480 408 479 408 476 411 c 0
 474 413 473 415 473 420 c 1xe4
 469 447 459 477 445 498 c 0
 412 546 361 574 288 574 c 0
 271 574 260 573 248 570 c 0
 209 560 176 527 165 488 c 0
 160 473 160 467 160 451 c 0
 160 432 161 422 166 408 c 0
 179 372 207 344 242 333 c 0
 246 331 283 323 324 314 c 0
 404 298 415 295 432 289 c 0
 465 277 490 261 511 241 c 0
 532 221 545 199 552 172 c 0
 554 163 554 159 554 145 c 0
 554 141 554 138 554 135 c 0
 554 124 553 117 548 104 c 0
 529 43 464 -4 382 -18 c 0
 367 -21 350 -22 332 -22 c 0
 310 -22 288 -20 268 -16 c 0
 243 -11 226 -5 201 7 c 0
 191 12 179 17 174 19 c 0
 158 25 140 28 122 28 c 0
 118 28 115 27 111 27 c 0
 100 27 93 25 74 21 c 0
 71.5598 20.512 69.4769 20.2026 67.6496 20.2026 c 0
 61.9883 20.2026 58.7799 23.1722 55 33 c 0
 54 37 55 39 55 41 c 0xe8
 55 45 57 48 63 52 c 0
 75 64 90 85 97 100 c 0
 105 118 111 142 111 160 c 0
 111 170 115 173 125 173 c 0
 130 173 132 173 134 170 c 1
 137 168 137 167 137 155 c 0xd0
 137 133 143 115 150 98 c 0
 176 44 236 10 320 10 c 0
 337 10 348 11 360 14 c 0
 388 21 414 42 432 71 c 0
 445 92 451 118 451 144 c 0
 451 162 448 180 442 197 c 0
 428 232 400 261 367 272 c 0
 364 273 325 281 282 291 c 0
 184 311 175 313 145 328 c 0
 114 343 91 362 76 384 c 0
 71 392 62 409 60 417 c 0
 57 428 55 439 55 450 c 0xe8
 55 478 66 505 87 529 c 0
 120 568 182 602 248 602 c 0
EndSplineSet
Validated: 1
EndChar

StartChar: bracketleft
Encoding: 91 91 85
Width: 278
Flags: HW
HStem: -250 40<158 255> 710 40<158 255>
VStem: 118 137<-250 -210 710 750> 118 40<-210 710>
LayerCount: 2
Fore
SplineSet
118 250 m 1xd0
 118 750 l 1
 187 750 l 1
 255 750 l 1
 255 730 l 1
 255 710 l 1xe0
 207 710 l 1
 158 710 l 1
 158 250 l 1
 158 -210 l 1xd0
 207 -210 l 1
 255 -210 l 1
 255 -230 l 1
 255 -250 l 1
 187 -250 l 1
 118 -250 l 1xe0
 118 250 l 1xd0
EndSplineSet
Validated: 1
EndChar

StartChar: backslash
Encoding: 92 92 86
Width: 0
Flags: HW
LayerCount: 2
Fore
SplineSet
417 -249 m 1
 413 -247 409 -244 407 -240 c 0
 407 -240 326 -20 230 244 c 0
 69 688 56 725 56 731 c 0
 56 736 56 737 59 741 c 0
 60 743 64 746 66 748 c 1
 69 749 72 750 75 750 c 0
 82 750 88 746 92 740 c 0
 92 740 173 520 269 256 c 0
 393 -85 444 -226 444 -230 c 0
 444 -240 436 -250 425 -250 c 0
 422 -250 418 -250 417 -249 c 1
EndSplineSet
Validated: 1
EndChar

StartChar: bracketright
Encoding: 93 93 87
Width: 278
Flags: HW
HStem: -250 40<22 119> 710 40<22 119>
VStem: 22 137<-250 -210 710 750> 119 40<-210 710>
LayerCount: 2
Fore
SplineSet
22 730 m 1xe0
 22 750 l 1
 91 750 l 1
 159 750 l 1xe0
 159 250 l 1xd0
 159 -250 l 1
 91 -250 l 1
 22 -250 l 1
 22 -230 l 1
 22 -210 l 1xe0
 71 -210 l 1
 119 -210 l 1
 119 250 l 1
 119 710 l 1xd0
 71 710 l 1
 22 710 l 1
 22 730 l 1xe0
EndSplineSet
Validated: 1
EndChar

StartChar: asciicircum
Encoding: 94 94 88
Width: 0
Flags: HW
HStem: 487 102
VStem: 119 260
LayerCount: 2
Fore
SplineSet
185 550 m 0
 219.116 571.444 248.481 590.038 249.943 590.038 c 0
 249.981 590.038 250 590.025 250 590 c 1
 253 589 379 510 379 509 c 1
 379.047 508.953 379.07 508.865 379.07 508.74 c 0
 379.07 506.237 369.905 488.905 368 487 c 1
 368 486.958 367.952 486.937 367.856 486.937 c 0
 365.705 486.937 339.645 497.593 309 511 c 0
 276 525 250 536 249 536 c 1
 247 535 221 524 189 511 c 0
 159.312 497.593 133.293 486.937 131.143 486.937 c 0
 131.048 486.937 131 486.958 131 487 c 1
 129 488 119 508 119 509 c 1
 120 509 149 527 185 550 c 0
EndSplineSet
Validated: 1
EndChar

StartChar: underscore
Encoding: 95 95 89
Width: 778
Flags: HW
HStem: -233 40<98 679>
LayerCount: 2
Fore
SplineSet
94 -195 m 2
 98 -193 l 1
 388 -193 l 1
 679 -193 l 1
 683 -195 l 2
 686 -197 689 -200 691 -202 c 1
 693 -206 694 -207 694 -213 c 0
 694 -219 693 -220 691 -224 c 1
 689 -226 686 -229 683 -231 c 2
 679 -233 l 1
 388 -233 l 1
 98 -233 l 1
 94 -231 l 2
 91 -229 88 -226 87 -224 c 0
 84 -220 84 -219 84 -213 c 0
 84 -207 84 -206 87 -202 c 0
 88 -200 91 -197 94 -195 c 2
EndSplineSet
Validated: 1
EndChar

StartChar: quoteleft
Encoding: 96 8216 90
Width: 278
Flags: HW
LayerCount: 2
Fore
SplineSet
160 588 m 0
 161.746 589.309 163.492 590.047 165.321 590.047 c 0
 167.682 590.047 170.182 588.818 173 586 c 1
 176 582 177 581 177 578 c 0
 177 574 176 573 165 562 c 0
 158 555 150 546 146 541 c 0
 119 507 103 469 96 427 c 0
 95.191 416.483 93.7275 396.802 93.7275 386.492 c 0
 93.7275 384.058 93.809 382.146 94 381 c 2
 95 376 l 1
 101 381 l 2
 111.372 390.878 125.403 395.877 139.238 395.877 c 0
 153.414 395.877 167.384 390.628 177 380 c 0
 187.018 369.564 191.809 355.818 191.809 342.253 c 0
 191.809 323.32 182.477 304.739 165 296 c 0
 156.375 291.5 147.188 289.25 138.123 289.25 c 0
 123.016 289.25 108.25 295.5 97 308 c 0
 90 315 83 329 79 342 c 0
 73.6307 357.132 71.1205 374.884 71.1205 393.978 c 0
 71.1205 414.002 73.8812 435.501 79 457 c 0
 84 476 88 488 97 507 c 0
 106 524 113 536 124 550 c 0
 132 561 155 585 160 588 c 0
EndSplineSet
Validated: 1
EndChar

StartChar: a
Encoding: 97 97 91
Width: 758
Flags: HW
HStem: -12 60<354.815 442.158>
LayerCount: 2
Fore
SplineSet
443 463 m 1
 445 463 449 464 454 464 c 1
 461 463 464 462 468 457 c 0
 470 455 540 261 629 11 c 0
 630 10 630 9 630 8 c 0
 630 5 628 1 625 0 c 0
 623.5 -1 620.5 -1.5 617.25 -1.5 c 0
 614 -1.5 610.5 -1 608 0 c 0
 606 1 603 5 602 7 c 2
 600 9 594 20 588 31 c 0
 583 43 569 68 559 87 c 2
 541 122 l 1
 537 118 l 2
 535 115 522 100 509 83 c 0
 496 66 481 47 475 40 c 0
 444 5 414 -12 382 -12 c 0
 377 -12 373 -13 369 -12 c 0
 323 -6 290 31 257 109 c 0
 253 116 251 123 250 123 c 1
 250 123.024 249.992 123.036 249.978 123.036 c 0
 249.374 123.036 236.616 103.399 221 79 c 0
 205 55 191 33 190 32 c 0
 187 28 181 25 176 24 c 0
 174.967 23.8711 173.983 23.8086 173.055 23.8086 c 0
 166.792 23.8086 163 26.6455 163 31 c 0
 163 35 431 455 436 459 c 1
 438 460 441 462 443 463 c 1
429 348 m 0
 426 355 422 366 420 372 c 2
 415 383 l 1
 413 380 l 2
 407 371 288 183 288 183 c 1
 294 167 l 2
 321 105 343 75 370 58 c 0
 381 51 394 48 407 48 c 0
 422 48 437 52 450 60 c 0
 467 70 480 83 503 111 c 0
 510 121 519 132 523 136 c 1
 529 144 l 1
 516 167 l 2
 476 242 448 300 429 348 c 0
EndSplineSet
EndChar

StartChar: b
Encoding: 98 98 92
Width: 800
Flags: HW
HStem: 491 32<149 199.576> 570 20G<234 253.5>
VStem: 227 70<115.222 321 369 467.691>
LayerCount: 2
Fore
SplineSet
234 586 m 1
 239 590 l 1
 249 590 l 2
 258 589 260 589 265 587 c 0
 281 579 293 558 296 527 c 0
 297 521 297 490 297 443 c 2
 297 369 l 1
 304 378 l 2
 338.921 419.189 385.068 441.938 434.542 441.938 c 0
 440.32 441.938 446.144 441.627 452 441 c 0
 501 436 546 414 581 377 c 0
 614 343 635 300 643 250 c 0
 644 242 644.5 228.75 644.5 215.5 c 0
 644.5 202.25 644 189 643 181 c 0
 633 122 605 70 562 36 c 0
 531 10 492 -6 453 -10 c 0
 446.979 -10.6025 440.914 -10.8994 434.833 -10.8994 c 0
 390.423 -10.8994 345.183 4.97461 310 34 c 0
 300 42 282 61 274 72 c 0
 251 102 236 139 229 180 c 0
 228 189 228 205 227 325 c 0
 226 473 227 464 220 475 c 0
 213 486 195 491 160 491 c 2
 149 491 l 1
 149 507 l 1
 149 523 l 1
 157 523 l 2
 190 526 218 547 225 575 c 0
 226 579 227 582 228 582 c 1
 234 586 l 1
456 416 m 0
 449.423 417.754 441.309 418.546 432.752 418.546 c 0
 421.793 418.546 410.108 417.246 400 415 c 0
 362 405 327 374 303 332 c 2
 297 321 l 1
 297 260 l 2
 297 198 298 180 301 158 c 0
 306 119 319 86 338 62 c 0
 358 37 382 21 410 14 c 0
 414.944 13.1006 422.717 12.6064 430.685 12.6064 c 0
 440.444 12.6064 450.495 13.3486 456 15 c 0
 483 22 506 38 524 62 c 0
 550 97 561 142 561 216 c 0
 561 289 550 334 524 369 c 0
 514 382 504 392 490 401 c 0
 479 408 469 413 456 416 c 0
EndSplineSet
EndChar

StartChar: c
Encoding: 99 99 93
Width: 759
Flags: HW
HStem: -9 25<361.381 494.405> 421 25<361.171 488.38>
LayerCount: 2
Fore
SplineSet
388 446 m 0
 396.678 447.183 409.245 447.744 422.818 447.744 c 0
 443.655 447.744 466.861 446.422 482 444 c 0
 505 441 531 433 558 422 c 0
 580 413 587 409 588 407 c 0
 590 404 590 400 589 398 c 1
 589 395 552 365 549 364 c 2
 548 363 545 363 544 363 c 1
 542 364 534 371 525 380 c 0
 496 409 478 418 441 421 c 0
 433.606 421.721 426.635 422.085 420.01 422.085 c 0
 389.901 422.085 366.95 414.574 344 399 c 0
 305 372 280 327 273 269 c 0
 270.255 250.47 268.923 232.058 268.923 214.208 c 0
 268.923 180.04 273.804 147.931 283 121 c 0
 300 73 336 35 378 21 c 0
 388.854 17.124 395.5 15.6514 408.656 15.6514 c 0
 412.47 15.6514 416.831 15.7754 422 16 c 0
 500 16 538 41 566 112 c 0
 573 128 573 129 576 130 c 0
 580 132 583 131 588 128 c 0
 593 124 595 121 595 117 c 0
 595 112 580 78 571 63 c 0
 545 19 510 -2 454 -9 c 0
 446 -10 431.25 -10.5 416.875 -10.5 c 0
 402.5 -10.5 388.5 -10 382 -9 c 0
 357 -5 334 3 313 13 c 0
 258 40 215 88 197 145 c 0
 189.022 168.932 184.941 193.188 184.941 217.584 c 0
 184.941 236.003 187.268 254.502 192 273 c 0
 205 322 233 367 273 398 c 0
 305 424 347 441 388 446 c 0
EndSplineSet
EndChar

StartChar: d
Encoding: 100 100 94
Width: 875
Flags: HW
HStem: -20 24<429.128 538.75> 417 20<323.695 350.515> 434 23<431.592 535.073>
VStem: 249 83<117.159 319.623> 635 83<118.227 319.879>
LayerCount: 2
Fore
SplineSet
467 457 m 0xb8
 473 457 479 457 484 457 c 0xb8
 502 457 515 456 532 452 c 0
 582 442 630 413 663 373 c 0
 687 345 705 307 713 270 c 0
 718 251 718 242 718 219 c 0
 718 206 718 193 717 188 c 0
 713 161 705 135 693 111 c 0
 680 84 666 64 645 44 c 0
 609 10 564 -12 513 -20 c 0
 510.667 -20.333 507.889 -20.4443 504.778 -20.4443 c 0
 498.556 -20.4443 491 -20 483 -20 c 0
 475.667 -20 468.333 -20.4443 462.185 -20.4443 c 0
 459.111 -20.4443 456.333 -20.333 454 -20 c 0
 394 -11 341 19 304 64 c 0
 276 97 255 142 249 188 c 0
 248.667 190 248.556 192.667 248.556 195.815 c 0
 248.556 202.111 249 210.333 249 219 c 0
 249 227 248.556 235.444 248.556 241.963 c 0
 248.556 245.222 248.667 248 249 250 c 0
 255 295 276 340 304 373 c 0
 314 385 331 401 342 410 c 1
 347 413 351 417 351 417 c 1
 350 417 332 411 321 406 c 0
 308 400 297 394 264 375 c 0
 225 352 190 336 181 336 c 0
 179 336 176 336 175 338 c 1
 172 341 165 353 165 357 c 0
 165 358 167 362 170 366 c 0
 182 386 192 411 192 434 c 0
 192 447 193 446 199 450 c 0
 202.751 452.144 205.066 453.138 207.485 453.138 c 0
 209.579 453.138 211.751 452.392 215 451 c 0
 237 441 263 437 291 437 c 0
 297 437 302 437 308 437 c 0xd8
 329 437 345 440 383 446 c 0
 399 449 414 451 418 452 c 0
 434 455 452 457 467 457 c 0xb8
506 434 m 0
 504.333 434.333 502.222 434.444 499.815 434.444 c 0
 495 434.444 489 434 483 434 c 0
 477.667 434 471.889 434.444 467.148 434.444 c 0
 464.778 434.444 462.667 434.333 461 434 c 0
 418 427 379 394 357 351 c 0
 340 319 332 275 332 219 c 0
 332 172 338 134 349 104 c 0
 368 52 412 13 461 5 c 0
 467 4 475 4 483 4 c 0
 492 4 500 4 506 5 c 0
 555 13 599 52 618 104 c 0
 629 134 635 172 635 219 c 0
 635 265 629 303 618 333 c 0
 599 385 555 426 506 434 c 0
EndSplineSet
EndChar

StartChar: e
Encoding: 101 101 95
Width: 772
Flags: HW
HStem: -11 26<348.178 459.618> 231 22<272 508 575 630> 424 24<345.005 439.748>
VStem: 187 84<115.178 231 253 324.676> 508 67<253 354.116>
LayerCount: 2
Fore
SplineSet
369 447 m 0
 374 448 381 448 388 448 c 0
 403 448 420 445 435 442 c 0
 469 435 498 422 521 399 c 0
 553 366 575 322 575 263 c 1
 575 253 l 1
 603 253 l 1
 630 253 l 1
 630 242 l 1
 630 231 l 1
 451 231 l 1
 271 231 l 1
 271 215 l 2
 271 128 290 72 330 40 c 0
 351 23 373 15 398 15 c 0
 409 15 420 16 432 19 c 0
 487 31 532 69 548 117 c 0
 551 128 554 131 562 131 c 0
 567 131 568 131 571 128 c 0
 573 126 575 124 575 121 c 0
 575 118 573 114 571 107 c 0
 556 65 525 31 482 10 c 0
 454 -3 419 -11 388 -11 c 0
 384 -11 380 -11.4443 376 -11.4443 c 0
 370 -11 l 0
 327 -6 290 13 258 44 c 0
 245 57 237 66 227 82 c 0
 207 113 193 146 187 187 c 0
 187 189 187 192 187 196 c 0
 187 203 187 212 187 221 c 0
 187 230 187 240 187 247 c 0
 187 251 187 254 187 256 c 0
 199 334 246 399 311 430 c 0
 329 439 348 444 369 447 c 0
414 424 m 0
 412 424 409 424 406 424 c 0
 385 424 l 0
 382 424 378 424 376 424 c 0
 338 418 303 384 287 338 c 0
 282 326 279 312 277 299 c 0
 275 288 272 264 272 258 c 2
 272 253 l 1
 390 253 l 1
 508 253 l 1
 508 267 l 1
 508 329 486 376 456 401 c 0
 444 411 430 420 414 424 c 0
EndSplineSet
EndChar

StartChar: f
Encoding: 102 102 96
Width: 831
Flags: HW
HStem: -194 21G<269 314> 60 56<318 622> 343 32<170 220.097> 419 22<427.879 553.897>
VStem: 250 68<-188 60 116 336.706>
LayerCount: 2
Fore
SplineSet
255 438 m 1
 259 442 260 442 268 442 c 0
 272 442 278 441 281 440 c 0
 295 436 305 421 310 395 c 0
 311 389 311 377 312 359 c 2
 312 332 l 1
 317 341 l 2
 345 396 405 434 474 441 c 0
 480.5 441.5 493 441.75 506.375 441.75 c 0
 519.75 441.75 534 441.5 544 441 c 0
 618 436 661 414 671 373 c 0
 672.236 368.056 673.09 363.111 673.09 359.111 c 0
 673.09 356.639 672.764 354.528 672 353 c 0
 670 350 617 306 614 306 c 2
 613 305 610 305 609 306 c 1
 604 308 603 311 602 326 c 0
 600 361 591 381 573 397 c 0
 557 410 534 417 501 419 c 0
 498.369 419.096 495.749 419.143 493.142 419.143 c 0
 441.248 419.143 394.278 400.278 360 366 c 0
 339 344 327 322 321 295 c 0
 319 285 319 283 318 200 c 2
 318 116 l 1
 470 116 l 1
 622 116 l 1
 622 88 l 1
 622 60 l 1
 470 60 l 1
 318 60 l 1
 318 -64 l 1
 318 -188 l 1
 314 -191 l 1
 311 -194 l 1
 284 -194 l 2
 254 -194 252 -194 250 -188 c 1
 248 -185 248 -157 248 59 c 0
 248 193 248 305 247 309 c 0
 243 335 232 341 188 343 c 2
 170 343 l 1
 170 359 l 1
 170 375 l 1
 174 375 l 2
 180 375 190 377 197 379 c 0
 222 387 240 405 246 427 c 0
 247 431 248 434 249 434 c 1
 255 438 l 1
EndSplineSet
EndChar

StartChar: g
Encoding: 103 103 97
Width: 850
Flags: HW
HStem: -205 23<368.698 516.712> 375 56<173 359.99 431 689>
VStem: 235 48<187.912 294.63> 245 28<-69.6313 15> 606 48<-120.5 -12.0948>
LayerCount: 2
Fore
SplineSet
173 403 m 1xe8
 173 431 l 1
 431 431 l 1
 689 431 l 1
 689 403 l 1
 689 375 l 1
 566 375 l 1
 443 375 l 1
 431 372 l 2
 406 366 371 353 354 344 c 0
 323 327 298 302 289 279 c 0
 285 269 283 257 283 246 c 0xe8
 283 234 285 222 290 211 c 0
 303 181 335 154 373 141 c 0
 379 139 398 135 417 131 c 0
 492 117 501 115 514 111 c 0
 582 91 632 50 648 0 c 0
 652 -12 654 -20 654 -33 c 0
 654 -42 l 0
 654 -57 654 -62 652 -71 c 0
 644 -107 626 -138 600 -158 c 0
 569 -182 528 -197 480 -202 c 0
 467 -204 446 -205 430 -205 c 0
 423.333 -205 418 -205.444 413.704 -205.444 c 0
 411.556 -205.444 409.667 -205.333 408 -205 c 0
 380 -202 365 -196 335 -181 c 0
 304 -166 287 -158 259 -158 c 0
 254 -158 249 -157 245 -157 c 0
 237 -157 229 -158 217 -160 c 0
 212.667 -160.667 209.444 -161 206.963 -161 c 0
 202 -161 200 -159.667 198 -157 c 0
 195 -152 192 -141 192 -138 c 1
 193 -137 196 -131 200 -126 c 0
 225 -93 240 -56 245 -15 c 0
 245 -8 245 1 245 5 c 0
 245 9 245 14 245 15 c 1
 247 19 252.75 21 258.375 21 c 0
 264 21 269.5 19 271 15 c 1
 271 14 273 4 273 -6 c 0xd8
 273 -28 276 -41 280 -57 c 0
 296 -126 338 -169 398 -180 c 0
 406 -181 417 -182 429 -182 c 0
 447 -182 467 -180 483 -178 c 0
 540 -170 578 -148 596 -111 c 0
 603 -99 606 -84 606 -69 c 0
 606 -61 605 -53 603 -46 c 0
 595 -13 561 17 514 33 c 0
 497 39 492 40 435 51 c 0
 366 64 357 67 334 77 c 0
 282 102 246 144 235 195 c 0
 234.667 197 234.556 199.444 234.556 202.148 c 0
 234.556 207.556 235 214 235 220 c 0
 235 226.667 234.556 233.333 234.556 238.815 c 0
 234.556 241.556 234.667 244 235 246 c 0
 241 274 256 299 279 321 c 0
 300 343 316 356 359 375 c 0
 359 375 360 374 360 375 c 0
 360 375.333 358.444 375.444 353.481 375.444 c 0
 343.556 375.444 320 375 268 375 c 2
 173 375 l 1
 173 403 l 1xe8
EndSplineSet
EndChar

StartChar: h
Encoding: 104 104 98
Width: 775
Flags: HW
HStem: 0 21G<253 298 540 602> 491 32<154 204.376> 570 20G<239 258>
VStem: 234 68<6 343 343 485.132> 537 69<6 389.682>
LayerCount: 2
Fore
SplineSet
239 586 m 1
 244 590 l 1
 254 590 l 2
 262 589 265 589 270 587 c 0
 280 582 288 571 292 556 c 0
 298 538 298 540 299 437 c 2
 299 343 l 1
 304 352 l 2
 313 368 320 377 334 392 c 0
 345 402 351 408 359 413 c 0
 379 426 400 435 423 439 c 0
 432.439 440.798 445.111 441.788 458.564 441.788 c 0
 475.04 441.788 492.688 440.303 507 437 c 0
 537 431 562 418 578 399 c 0
 585 390 596 369 599 357 c 0
 606 334 606 345 606 167 c 2
 606 6 l 1
 602 3 l 1
 599 0 l 1
 571 0 l 1
 543 0 l 1
 540 3 l 1
 537 6 l 1
 536 170 l 2
 535 319 535 335 534 345 c 0
 526 388 507 410 472 417 c 0
 467 418 458 418.5 448.75 418.5 c 0
 439.5 418.5 430 418 424 417 c 0
 405 413 384 404 368 393 c 0
 363 389 354 382 347 376 c 0
 328 357 315 334 308 309 c 0
 302 289 303 297 302 146 c 2
 302 6 l 1
 298 3 l 1
 295 0 l 1
 268 0 l 2
 238 0 236 0 234 6 c 1
 232 9 232 34 232 230 c 0
 232 351 232 453 231 457 c 0
 227 483 216 489 172 491 c 2
 154 491 l 1
 154 507 l 1
 154 523 l 1
 162 523 l 2
 195 526 223 547 230 575 c 0
 231 579 232 582 233 582 c 1
 239 586 l 1
EndSplineSet
EndChar

StartChar: i
Encoding: 105 105 99
Width: 486
Flags: HW
HStem: 0 21G<271 310> 343 32<170 220.002> 422 20G<254 275>
VStem: 247 67<6 156 156 319.446>
LayerCount: 2
Fore
SplineSet
254 438 m 1
 259 442 l 1
 269 442 l 2
 281 441 287 439 294 432 c 0
 303 423 308 411 312 391 c 0
 313 381 314 370 314 193 c 2
 314 6 l 1
 310 3 l 1
 307 0 l 1
 281 0 l 2
 261 0 255 0 253 2 c 1
 247 5 247 -6 247 156 c 0
 247 236 247 305 246 309 c 0
 242 335 231 341 189 343 c 2
 170 343 l 1
 170 359 l 1
 170 375 l 1
 177 375 l 2
 211 378 238 399 245 427 c 0
 246 431 247 434 248 434 c 1
 254 438 l 1
EndSplineSet
EndChar

StartChar: uni1E0B
Encoding: 106 7691 100
Width: 0
Flags: HW
HStem: -20 24<292.128 401.75> 417 20<186.695 213.515> 434 23<294.592 398.073> 562 107<304.013 389.145>
VStem: 112 83<117.159 319.623> 293 107<572.977 658.122> 498 83<118.227 319.879>
CounterMasks: 1 0e
LayerCount: 2
Fore
SplineSet
334 667 m 0x9e
 339 668 343 669 348 669 c 0
 361 669 374 663 384 653 c 0
 395 643 400 630 400 616 c 0
 400 606 399 599 394 590 c 0
 388 576 374 565 359 562 c 0
 354 561 350 562 345 562 c 0
 332 562 319 568 309 578 c 0
 298 588 293 601 293 616 c 0
 293 625 294 630 299 639 c 0
 305 652 319 664 334 667 c 0x9e
330 457 m 0xbe
 336 457 342 457 347 457 c 0xbe
 365 457 378 456 395 452 c 0
 445 442 493 413 526 373 c 0
 550 345 568 307 576 270 c 0
 581 251 581 242 581 219 c 0
 581 206 581 193 580 188 c 0
 576 161 568 135 556 111 c 0
 543 84 529 64 508 44 c 0
 472 10 427 -12 376 -20 c 0
 373.667 -20.3333 370.889 -20.4444 367.778 -20.4444 c 0
 361.556 -20.4444 354 -20 346 -20 c 0
 338.667 -20 331.333 -20.4444 325.185 -20.4444 c 0
 322.111 -20.4444 319.333 -20.3333 317 -20 c 0
 257 -11 204 19 167 64 c 0
 139 97 118 142 112 188 c 0
 111.667 190 111.556 192.667 111.556 195.815 c 0
 111.556 202.111 112 210.333 112 219 c 0
 112 227 111.556 235.444 111.556 241.963 c 0
 111.556 245.222 111.667 248 112 250 c 0
 118 295 139 340 167 373 c 0
 177 385 194 401 205 410 c 1
 210 413 214 417 214 417 c 1
 213 417 195 411 184 406 c 0
 171 400 160 394 127 375 c 0
 88 352 53 336 44 336 c 0
 42 336 39 336 38 338 c 1
 35 341 28 353 28 357 c 0
 28 358 30 362 33 366 c 0
 45 386 55 411 55 434 c 0
 55 447 56 446 62 450 c 0
 65.7513 452.144 68.0666 453.138 70.4851 453.138 c 0
 72.5795 453.138 74.7513 452.392 78 451 c 0
 100 441 126 437 154 437 c 0
 160 437 165 437 171 437 c 0xde
 192 437 208 440 246 446 c 0
 262 449 277 451 281 452 c 0
 297 455 315 457 330 457 c 0xbe
369 434 m 0
 367.333 434.333 365.222 434.444 362.815 434.444 c 0
 358 434.444 352 434 346 434 c 0
 340.667 434 334.889 434.444 330.148 434.444 c 0
 327.778 434.444 325.667 434.333 324 434 c 0
 281 427 242 394 220 351 c 0
 203 319 195 275 195 219 c 0
 195 172 201 134 212 104 c 0
 231 52 275 13 324 5 c 0
 330 4 338 4 346 4 c 0
 355 4 363 4 369 5 c 0
 418 13 462 52 481 104 c 0
 492 134 498 172 498 219 c 0
 498 265 492 303 481 333 c 0
 462 385 418 426 369 434 c 0
EndSplineSet
Validated: 1
EndChar

StartChar: cdotaccent
Encoding: 107 267 101
Width: 472
Flags: HW
HStem: -9 25<209.381 342.405> 421 25<209.171 336.38> 562 106<252 305.524>
LayerCount: 2
Fore
SplineSet
252 668 m 0
 255.643 668.759 259.287 669.126 262.884 669.126 c 0
 282.987 669.126 301.67 657.66 311 639 c 0
 315 631 317 623.25 317 615.5 c 0
 317 607.75 315 600 311 592 c 0
 302 574 283 562 264 562 c 0
 241 562 220 577 212 599 c 1
 211 604 210 608 210 616 c 0
 210 632 215 643 227 654 c 0
 233 660 244 666 252 668 c 0
236 446 m 0
 244.678 447.183 257.245 447.744 270.818 447.744 c 0
 291.655 447.744 314.861 446.422 330 444 c 0
 353 441 379 433 406 422 c 0
 428 413 435 409 436 407 c 0
 438 404 438 400 437 398 c 1
 437 395 400 365 397 364 c 2
 396 363 393 363 392 363 c 1
 390 364 382 371 373 380 c 0
 344 409 326 418 289 421 c 0
 281.606 421.721 274.635 422.085 268.01 422.085 c 0
 237.901 422.085 214.95 414.574 192 399 c 0
 153 372 128 327 121 269 c 0
 118.255 250.47 116.923 232.058 116.923 214.208 c 0
 116.923 180.04 121.804 147.931 131 121 c 0
 148 73 184 35 226 21 c 0
 236.854 17.1237 243.5 15.6515 256.656 15.6515 c 0
 260.47 15.6515 264.831 15.7753 270 16 c 0
 348 16 386 41 414 112 c 0
 421 128 421 129 424 130 c 0
 428 132 431 131 436 128 c 0
 441 124 443 121 443 117 c 0
 443 112 428 78 419 63 c 0
 393 19 358 -2 302 -9 c 0
 294 -10 279.25 -10.5 264.875 -10.5 c 0
 250.5 -10.5 236.5 -10 230 -9 c 0
 205 -5 182 3 161 13 c 0
 106 40 63 88 45 145 c 0
 37.0227 168.932 32.9416 193.188 32.9416 217.584 c 0
 32.9416 236.003 35.2679 254.502 40 273 c 0
 53 322 81 367 121 398 c 0
 153 424 195 441 236 446 c 0
EndSplineSet
Validated: 1
EndChar

StartChar: l
Encoding: 108 108 102
Width: 630
Flags: HW
HStem: 491 32<153 202.896> 570 20G<237 258>
VStem: 231 66<90 462.275> 461 26<64.4941 114 114 124>
LayerCount: 2
Fore
SplineSet
237 586 m 1
 242 590 l 1
 252 590 l 2
 264 589 270 587 277 580 c 0
 285 572 291 559 295 540 c 0
 296 532 296 513 297 314 c 0
 298 81 297 95 302 75 c 0
 309 49 326 29 348 21 c 0
 358.193 17.1338 368.385 15.2441 378.231 15.2441 c 0
 396.397 15.2441 413.381 21.6777 427 34 c 0
 447 54 459 81 461 114 c 0
 461 124 462 125 464 127 c 0
 467 130 468 130 474 130 c 0
 481 130 481 130 484 127 c 2
 487 124 l 1
 487 113 l 2
 485 73 466 35 439 13 c 0
 429 4 410 -5 398 -8 c 0
 390.026 -10.0801 380.129 -11.0781 369.559 -11.0781 c 0
 349.641 -11.0781 327.333 -7.5332 311 -1 c 0
 301 2 285 10 278 16 c 0
 254 33 241 56 233 90 c 2
 231 100 l 1
 230 280 l 2
 229 478 230 464 223 475 c 0
 217 486 198 491 164 491 c 2
 153 491 l 1
 153 507 l 1
 153 523 l 1
 160 523 l 2
 171 524 179 527 190 531 c 0
 210 541 223 556 228 575 c 0
 229 579 230 582 231 582 c 1
 237 586 l 1
EndSplineSet
EndChar

StartChar: m
Encoding: 109 109 103
Width: 1042
Flags: HW
HStem: 0 21G<273 314 550 591 827 868> 343 32<170 220.376> 419 22<403.394 490.831 680.394 767.831>
VStem: 248 70<6 336.159> 525 70<6 298.552 347.188 385.115> 802 70<6 174 174 393.154>
CounterMasks: 1 1c
LayerCount: 2
Fore
SplineSet
255 438 m 1
 259 442 260 442 268 442 c 0
 282 442 291 438 299 426 c 0
 307 414 311 395 312 362 c 2
 312 339 l 1
 318 351 l 2
 327 369 337 383 351 397 c 0
 373 419 397 432 428 439 c 0
 436 441 441 441 460 441 c 0
 477 441 485 441 493 440 c 0
 545 431 577 404 589 358 c 0
 590 353 591 348 592 347 c 1
 592 346 594 350 597 356 c 0
 606 372 614 383 628 397 c 0
 650 419 674 432 705 439 c 0
 713 441 718 441 737 441 c 0
 761 441 771 440 789 435 c 0
 802 432 822 422 832 414 c 0
 854 395 868 366 871 327 c 0
 872 319 872 264 872 161 c 2
 872 6 l 1
 868 3 l 1
 865 0 l 1
 838 0 l 2
 816 0 810 0 808 2 c 1
 802 5 802 -7 802 174 c 0
 801 323 801 340 800 349 c 0
 792 395 771 416 734 419 c 0
 732.484 419.072 730.953 419.108 729.409 419.108 c 0
 709.562 419.108 687.629 413.206 670 403 c 0
 637 384 611 349 601 309 c 0
 595 289 596 297 595 146 c 2
 595 6 l 1
 591 3 l 1
 588 0 l 1
 561 0 l 2
 539 0 533 0 531 2 c 1
 525 5 525 -7 525 174 c 0
 524 323 524 340 523 349 c 0
 515 395 494 416 457 419 c 0
 455.484 419.072 453.953 419.108 452.409 419.108 c 0
 432.562 419.108 410.629 413.206 393 403 c 0
 360 384 334 349 324 309 c 0
 318 289 319 297 318 146 c 2
 318 6 l 1
 314 3 l 1
 311 0 l 1
 284 0 l 2
 262 0 256 0 254 2 c 1
 248 5 248 -6 248 156 c 0
 248 236 248 305 247 309 c 0
 243 335 232 341 188 343 c 2
 170 343 l 1
 170 359 l 1
 170 375 l 1
 178 375 l 2
 211 378 239 399 246 427 c 0
 247 431 248 434 249 434 c 1
 255 438 l 1
EndSplineSet
EndChar

StartChar: n
Encoding: 110 110 104
Width: 791
Flags: W
HStem: 0 21G<273 314 556 618> 343 32<170 220.375> 418.5 23.288<409.974 513.846>
VStem: 248 70<6 337.872> 553 69<6 389.682>
LayerCount: 2
Fore
SplineSet
255 438 m 1
 259 442 260 442 268 442 c 0
 282 442 291 438 299 426 c 0
 307 413 311 395 312 361 c 2
 312 337 l 1
 318 348 l 2
 327 366 335 376 350 392 c 0
 361 402 367 408 375 413 c 0
 395 426 416 435 439 439 c 0
 448.439 440.798 461.111 441.788 474.564 441.788 c 0
 491.04 441.788 508.688 440.303 523 437 c 0
 553 431 578 418 594 399 c 0
 601 390 612 369 615 357 c 0
 622 334 622 345 622 167 c 2
 622 6 l 1
 618 3 l 1
 615 0 l 1
 587 0 l 1
 559 0 l 1
 556 3 l 1
 553 6 l 1
 552 170 l 2
 551 319 551 335 550 345 c 0
 542 388 523 410 488 417 c 0
 483 418 474 418.5 464.75 418.5 c 0
 455.5 418.5 446 418 440 417 c 0
 421 413 400 404 384 393 c 0
 379 389 370 382 363 376 c 0
 344 357 331 334 324 309 c 0
 318 289 319 297 318 146 c 2
 318 6 l 1
 314 3 l 1
 311 0 l 1
 284 0 l 2
 262 0 256 0 254 2 c 1
 248 5 248 -6 248 156 c 0
 248 236 248 305 247 309 c 0
 243 335 232 341 188 343 c 2
 170 343 l 1
 170 359 l 1
 170 375 l 1
 178 375 l 2
 211 378 239 399 246 427 c 0
 247 431 248 434 249 434 c 1
 255 438 l 1
EndSplineSet
EndChar

StartChar: o
Encoding: 111 111 105
Width: 784
Flags: HW
VStem: 185 85<118.201 312.203>
LayerCount: 2
Fore
SplineSet
382 446 m 0
 390.251 447.048 398.554 447.564 406.858 447.564 c 0
 461.962 447.564 517.156 424.844 558 384 c 0
 564 378 573 369 576 364 c 0
 609.915 320.835 627.789 268.164 627.789 215.145 c 0
 627.789 199.381 626.209 183.585 623 168 c 0
 607 84 543 17 459 -4 c 0
 440 -9 429 -10 407 -10 c 0
 384 -10 373 -9 354 -4 c 0
 254 21 185 110 185 214 c 0
 185 259 199 308 224 345 c 0
 261 402 317 438 382 446 c 0
425 424 m 0
 419.5 424.733 413.932 425.097 408.346 425.097 c 0
 383.468 425.097 358.233 417.883 337 404 c 0
 298 380 277 340 271 281 c 0
 269.828 271.627 269.343 246.47 269.343 222.815 c 0
 269.343 206.088 269.586 190.113 270 181 c 0
 274 118 288 79 319 50 c 0
 343.5 26.5 375 14.75 406.5 14.75 c 0
 438 14.75 469.5 26.5 494 50 c 0
 525 79 539 118 543 181 c 0
 543.414 190.113 543.657 206.088 543.657 222.815 c 0
 543.657 246.47 543.172 271.627 542 281 c 0
 539 309 532 334 522 353 c 0
 503 392 468 417 425 424 c 0
EndSplineSet
EndChar

StartChar: p
Encoding: 112 112 106
Width: 848
Flags: HW
HStem: -194 21G<268 313> -10 23<468.046 546.781> 343 32<169 219.376> 416 25<406.894 509.355>
VStem: 249 68<-188 255.804> 396 26<74.7699 114 114 122> 607 84<107.391 311.059>
LayerCount: 2
Fore
SplineSet
254 438 m 1
 259 442 l 1
 269 442 l 1
 281 442 287 439 294 432 c 0
 307 419 314 399 314 363 c 1
 314 343 l 1
 320 353 l 2
 341 387 364 411 396 426 c 0
 409 432 421 436 436 439 c 0
 444 441 457 442 470 442 c 0
 477.333 442 484.667 442.444 490.815 442.444 c 0
 493.889 442.444 496.667 442.333 499 442 c 0
 537 435 573 418 602 396 c 0
 612 389 632 369 640 359 c 0
 650 347 660 331 668 316 c 0
 683 284 691 257 691 223 c 0
 691 214 l 0
 691 158 674 104 644 61 c 0
 635 48 611 24 599 16 c 0
 581 4 560 -6 541 -10 c 0
 539 -10.333 536.556 -10.4443 533.852 -10.4443 c 0
 528.444 -10.4443 522 -10 516 -10 c 0
 509.333 -10 502.667 -10.4443 497.185 -10.4443 c 0
 494.444 -10.4443 492 -10.333 490 -10 c 0
 478 -7 467 -3 457 3 c 0
 437 12 417 17 396 17 c 0
 386 17 375 16 365 14 c 0
 360.728 13.085 357.573 12.541 355.138 12.541 c 0
 349.593 12.541 347.779 15.3564 345 23 c 0
 343.278 28.166 342.297 31.8496 342.297 34.6084 c 0
 342.297 38.2588 344.014 40.291 348 42 c 0
 355 46 364 53 370 59 c 0
 386 74 396 92 396 114 c 0
 396 121 397 123 399 125 c 0
 401 128 403 128 408 128 c 0
 415 128 419 126 421 122 c 1
 421 121 422 115 422 109 c 0
 422 59 450 25 491 15 c 0
 498 14 506 13 513 13 c 0
 520 13 528 14 532 15 c 0
 564 27 594 87 603 158 c 0
 606 176 607 194 607 212 c 0
 607 235 605 257 600 275 c 0
 585 342 544 395 493 411 c 0
 482 414 471 416 460 416 c 0
 434 416 408 407 387 392 c 0
 346 362 315 313 315 253 c 0
 315 245.667 314.556 242.333 314.556 240.333 c 0
 314.556 239.333 314.667 238.667 315 238 c 0
 317 234 317 214 317 23 c 2
 317 -188 l 1
 313 -191 l 1
 310 -194 l 1
 283 -194 l 2
 253 -194 251 -194 249 -188 c 1
 248.333 -187 248.111 -183.222 248.111 -170.63 c 0
 248.111 -145.444 249 -85 249 59 c 0
 249 193 247 305 246 309 c 0
 242 335 231 343 187 343 c 1
 169 343 l 1
 169 359 l 1
 169 375 l 1
 177 375 l 1
 210 375 238 399 245 427 c 0
 246 431 248 434 249 434 c 1
 254 438 l 1
EndSplineSet
EndChar

StartChar: uni1E1F
Encoding: 113 7711 107
Width: 561
Flags: HW
HStem: -194 21G<131 176> 60 56<180 484> 343 32<32 82.0967> 419 22<289.879 415.897>
VStem: 112 68<-188 60 116 336.706> 304 105<578.471 639>
LayerCount: 2
Fore
SplineSet
345 667 m 0
 349.558 668.266 354.115 668.891 358.608 668.891 c 0
 371.859 668.891 384.545 663.455 395 653 c 0
 405.455 642.545 410.891 629.301 410.891 616.185 c 0
 410.891 611.737 410.266 607.305 409 603 c 0
 405 584 388 568 370 564 c 0
 365.442 562.734 360.885 562.109 356.392 562.109 c 0
 343.141 562.109 330.455 567.545 320 578 c 0
 309 588 304 601 304 616 c 0
 304 625 305 630 310 639 c 0
 316 652 330 664 345 667 c 0
117 438 m 1
 121 442 122 442 130 442 c 0
 134 442 140 441 143 440 c 0
 157 436 167 421 172 395 c 0
 173 389 173 377 174 359 c 2
 174 332 l 1
 179 341 l 2
 207 396 267 434 336 441 c 0
 342.5 441.5 355 441.75 368.375 441.75 c 0
 381.75 441.75 396 441.5 406 441 c 0
 480 436 523 414 533 373 c 0
 534.236 368.056 535.09 363.111 535.09 359.111 c 0
 535.09 356.639 534.764 354.528 534 353 c 0
 532 350 479 306 476 306 c 2
 475 305 472 305 471 306 c 1
 466 308 465 311 464 326 c 0
 462 361 453 381 435 397 c 0
 419 410 396 417 363 419 c 0
 360.369 419.096 357.749 419.143 355.142 419.143 c 0
 303.248 419.143 256.278 400.278 222 366 c 0
 201 344 189 322 183 295 c 0
 181 285 181 283 180 200 c 2
 180 116 l 1
 332 116 l 1
 484 116 l 1
 484 88 l 1
 484 60 l 1
 332 60 l 1
 180 60 l 1
 180 -64 l 1
 180 -188 l 1
 176 -191 l 1
 173 -194 l 1
 146 -194 l 2
 116 -194 114 -194 112 -188 c 1
 110 -185 110 -157 110 59 c 0
 110 193 110 305 109 309 c 0
 105 335 94 341 50 343 c 2
 32 343 l 1
 32 359 l 1
 32 375 l 1
 36 375 l 2
 42 375 52 377 59 379 c 0
 84 387 102 405 108 427 c 0
 109 431 110 434 111 434 c 1
 117 438 l 1
EndSplineSet
Validated: 1
EndChar

StartChar: r
Encoding: 114 114 108
Width: 731
Flags: HW
HStem: -194 21G<268 313> 343 32<169 219.376> 422 20G<263 269 531 532.5>
VStem: 249 68<-188 238 258 336.111> 475 62<152.855 371.996>
LayerCount: 2
Fore
SplineSet
254 438 m 1
 258 442 259 442 267 442 c 0
 271 442 277 443 280 442 c 0
 294 438 304 421 309 395 c 0
 310 388 311 376 311 322 c 1
 311 258 l 1
 417 348 l 2
 475 397 524 441 525 442 c 1
 527 443 530 442 532 442 c 0
 533 442 534 443 536 442 c 0
 539.571 439.857 540.082 437.204 540.082 430.032 c 0
 540.082 427.163 540 423.571 540 419 c 0
 540 412 538 390 538 372 c 0
 538 360 537 348 537 335 c 0
 537 232 552 123 580 21 c 0
 583 8 584 3 584 0 c 0
 584 -3 584 -5 582 -7 c 0
 579 -10 572 -10 569 -7 c 0
 564 -3 543 34 531 59 c 0
 499 126 475 195 475 270 c 0
 475 279 475 292 475 306 c 0
 475 326 475 348 475 359 c 0
 475 366 479 372 479 372 c 1
 398 305 l 1
 317 238 l 1
 317 25 l 1
 317 -188 l 1
 313 -191 l 1
 310 -194 l 1
 283 -194 l 2
 253 -194 251 -194 249 -188 c 1
 248.333 -187 248.111 -183.222 248.111 -170.63 c 0
 248.111 -145.444 249 -85 249 59 c 0
 249 193 247 305 246 309 c 0
 242 335 231 343 187 343 c 1
 169 343 l 1
 169 359 l 1
 169 375 l 1
 177 375 l 1
 210 375 238 399 245 427 c 0
 246 431 248 434 249 434 c 1
 254 438 l 1
EndSplineSet
EndChar

StartChar: s
Encoding: 115 115 109
Width: 822
Flags: HW
HStem: -194 21G<269 314> 343 32<170 220.097> 419 22<427.879 553.897>
VStem: 250 68<-188 295>
LayerCount: 2
Fore
SplineSet
255 438 m 1
 259 442 260 442 268 442 c 0
 272 442 278 441 281 440 c 0
 295 436 305 421 310 395 c 0
 311 389 311 377 312 359 c 2
 312 332 l 1
 317 341 l 2
 345 396 405 434 474 441 c 0
 480.5 441.5 493 441.75 506.375 441.75 c 0
 519.75 441.75 534 441.5 544 441 c 0
 618 436 661 414 671 373 c 0
 672.236 368.056 673.09 363.111 673.09 359.111 c 0
 673.09 356.639 672.764 354.528 672 353 c 0
 670 350 617 306 614 306 c 2
 613 305 610 305 609 306 c 1
 604 308 603 311 602 326 c 0
 600 361 591 381 573 397 c 0
 557 410 534 417 501 419 c 0
 498.369 419.096 495.749 419.143 493.142 419.143 c 0
 441.248 419.143 394.278 400.278 360 366 c 0
 339 344 327 322 321 295 c 2
 319 285 l 1
 318 48 l 1
 318 -188 l 1
 314 -191 l 1
 311 -194 l 1
 284 -194 l 2
 254 -194 252 -194 250 -188 c 1
 248 -185 248 -157 248 59 c 0
 248 193 248 305 247 309 c 0
 243 335 232 341 188 343 c 2
 170 343 l 1
 170 359 l 1
 170 375 l 1
 174 375 l 2
 180 375 190 377 197 379 c 0
 222 387 240 405 246 427 c 0
 247 431 248 434 249 434 c 1
 255 438 l 1
EndSplineSet
EndChar

StartChar: t
Encoding: 116 116 110
Width: 816
Flags: HW
HStem: -10 27<387.411 517.656> 375 56<168 338 375.417 656>
LayerCount: 2
Fore
SplineSet
168 403 m 1
 168 431 l 1
 412 431 l 1
 656 431 l 1
 656 403 l 1
 656 375 l 1
 539 375 l 2
 422 374 421 374 414 372 c 0
 384 364 359 344 342 314 c 0
 325.944 285.667 317.917 244.846 317.917 194.907 c 0
 317.917 191.969 317.944 189 318 186 c 0
 319 153 323 130 330 108 c 0
 346 58 381 24 422 17 c 0
 428.491 15.7979 436.08 15.2314 444.184 15.2314 c 0
 469.788 15.2314 500.529 20.8848 518 30 c 0
 548 45 567 69 585 116 c 0
 589 128 591 131 596 131 c 0
 603 131 611 123 611 117 c 0
 611 113 604 94 595 76 c 0
 570 25 536 0 479 -9 c 0
 469.729 -10.2363 453.584 -11.0898 439.533 -11.0898 c 0
 430.849 -11.0898 422.966 -10.7637 418 -10 c 0
 356 -3 302 29 269 80 c 0
 251 106 239 141 235 174 c 0
 234.219 181.025 233.837 188.088 233.837 195.152 c 0
 233.837 251.434 258.13 307.795 299 346 c 0
 308 354 323 366 332 371 c 2
 338 375 l 1
 253 375 l 1
 168 375 l 1
 168 403 l 1
EndSplineSet
EndChar

StartChar: u
Encoding: 117 117 111
Width: 792
Flags: HW
HStem: 343 32<168 218.376 472 522.375> 422 20G<253 272.5 557 576.5>
VStem: 246 70<42.8115 206 206 318.219> 549 71<-5 111.028 111.028 320.658>
LayerCount: 2
Fore
SplineSet
253 438 m 1
 258 442 l 1
 268 442 l 2
 277 441 279 441 284 439 c 0
 300 431 312 410 315 379 c 0
 316 372 316 326 316 233 c 0
 316 93 316 82 320 66 c 0
 327 37 347 20 384 14 c 0
 391.5 13 403.25 12.5 414.5 12.5 c 0
 425.75 12.5 436.5 13 442 14 c 0
 460 19 474 27 489 40 c 0
 523 74 544 132 549 210 c 0
 549.5 220 549.75 242.5 549.75 263.625 c 0
 549.75 284.75 549.5 304.5 549 309 c 0
 545 335 534 341 490 343 c 2
 472 343 l 1
 472 359 l 1
 472 375 l 1
 480 375 l 2
 513 378 541 399 548 427 c 0
 549 431 550 435 551 435 c 1
 551 435 554 436 557 438 c 2
 562 442 l 1
 572 442 l 2
 581 441 584 441 588 439 c 0
 605 431 616 409 619 378 c 0
 620 370 620 315 620 181 c 2
 620 -5 l 1
 616 -8 l 1
 613 -11 l 1
 586 -11 l 1
 560 -11 l 1
 557 -8 l 1
 554 -5 l 1
 553 54 l 2
 553 86.3613 552.038 111.029 552.001 111.029 c 1
 551.864 107.4 540.379 80.4336 537 73 c 0
 515 28 483 0 442 -9 c 0
 435 -10 429 -10 409 -10 c 0
 383 -10 368 -9 352 -6 c 0
 320 1 298 11 280 29 c 0
 265 43 258 56 252 78 c 0
 246 97 246 102 246 206 c 0
 246 259 246 305 245 309 c 0
 241 335 230 341 186 343 c 2
 168 343 l 1
 168 359 l 1
 168 375 l 1
 176 375 l 2
 209 378 237 399 244 427 c 0
 245 431 246 434 247 434 c 1
 253 438 l 1
EndSplineSet
EndChar

StartChar: uni1E03
Encoding: 118 7683 112
Width: 556
Flags: HW
HStem: 569 32<26 76.5757> 569 99<297 346.341>
VStem: 104 70<115.222 321 369 545.291> 256 107<578.471 652.529>
LayerCount: 2
Fore
SplineSet
297 667 m 0x30
 301.558 668.266 306.115 668.891 310.608 668.891 c 0
 323.859 668.891 336.545 663.455 347 653 c 0
 358 643 363 630 363 616 c 0
 363 601 358 588 347 578 c 0
 336.545 567.545 323.859 562.109 310.608 562.109 c 0
 306.115 562.109 301.558 562.734 297 564 c 0
 282 567 268 578 262 592 c 0
 257 601 256 606 256 616 c 0
 256 625 257 630 262 639 c 0
 268 652 282 664 297 667 c 0x30
111 664 m 1
 116 668 l 1
 126 668 l 2x70
 135 667 137 667 142 665 c 0
 158 657 170 636 173 605 c 0
 174 598 174 558 174 482 c 2
 174 369 l 1
 181 378 l 2
 215.921 419.189 262.068 441.938 311.542 441.938 c 0
 317.32 441.938 323.144 441.627 329 441 c 0
 378 436 423 414 458 377 c 0
 491 343 512 300 520 250 c 0
 521 242 521.5 228.75 521.5 215.5 c 0
 521.5 202.25 521 189 520 181 c 0
 510 122 482 70 439 36 c 0
 408 10 369 -6 330 -10 c 0
 323.979 -10.6021 317.914 -10.8997 311.833 -10.8997 c 0
 267.423 -10.8997 222.183 4.97415 187 34 c 0
 177 42 159 61 151 72 c 0
 128 102 113 139 106 180 c 0
 105 189 105 207 104 364 c 0
 103 555 104 542 97 553 c 0
 90 564 72 569 37 569 c 2
 26 569 l 1
 26 585 l 1
 26 601 l 1
 34 601 l 2xb0
 67 604 95 625 102 653 c 0
 103 657 104 660 105 660 c 1
 111 664 l 1
333 416 m 0
 326.423 417.754 318.309 418.546 309.752 418.546 c 0
 298.793 418.546 287.108 417.246 277 415 c 0
 239 405 204 374 180 332 c 2
 174 321 l 1
 174 260 l 2
 174 198 175 180 178 158 c 0
 183 119 196 86 215 62 c 0
 235 37 259 21 287 14 c 0
 291.944 13.101 299.717 12.6061 307.685 12.6061 c 0
 317.444 12.6061 327.495 13.3485 333 15 c 0
 360 22 383 38 401 62 c 0
 427 97 438 142 438 216 c 0
 438 289 427 334 401 369 c 0
 391 382 381 392 367 401 c 0
 356 408 346 413 333 416 c 0
EndSplineSet
Validated: 1
EndChar

StartChar: uni1E41
Encoding: 119 7745 113
Width: 828
Flags: HW
HStem: 0 21G<135 176 412 453 689 730> 343 32<32 82.3755> 419 22<265.394 352.831 542.394 629.831>
VStem: 110 70<6 336.159> 369 106<572.473 658.526> 387 70<6 298.552 347.188 385.115> 664 70<6 174 174 393.154>
LayerCount: 2
Fore
SplineSet
409 668 m 0xfa
 411.834 668.708 415.546 669.041 419.515 669.041 c 0
 426.749 669.041 434.834 667.937 440 666 c 0
 461 658 475 638 475 616 c 0
 475 598 467 582 453 572 c 0
 443 565 435 563 422 563 c 0
 409 563 401 565 391 572 c 0
 377 582 369 597 369 616 c 0
 369 629 372 638 380 649 c 0
 387 657 397 664 409 668 c 0xfa
117 438 m 1
 121 442 122 442 130 442 c 0
 144 442 153 438 161 426 c 0
 169 414 173 395 174 362 c 2
 174 339 l 1
 180 351 l 2
 189 369 199 383 213 397 c 0
 235 419 259 432 290 439 c 0
 298 441 303 441 322 441 c 0
 339 441 347 441 355 440 c 0
 407 431 439 404 451 358 c 0
 452 353 453 348 454 347 c 1
 454 346 456 350 459 356 c 0
 468 372 476 383 490 397 c 0
 512 419 536 432 567 439 c 0
 575 441 580 441 599 441 c 0
 623 441 633 440 651 435 c 0
 664 432 684 422 694 414 c 0
 716 395 730 366 733 327 c 0
 734 319 734 264 734 161 c 2
 734 6 l 1
 730 3 l 1
 727 0 l 1
 700 0 l 2
 678 0 672 0 670 2 c 1
 664 5 664 -7 664 174 c 0
 663 323 663 340 662 349 c 0
 654 395 633 416 596 419 c 0
 594.484 419.072 592.953 419.108 591.409 419.108 c 0
 571.562 419.108 549.629 413.206 532 403 c 0
 499 384 473 349 463 309 c 0
 457 289 458 297 457 146 c 2
 457 6 l 1
 453 3 l 1
 450 0 l 1
 423 0 l 2
 401 0 395 0 393 2 c 1
 387 5 387 -7 387 174 c 0xf6
 386 323 386 340 385 349 c 0
 377 395 356 416 319 419 c 0
 317.484 419.072 315.953 419.108 314.409 419.108 c 0
 294.562 419.108 272.629 413.206 255 403 c 0
 222 384 196 349 186 309 c 0
 180 289 181 297 180 146 c 2
 180 6 l 1
 176 3 l 1
 173 0 l 1
 146 0 l 2
 124 0 118 0 116 2 c 1
 110 5 110 -6 110 156 c 0
 110 236 110 305 109 309 c 0
 105 335 94 341 50 343 c 2
 32 343 l 1
 32 359 l 1
 32 375 l 1
 40 375 l 2
 73 378 101 399 108 427 c 0
 109 431 110 434 111 434 c 1
 117 438 l 1
EndSplineSet
Validated: 1
EndChar

StartChar: uni1E6B
Encoding: 120 7787 114
Width: 583
Flags: HW
HStem: -10 27<269.411 399.656> 375 56<50 220 257.417 538>
LayerCount: 2
Fore
SplineSet
306 667 m 0
 310.477 668.221 314.954 668.798 319.349 668.798 c 0
 347.347 668.798 372 645.387 372 616 c 0
 372 585.439 347.602 562.502 318.778 562.502 c 0
 314.591 562.502 310.312 562.985 306 564 c 0
 289 568 275 580 268 598 c 0
 266 604 266 606 266 616 c 0
 266 625 266 627 268 633 c 0
 275 651 289 663 306 667 c 0
50 403 m 1
 50 431 l 1
 294 431 l 1
 538 431 l 1
 538 403 l 1
 538 375 l 1
 421 375 l 2
 304 374 303 374 296 372 c 0
 266 364 241 344 224 314 c 0
 207.944 285.667 199.917 244.846 199.917 194.907 c 0
 199.917 191.969 199.944 189 200 186 c 0
 201 153 205 130 212 108 c 0
 228 58 263 24 304 17 c 0
 310.491 15.798 318.08 15.2317 326.184 15.2317 c 0
 351.788 15.2317 382.529 20.8849 400 30 c 0
 430 45 449 69 467 116 c 0
 471 128 473 131 478 131 c 0
 485 131 493 123 493 117 c 0
 493 113 486 94 477 76 c 0
 452 25 418 0 361 -9 c 0
 351.729 -10.2361 335.584 -11.0902 321.533 -11.0902 c 0
 312.849 -11.0902 304.966 -10.7639 300 -10 c 0
 238 -3 184 29 151 80 c 0
 133 106 121 141 117 174 c 0
 116.219 181.025 115.837 188.088 115.837 195.152 c 0
 115.837 251.434 140.13 307.795 181 346 c 0
 190 354 205 366 214 371 c 2
 220 375 l 1
 135 375 l 1
 50 375 l 1
 50 403 l 1
EndSplineSet
Validated: 1
EndChar

StartChar: gdotaccent
Encoding: 121 289 115
Width: 0
Flags: HW
HStem: -205 23<245.698 393.712> 375 56<50 236.99 308 566>
VStem: 112 48<187.912 294.63> 122 28<-69.6313 15> 255 106<572.075 658.526> 483 48<-120.5 -12.0948>
LayerCount: 2
Fore
SplineSet
295 668 m 0xcc
 298 669 302 669 306 669 c 0
 313 669 321 668 326 666 c 0
 347 658 361 638 361 616 c 0
 361 593 347 572 325 565 c 0
 320 564 314 563 308 563 c 0
 302 563 296 564 291 565 c 0
 269 572 255 593 255 616 c 0
 255 633 263 649 277 659 c 0
 283 663 287 665 295 668 c 0xcc
50 403 m 1
 50 431 l 1
 308 431 l 1
 566 431 l 1
 566 403 l 1
 566 375 l 1
 443 375 l 1
 320 375 l 1
 308 372 l 2
 283 366 248 353 231 344 c 0
 200 327 175 302 166 279 c 0
 162 269 160 257 160 246 c 0xec
 160 234 162 222 167 211 c 0
 180 181 212 154 250 141 c 0
 256 139 275 135 294 131 c 0
 369 117 378 115 391 111 c 0
 459 91 509 50 525 0 c 0
 529 -12 531 -20 531 -33 c 0
 531 -42 l 0
 531 -57 531 -62 529 -71 c 0
 521 -107 503 -138 477 -158 c 0
 446 -182 405 -197 357 -202 c 0
 344 -204 323 -205 307 -205 c 0
 300.333 -205 295 -205.444 290.704 -205.444 c 0
 288.556 -205.444 286.667 -205.333 285 -205 c 0
 257 -202 242 -196 212 -181 c 0
 181 -166 164 -158 136 -158 c 0
 131 -158 126 -157 122 -157 c 0
 114 -157 106 -158 94 -160 c 0
 89.6667 -160.667 86.4444 -161 83.963 -161 c 0
 79 -161 77 -159.667 75 -157 c 0
 72 -152 69 -141 69 -138 c 1
 70 -137 73 -131 77 -126 c 0
 102 -93 117 -56 122 -15 c 0
 122 -8 122 1 122 5 c 0
 122 9 122 14 122 15 c 1
 124 19 129.75 21 135.375 21 c 0
 141 21 146.5 19 148 15 c 1
 148 14 150 4 150 -6 c 0xdc
 150 -28 153 -41 157 -57 c 0
 173 -126 215 -169 275 -180 c 0
 283 -181 294 -182 306 -182 c 0
 324 -182 344 -180 360 -178 c 0
 417 -170 455 -148 473 -111 c 0
 480 -99 483 -84 483 -69 c 0
 483 -61 482 -53 480 -46 c 0
 472 -13 438 17 391 33 c 0
 374 39 369 40 312 51 c 0
 243 64 234 67 211 77 c 0
 159 102 123 144 112 195 c 0
 111.667 197 111.556 199.444 111.556 202.148 c 0
 111.556 207.556 112 214 112 220 c 0xec
 112 226.667 111.556 233.333 111.556 238.815 c 0
 111.556 241.556 111.667 244 112 246 c 0
 118 274 133 299 156 321 c 0
 177 343 193 356 236 375 c 0
 236 375 237 374 237 375 c 0
 237 375.333 235.444 375.444 230.481 375.444 c 0
 220.556 375.444 197 375 145 375 c 2
 50 375 l 1
 50 403 l 1
EndSplineSet
Validated: 1
EndChar

StartChar: uni1E61
Encoding: 122 7777 116
Width: 561
Flags: HW
HStem: -194 21G<131 176> 343 32<32 82.0967> 419 22<289.879 415.897>
VStem: 112 68<-188 295> 304 105<578.471 639>
LayerCount: 2
Fore
SplineSet
345 667 m 0
 349.558 668.266 354.115 668.891 358.608 668.891 c 0
 371.859 668.891 384.545 663.455 395 653 c 0
 405.455 642.545 410.891 629.301 410.891 616.185 c 0
 410.891 611.737 410.266 607.305 409 603 c 0
 405 584 388 568 370 564 c 0
 365.442 562.734 360.885 562.109 356.392 562.109 c 0
 343.141 562.109 330.455 567.545 320 578 c 0
 309 588 304 601 304 616 c 0
 304 625 305 630 310 639 c 0
 316 652 330 664 345 667 c 0
117 438 m 1
 121 442 122 442 130 442 c 0
 134 442 140 441 143 440 c 0
 157 436 167 421 172 395 c 0
 173 389 173 377 174 359 c 2
 174 332 l 1
 179 341 l 2
 207 396 267 434 336 441 c 0
 342.5 441.5 355 441.75 368.375 441.75 c 0
 381.75 441.75 396 441.5 406 441 c 0
 480 436 523 414 533 373 c 0
 534.236 368.056 535.09 363.111 535.09 359.111 c 0
 535.09 356.639 534.764 354.528 534 353 c 0
 532 350 479 306 476 306 c 2
 475 305 472 305 471 306 c 1
 466 308 465 311 464 326 c 0
 462 361 453 381 435 397 c 0
 419 410 396 417 363 419 c 0
 360.369 419.096 357.749 419.143 355.142 419.143 c 0
 303.248 419.143 256.278 400.278 222 366 c 0
 201 344 189 322 183 295 c 2
 181 285 l 1
 180 48 l 1
 180 -188 l 1
 176 -191 l 1
 173 -194 l 1
 146 -194 l 2
 116 -194 114 -194 112 -188 c 1
 110 -185 110 -157 110 59 c 0
 110 193 110 305 109 309 c 0
 105 335 94 341 50 343 c 2
 32 343 l 1
 32 359 l 1
 32 375 l 1
 36 375 l 2
 42 375 52 377 59 379 c 0
 84 387 102 405 108 427 c 0
 109 431 110 434 111 434 c 1
 117 438 l 1
EndSplineSet
Validated: 1
EndChar

StartChar: endash
Encoding: 123 8211 117
Width: 500
Flags: HW
LayerCount: 2
Fore
SplineSet
0 267 m 1
 0 278 l 1
 250 278 l 1
 499 278 l 1
 499 267 l 1
 499 255 l 1
 250 255 l 1
 0 255 l 1
 0 267 l 1
EndSplineSet
Validated: 1
EndChar

StartChar: emdash
Encoding: 124 8212 118
Width: 1000
Flags: HW
LayerCount: 2
Fore
SplineSet
0 267 m 1
 0 278 l 1
 500 278 l 1
 999 278 l 1
 999 267 l 1
 999 255 l 1
 500 255 l 1
 0 255 l 1
 0 267 l 1
EndSplineSet
Validated: 1
EndChar

StartChar: asciitilde
Encoding: 126 126 119
Width: 500
Flags: HW
HStem: 546 43<123.004 267.287>
LayerCount: 2
Fore
SplineSet
175 589 m 0
 179.873 589.696 184.746 590.069 189.882 590.069 c 0
 206.877 590.069 226.746 585.983 259 576 c 0
 292.515 566.298 307.361 562.82 325.492 562.82 c 0
 327.918 562.82 330.403 562.882 333 563 c 0
 343 564 349 564 356 566 c 0
 368 570 383 577 394 584 c 2
 402 590 l 1
 409 581 l 1
 416 572 l 1
 416 571 407 565 398 557 c 0
 367 534 355 528 335 522 c 0
 326.37 519.929 318.097 518.811 309.071 518.811 c 0
 291.951 518.811 272.12 522.833 242 532 c 0
 205.777 542.602 191.41 546.179 173.382 546.179 c 0
 171.004 546.179 168.563 546.117 166 546 c 0
 156 545 150 545 143 543 c 0
 131 539 116 532 105 525 c 2
 97 519 l 1
 90 528 l 1
 83 537 l 1
 83 538 92 544 102 552 c 0
 123 568 133 575 144 580 c 0
 153 584 166 588 175 589 c 0
EndSplineSet
Validated: 1
EndChar

StartChar: uni0308
Encoding: 127 776 120
Width: 500
Flags: HW
LayerCount: 2
Fore
SplineSet
140 589 m 0
 143.944 590.183 148.045 590.744 152.17 590.744 c 0
 168.961 590.744 186.169 581.45 195 567 c 0
 200.5 558.5 203.25 549.5 203.25 540.5 c 0
 203.25 531.5 200.5 522.5 195 514 c 0
 186.169 499.55 169.606 490.256 153.068 490.256 c 0
 149.006 490.256 144.944 490.817 141 492 c 0
 118 497 102 518 102 541 c 0
 102 563 118 583 140 589 c 0
334 589 m 0
 338.335 590.258 342.689 590.852 346.973 590.852 c 0
 373.323 590.852 397 568.386 397 540 c 0
 397 512.485 373.341 490.145 347.638 490.145 c 0
 343.448 490.145 339.205 490.739 335 492 c 0
 312 497 296 518 296 541 c 0
 296 563 312 583 334 589 c 0
EndSplineSet
Validated: 1
EndChar

StartChar: quotedblright
Encoding: 257 8221 121
Width: 500
Flags: HW
LayerCount: 2
Fore
SplineSet
73 588 m 0
 77.5934 589.148 82.2396 589.716 86.8416 589.716 c 0
 102.277 589.716 117.215 583.325 128 571 c 0
 135 564 142 550 146 538 c 0
 151.369 522.38 153.879 504.378 153.879 485.156 c 0
 153.879 464.998 151.119 443.499 146 422 c 0
 141 403 137 391 128 373 c 0
 114 345 101 327 81 305 c 0
 69.5389 293.539 64.1591 288.97 59.6978 288.97 c 0
 57.1525 288.97 54.9062 290.457 52 293 c 1
 49 297 48 298 48 301 c 0
 48 305 49 306 59 316 c 0
 80 337 94 357 107 382 c 0
 118 404 125 427 129 452 c 0
 129.809 462.517 131.273 482.198 131.273 492.508 c 0
 131.273 494.942 131.191 496.854 131 498 c 2
 130 503 l 1
 124 498 l 2
 113.706 488.311 100.111 483.023 86.3249 483.023 c 0
 77.3448 483.023 68.2834 485.267 60 490 c 0
 44 498 33 517 33 536 c 0
 33 561 49 583 73 588 c 0
267 588 m 0
 271.593 589.148 276.24 589.716 280.842 589.716 c 0
 296.277 589.716 311.215 583.325 322 571 c 0
 329 564 336 550 340 538 c 0
 345.369 522.38 347.879 504.378 347.879 485.156 c 0
 347.879 464.998 345.119 443.499 340 422 c 0
 335 403 331 391 322 373 c 0
 308 345 295 327 275 305 c 0
 263.539 293.539 258.159 288.97 253.698 288.97 c 0
 251.152 288.97 248.906 290.457 246 293 c 1
 243 297 242 298 242 301 c 0
 242 305 243 306 253 316 c 0
 274 337 288 357 301 382 c 0
 312 404 319 427 323 452 c 0
 323.809 462.517 325.273 482.198 325.273 492.508 c 0
 325.273 494.942 325.191 496.854 325 498 c 2
 324 503 l 1
 318 498 l 2
 307.628 488.122 293.597 483.123 279.762 483.123 c 0
 265.586 483.123 251.616 488.372 242 499 c 0
 232 509 227 522.75 227 536.5 c 0
 227 550.25 232 564 242 574 c 0
 248 581 258 586 267 588 c 0
EndSplineSet
Validated: 1
EndChar

StartChar: quotedblleft
Encoding: 256 8220 122
Width: 500
Flags: HW
LayerCount: 2
Fore
SplineSet
307.88 290.687 m 0
 303.286 289.538 298.64 288.97 294.038 288.97 c 0
 278.603 288.97 263.664 295.361 252.88 307.687 c 0
 245.88 314.687 238.88 328.687 234.88 340.687 c 0
 229.511 356.306 227 374.308 227 393.53 c 0
 227 413.688 229.761 435.187 234.88 456.687 c 0
 239.88 475.687 243.88 487.687 252.88 505.687 c 0
 266.88 533.687 279.88 551.687 299.88 573.687 c 0
 311.341 585.148 316.721 589.717 321.182 589.717 c 0
 323.727 589.717 325.974 588.229 328.88 585.687 c 1
 331.88 581.687 332.88 580.687 332.88 577.687 c 0
 332.88 573.687 331.88 572.687 321.88 562.687 c 0
 300.88 541.687 286.88 521.687 273.88 496.687 c 0
 262.88 474.687 255.88 451.687 251.88 426.687 c 0
 251.071 416.169 249.607 396.489 249.607 386.178 c 0
 249.607 383.744 249.689 381.832 249.88 380.687 c 2
 250.88 375.687 l 1
 256.88 380.687 l 2
 267.174 390.375 280.769 395.664 294.555 395.664 c 0
 303.535 395.664 312.596 393.42 320.88 388.687 c 0
 336.88 380.687 347.88 361.687 347.88 342.687 c 0
 347.88 317.687 331.88 295.687 307.88 290.687 c 0
113.88 290.687 m 0
 109.286 289.538 104.64 288.97 100.038 288.97 c 0
 84.603 288.97 69.6645 295.361 58.8799 307.687 c 0
 51.8799 314.687 44.8799 328.687 40.8799 340.687 c 0
 35.5106 356.306 33.0004 374.308 33.0004 393.53 c 0
 33.0004 413.688 35.761 435.187 40.8799 456.687 c 0
 45.8799 475.687 49.8799 487.687 58.8799 505.687 c 0
 72.8799 533.687 85.8799 551.687 105.88 573.687 c 0
 117.341 585.148 122.721 589.717 127.182 589.717 c 0
 129.727 589.717 131.974 588.229 134.88 585.687 c 1
 137.88 581.687 138.88 580.687 138.88 577.687 c 0
 138.88 573.687 137.88 572.687 127.88 562.687 c 0
 106.88 541.687 92.8799 521.687 79.8799 496.687 c 0
 68.8799 474.687 61.8799 451.687 57.8799 426.687 c 0
 57.0709 416.169 55.6073 396.489 55.6073 386.178 c 0
 55.6073 383.744 55.6889 381.832 55.8799 380.687 c 2
 56.8799 375.687 l 1
 62.8799 380.687 l 2
 73.2518 390.565 87.2828 395.564 101.118 395.564 c 0
 115.294 395.564 129.264 390.315 138.88 379.687 c 0
 148.88 369.687 153.88 355.937 153.88 342.187 c 0
 153.88 328.437 148.88 314.687 138.88 304.687 c 0
 132.88 297.687 122.88 292.687 113.88 290.687 c 0
EndSplineSet
Validated: 1
EndChar

StartChar: arrowright
Encoding: 258 8594 123
Width: 0
Flags: HW
HStem: 230 40<-78 479>
VStem: 358 40<28 89.126 410.388 472>
LayerCount: 2
Fore
SplineSet
589 250 m 1
 492 213 418 134 398 28 c 1
 378 28 l 2
 361 28 358 28 358 30 c 0
 358 30 374 137 469 221 c 2
 479 230 l 1
 202 230 l 2
 24 230 -39.7778 229.111 -63.4074 229.111 c 0
 -75.2222 229.111 -77 229.333 -78 230 c 1
 -87 234 -89 246 -89 250 c 0
 -89 257 -85 265 -78 268 c 1
 -75 270 -65 270 202 270 c 2
 479 270 l 1
 469 279 l 2
 375 361 358 467 358 470 c 0
 358 472 361 472 378 472 c 2
 398 472 l 1
 418 365 492 286 589 250 c 1
EndSplineSet
Validated: 1
EndChar

StartChar: arrowleft
Encoding: 259 8592 124
Width: 0
Flags: HW
HStem: 230 40<21 578>
VStem: 102 40<28 89.126 410.388 472>
LayerCount: 2
Fore
SplineSet
102 28 m 1
 82 134 8 213 -89 250 c 1
 8 286 82 365 102 472 c 1
 122 472 l 2
 139 472 142 472 142 470 c 0
 142 468 126 362 31 279 c 2
 21 270 l 1
 298 270 l 2
 565 270 575 270 578 268 c 1
 585 265 589 257 589 250 c 0
 589 246 587 234 578 230 c 1
 577 229.333 575.222 229.111 563.407 229.111 c 0
 539.778 229.111 476 230 298 230 c 2
 21 230 l 1
 31 221 l 2
 125 138 142 32 142 30 c 0
 142 28 139 28 122 28 c 2
 102 28 l 1
EndSplineSet
Validated: 1
EndChar
